<?xml version="1.0" encoding="UTF-8" standalone="no"?>
<!-- Created with Inkscape (http://www.inkscape.org/) -->

<svg
   xmlns:dc="http://purl.org/dc/elements/1.1/"
   xmlns:cc="http://creativecommons.org/ns#"
   xmlns:rdf="http://www.w3.org/1999/02/22-rdf-syntax-ns#"
   xmlns:svg="http://www.w3.org/2000/svg"
   xmlns="http://www.w3.org/2000/svg"
   xmlns:xlink="http://www.w3.org/1999/xlink"
   xmlns:sodipodi="http://sodipodi.sourceforge.net/DTD/sodipodi-0.dtd"
   xmlns:inkscape="http://www.inkscape.org/namespaces/inkscape"
   width="256.22861mm"
   height="261.0181mm"
   viewBox="0 0 907.89664 924.86727"
   id="svg2"
   version="1.1"
   inkscape:version="0.91 r13725"
   sodipodi:docname="Logo Lori Negre Cercle.svg"
   inkscape:export-filename="/Users/vande/MuMaker/Logo/Logo Lori Negre Cercle.png"
   inkscape:export-xdpi="90"
   inkscape:export-ydpi="90">
  <defs
     id="defs4">
    <inkscape:path-effect
       fuse_tolerance="0"
       vertical_pattern="false"
       prop_units="false"
       tang_offset="0"
       normal_offset="0"
       spacing="0"
       scale_y_rel="false"
       prop_scale="1"
       copytype="single_stretched"
       pattern="m -1061.6828,-4.4158579 c 0,-2.76 2.24,-5 5,-5 2.76,0 5,2.24 5,5 0,2.76 -2.24,5.00000005 -5,5.00000005 -2.76,0 -5,-2.24000005 -5,-5.00000005 z"
       is_visible="true"
       id="path-effect4277"
       effect="skeletal" />
    <inkscape:path-effect
       effect="skeletal"
       id="path-effect4273"
       is_visible="true"
       pattern="m -1085.6884,10.06709 c 0,-2.7600003 2.24,-5.0000003 5,-5.0000003 2.76,0 5,2.24 5,5.0000003 0,2.76 -2.24,5 -5,5 -2.76,0 -5,-2.24 -5,-5 z"
       copytype="single_stretched"
       prop_scale="1"
       scale_y_rel="false"
       spacing="0"
       normal_offset="0"
       tang_offset="0"
       prop_units="false"
       vertical_pattern="false"
       fuse_tolerance="0" />
    <inkscape:path-effect
       fuse_tolerance="0"
       vertical_pattern="false"
       prop_units="false"
       tang_offset="0"
       normal_offset="0"
       spacing="0"
       scale_y_rel="false"
       prop_scale="1"
       copytype="single_stretched"
       pattern="m -1099.3042,7.3439321 c 0,-2.76 2.24,-5 5,-5 2.76,0 5,2.24 5,5 0,2.7599999 -2.24,4.9999999 -5,4.9999999 -2.76,0 -5,-2.24 -5,-4.9999999 z"
       is_visible="true"
       id="path-effect4269"
       effect="skeletal" />
    <inkscape:path-effect
       effect="skeletal"
       id="path-effect4265"
       is_visible="true"
       pattern="m -1099.3042,7.3439321 c 0,-2.76 2.24,-5 5,-5 2.76,0 5,2.24 5,5 0,2.7599999 -2.24,4.9999999 -5,4.9999999 -2.76,0 -5,-2.24 -5,-4.9999999 z"
       copytype="single_stretched"
       prop_scale="1"
       scale_y_rel="false"
       spacing="0"
       normal_offset="0"
       tang_offset="0"
       prop_units="false"
       vertical_pattern="false"
       fuse_tolerance="0" />
    <inkscape:path-effect
       fuse_tolerance="0"
       vertical_pattern="false"
       prop_units="false"
       tang_offset="0"
       normal_offset="0"
       spacing="0"
       scale_y_rel="false"
       prop_scale="1"
       copytype="single_stretched"
       pattern="m -1099.3042,7.3439321 c 0,-2.76 2.24,-5 5,-5 2.76,0 5,2.24 5,5 0,2.7599999 -2.24,4.9999999 -5,4.9999999 -2.76,0 -5,-2.24 -5,-4.9999999 z"
       is_visible="true"
       id="path-effect4261"
       effect="skeletal" />
    <inkscape:path-effect
       fuse_tolerance="0"
       vertical_pattern="false"
       prop_units="false"
       tang_offset="0"
       normal_offset="0"
       spacing="0"
       scale_y_rel="false"
       prop_scale="1"
       copytype="single_stretched"
       pattern="m -1099.3042,7.3439321 c 0,-2.76 2.24,-5 5,-5 2.76,0 5,2.24 5,5 0,2.7599999 -2.24,4.9999999 -5,4.9999999 -2.76,0 -5,-2.24 -5,-4.9999999 z"
       is_visible="true"
       id="path-effect4253"
       effect="skeletal" />
    <inkscape:path-effect
       fuse_tolerance="0"
       vertical_pattern="false"
       prop_units="false"
       tang_offset="0"
       normal_offset="0"
       spacing="0"
       scale_y_rel="false"
       prop_scale="1"
       copytype="single_stretched"
       pattern="m -1099.3042,7.3439321 c 0,-2.76 2.24,-5 5,-5 2.76,0 5,2.24 5,5 0,2.7599999 -2.24,4.9999999 -5,4.9999999 -2.76,0 -5,-2.24 -5,-4.9999999 z"
       is_visible="true"
       id="path-effect4249"
       effect="skeletal" />
    <inkscape:path-effect
       fuse_tolerance="0"
       vertical_pattern="false"
       prop_units="false"
       tang_offset="0"
       normal_offset="0"
       spacing="0"
       scale_y_rel="false"
       prop_scale="1"
       copytype="single_stretched"
       pattern="m -1065.0185,-46.941783 c 0,-2.76 2.24,-5 5,-5 2.76,0 5,2.24 5,5 0,2.76 -2.24,5 -5,5 -2.76,0 -5,-2.24 -5,-5 z"
       is_visible="true"
       id="path-effect4245"
       effect="skeletal" />
    <inkscape:path-effect
       fuse_tolerance="0"
       vertical_pattern="false"
       prop_units="false"
       tang_offset="0"
       normal_offset="0"
       spacing="0"
       scale_y_rel="false"
       prop_scale="1"
       copytype="single_stretched"
       pattern="m -1114.2815,-21.249222 c 0,-2.76 2.24,-5 5,-5 2.76,0 5,2.24 5,5 0,2.76 -2.24,5 -5,5 -2.76,0 -5,-2.24 -5,-5 z"
       is_visible="true"
       id="path-effect4241"
       effect="skeletal" />
    <inkscape:path-effect
       fuse_tolerance="0"
       vertical_pattern="false"
       prop_units="false"
       tang_offset="0"
       normal_offset="0"
       spacing="0"
       scale_y_rel="false"
       prop_scale="1"
       copytype="single_stretched"
       pattern="m -1108.8352,-11.718171 c 0,-2.76 2.24,-5 5,-5 2.76,0 5,2.24 5,5 0,2.7600001 -2.24,5.0000004 -5,5.0000004 -2.76,0 -5,-2.2400003 -5,-5.0000004 z"
       is_visible="true"
       id="path-effect4237"
       effect="skeletal" />
    <inkscape:path-effect
       fuse_tolerance="0"
       vertical_pattern="false"
       prop_units="false"
       tang_offset="0"
       normal_offset="0"
       spacing="0"
       scale_y_rel="false"
       prop_scale="1"
       copytype="single_stretched"
       pattern="m -1082.711,-20.441328 c 0,-2.76 2.24,-5 5,-5 2.76,0 5,2.24 5,5 0,2.76 -2.24,5 -5,5 -2.76,0 -5,-2.24 -5,-5 z"
       is_visible="true"
       id="path-effect4233"
       effect="skeletal" />
    <inkscape:path-effect
       fuse_tolerance="0"
       vertical_pattern="false"
       prop_units="false"
       tang_offset="0"
       normal_offset="0"
       spacing="0"
       scale_y_rel="false"
       prop_scale="1"
       copytype="single_stretched"
       pattern="m -1099.3042,-38.656068 c 0,-2.76 2.24,-5 5,-5 2.76,0 5,2.24 5,5 0,2.76 -2.24,5 -5,5 -2.76,0 -5,-2.24 -5,-5 z"
       is_visible="true"
       id="path-effect4229"
       effect="skeletal" />
    <inkscape:path-effect
       fuse_tolerance="0"
       vertical_pattern="false"
       prop_units="false"
       tang_offset="0"
       normal_offset="0"
       spacing="0"
       scale_y_rel="false"
       prop_scale="1"
       copytype="single_stretched"
       pattern="m 13.615788,7.7231576 c 0,-2.76 2.24,-5 5,-5 2.76,0 5,2.24 5,5 0,2.7600004 -2.24,5.0000004 -5,5.0000004 -2.76,0 -5,-2.24 -5,-5.0000004 z"
       is_visible="true"
       id="path-effect4346"
       effect="skeletal" />
    <inkscape:path-effect
       effect="skeletal"
       id="path-effect4342"
       is_visible="true"
       pattern="M 0,5 C 0,2.24 2.24,0 5,0 7.76,0 10,2.24 10,5 10,7.76 7.76,10 5,10 2.24,10 0,7.76 0,5 Z"
       copytype="single_stretched"
       prop_scale="1"
       scale_y_rel="false"
       spacing="0"
       normal_offset="0"
       tang_offset="0"
       prop_units="false"
       vertical_pattern="false"
       fuse_tolerance="0" />
    <inkscape:path-effect
       effect="skeletal"
       id="path-effect4338"
       is_visible="true"
       pattern="M 0,5 C 0,2.24 2.24,0 5,0 7.76,0 10,2.24 10,5 10,7.76 7.76,10 5,10 2.24,10 0,7.76 0,5 Z"
       copytype="single_stretched"
       prop_scale="1"
       scale_y_rel="false"
       spacing="0"
       normal_offset="0"
       tang_offset="0"
       prop_units="false"
       vertical_pattern="false"
       fuse_tolerance="0" />
    <inkscape:path-effect
       fuse_tolerance="0"
       vertical_pattern="false"
       prop_units="false"
       tang_offset="0"
       normal_offset="0"
       spacing="0"
       scale_y_rel="false"
       prop_scale="1"
       copytype="single_stretched"
       pattern="M 0,5 C 0,2.24 2.24,0 5,0 7.76,0 10,2.24 10,5 10,7.76 7.76,10 5,10 2.24,10 0,7.76 0,5 Z"
       is_visible="true"
       id="path-effect4334"
       effect="skeletal" />
    <inkscape:path-effect
       effect="skeletal"
       id="path-effect4330"
       is_visible="true"
       pattern="M 0,5 C 0,2.24 2.24,0 5,0 7.76,0 10,2.24 10,5 10,7.76 7.76,10 5,10 2.24,10 0,7.76 0,5 Z"
       copytype="single_stretched"
       prop_scale="1"
       scale_y_rel="false"
       spacing="0"
       normal_offset="0"
       tang_offset="0"
       prop_units="false"
       vertical_pattern="false"
       fuse_tolerance="0" />
    <inkscape:path-effect
       effect="skeletal"
       id="path-effect4320"
       is_visible="true"
       pattern="M 0,5 C 0,2.24 2.24,0 5,0 7.76,0 10,2.24 10,5 10,7.76 7.76,10 5,10 2.24,10 0,7.76 0,5 Z"
       copytype="single_stretched"
       prop_scale="1"
       scale_y_rel="false"
       spacing="0"
       normal_offset="0"
       tang_offset="0"
       prop_units="false"
       vertical_pattern="false"
       fuse_tolerance="0" />
    <inkscape:path-effect
       effect="skeletal"
       id="path-effect4316"
       is_visible="true"
       pattern="m -6.0847363,0.57486901 c 0,-2.76000001 2.24,-5.00000001 5,-5.00000001 2.76,0 5,2.24 5,5.00000001 0,2.75999999 -2.24,4.99999999 -5,4.99999999 -2.76,0 -5,-2.24 -5,-4.99999999 z"
       copytype="single_stretched"
       prop_scale="1"
       scale_y_rel="false"
       spacing="0"
       normal_offset="0"
       tang_offset="0"
       prop_units="false"
       vertical_pattern="false"
       fuse_tolerance="0" />
    <inkscape:path-effect
       effect="skeletal"
       id="path-effect4312"
       is_visible="true"
       pattern="M 0,5 C 0,2.24 2.24,0 5,0 7.76,0 10,2.24 10,5 10,7.76 7.76,10 5,10 2.24,10 0,7.76 0,5 Z"
       copytype="single_stretched"
       prop_scale="1"
       scale_y_rel="false"
       spacing="0"
       normal_offset="0"
       tang_offset="0"
       prop_units="false"
       vertical_pattern="false"
       fuse_tolerance="0" />
    <inkscape:path-effect
       effect="skeletal"
       id="path-effect4306"
       is_visible="true"
       pattern="m 34.285714,-49.285715 c 0,-2.76 2.24,-5 5,-5 2.76,0 5,2.24 5,5 0,2.76 -2.24,5 -5,5 -2.76,0 -5,-2.24 -5,-5 z"
       copytype="single_stretched"
       prop_scale="1"
       scale_y_rel="false"
       spacing="0"
       normal_offset="0"
       tang_offset="0"
       prop_units="false"
       vertical_pattern="false"
       fuse_tolerance="0" />
    <inkscape:path-effect
       effect="skeletal"
       id="path-effect4302"
       is_visible="true"
       pattern="m -14.977366,-23.593154 c 0,-2.76 2.24,-5 4.9999996,-5 2.76,0 5,2.24 5,5 0,2.76 -2.24,5 -5,5 -2.7599996,0 -4.9999996,-2.24 -4.9999996,-5 z"
       copytype="single_stretched"
       prop_scale="1"
       scale_y_rel="false"
       spacing="0"
       normal_offset="0"
       tang_offset="0"
       prop_units="false"
       vertical_pattern="false"
       fuse_tolerance="0" />
    <inkscape:path-effect
       effect="skeletal"
       id="path-effect4298"
       is_visible="true"
       pattern="m -9.5310514,-14.062103 c 0,-2.76 2.2399997,-5 4.9999997,-5 2.76,0 4.99999959,2.24 4.99999959,5 0,2.76 -2.23999959,5.0000003 -4.99999959,5.0000003 -2.76,0 -4.9999997,-2.2400003 -4.9999997,-5.0000003 z"
       copytype="single_stretched"
       prop_scale="1"
       scale_y_rel="false"
       spacing="0"
       normal_offset="0"
       tang_offset="0"
       prop_units="false"
       vertical_pattern="false"
       fuse_tolerance="0" />
    <inkscape:path-effect
       effect="skeletal"
       id="path-effect4294"
       is_visible="true"
       pattern="m 16.593154,-22.78526 c 0,-2.76 2.24,-5 5,-5 2.76,0 5,2.24 5,5 0,2.76 -2.24,5 -5,5 -2.76,0 -5,-2.24 -5,-5 z"
       copytype="single_stretched"
       prop_scale="1"
       scale_y_rel="false"
       spacing="0"
       normal_offset="0"
       tang_offset="0"
       prop_units="false"
       vertical_pattern="false"
       fuse_tolerance="0" />
    <inkscape:path-effect
       effect="skeletal"
       id="path-effect4290"
       is_visible="true"
       pattern="m 0,-41 c 0,-2.76 2.24,-5 5,-5 2.76,0 5,2.24 5,5 0,2.76 -2.24,5 -5,5 -2.76,0 -5,-2.24 -5,-5 z"
       copytype="single_stretched"
       prop_scale="1"
       scale_y_rel="false"
       spacing="0"
       normal_offset="0"
       tang_offset="0"
       prop_units="false"
       vertical_pattern="false"
       fuse_tolerance="0" />
    <inkscape:path-effect
       effect="skeletal"
       id="path-effect4260"
       is_visible="true"
       pattern="M 0,5 C 0,2.24 2.24,0 5,0 7.76,0 10,2.24 10,5 10,7.76 7.76,10 5,10 2.24,10 0,7.76 0,5 Z"
       copytype="single_stretched"
       prop_scale="1"
       scale_y_rel="false"
       spacing="0"
       normal_offset="0"
       tang_offset="0"
       prop_units="false"
       vertical_pattern="false"
       fuse_tolerance="0" />
    <inkscape:path-effect
       effect="skeletal"
       id="path-effect4342-3"
       is_visible="true"
       pattern="m 37.62135,-6.75979 c 0,-2.76 2.24,-5 5,-5 2.76,0 5,2.24 5,5 0,2.76 -2.24,5 -5,5 -2.76,0 -5,-2.24 -5,-5 z"
       copytype="single_stretched"
       prop_scale="1"
       scale_y_rel="false"
       spacing="0"
       normal_offset="0"
       tang_offset="0"
       prop_units="false"
       vertical_pattern="false"
       fuse_tolerance="0" />
  </defs>
  <sodipodi:namedview
     id="base"
     pagecolor="#ffffff"
     bordercolor="#666666"
     borderopacity="1.0"
     inkscape:pageopacity="0.0"
     inkscape:pageshadow="2"
     inkscape:zoom="0.42663351"
     inkscape:cx="73.794552"
     inkscape:cy="-1.3272922"
     inkscape:document-units="px"
     inkscape:current-layer="layer1"
     showgrid="false"
     inkscape:window-width="1920"
     inkscape:window-height="955"
     inkscape:window-x="0"
     inkscape:window-y="1"
     inkscape:window-maximized="1"
     fit-margin-top="0"
     fit-margin-left="0"
     fit-margin-right="0"
     fit-margin-bottom="0" />
  <metadata
     id="metadata7">
    <rdf:RDF>
      <cc:Work
         rdf:about="">
        <dc:format>image/svg+xml</dc:format>
        <dc:type
           rdf:resource="http://purl.org/dc/dcmitype/StillImage" />
        <dc:title />
      </cc:Work>
    </rdf:RDF>
  </metadata>
  <g
     inkscape:groupmode="layer"
     id="layer2"
     inkscape:label="Capa 2">
    <path
       style="opacity:1;fill:none;fill-opacity:1;stroke:#000000;stroke-width:4.54738951;stroke-linejoin:round;stroke-miterlimit:4;stroke-dasharray:none;stroke-opacity:1"
       d="M 895.62294,462.43364 C 908.0745,756.29847 590.3221,1001.3132 310.46934,902.04122 24.454565,821.7787 -101.97236,441.55729 71.165165,202.60779 225.06768,-49.39153 626.26202,-64.27804 797.7572,176.39363 c 63.32459,80.93505 98.08733,183.34409 97.86574,286.04001 z"
       id="path4188"
       inkscape:connector-curvature="0" />
    <path
       style="opacity:1;fill:none;fill-opacity:1;stroke:#000000;stroke-width:0.14142136;stroke-linejoin:round;stroke-miterlimit:4;stroke-dasharray:none;stroke-opacity:1"
       d="m 724.24912,443.6315 c -6.41699,-2.26175 -20.23289,-7.6582 -30.70199,-11.99211 -10.46911,-4.33391 -22.43204,-9.05892 -26.58429,-10.50002 l -7.54955,-2.62019 3.40968,-4.33872 c 1.87532,-2.3863 9.862,-14.01084 17.74818,-25.8323 32.25677,-48.35323 37.04328,-54.01553 75.49778,-89.31174 7.58372,-6.96087 17.7221,-16.33916 22.52974,-20.84065 l 8.74116,-8.18453 1.63038,2.0447 c 4.46889,5.60451 6.66775,13.27573 9.27487,32.35737 1.775,12.99135 1.61931,35.69069 -0.32401,47.23848 -4.023,23.90592 -11.66985,40.10107 -29.71479,62.93251 -10.39961,13.15816 -29.26866,33.25931 -31.16194,33.19674 -0.62038,-0.0205 -6.37822,-1.88779 -12.79522,-4.14954 z"
       id="path4214"
       inkscape:connector-curvature="0"
       inkscape:export-xdpi="90"
       inkscape:export-ydpi="90" />
    <path
       style="opacity:1;fill:none;fill-opacity:1;stroke:#000000;stroke-width:0.14142136;stroke-linejoin:round;stroke-miterlimit:4;stroke-dasharray:none;stroke-opacity:1"
       d="m 724.60268,443.28659 c -5.83363,-2.06331 -20.94804,-7.89098 -33.58757,-12.95039 -12.63954,-5.05939 -24.65152,-9.74431 -26.69329,-10.41091 -2.04177,-0.66661 -3.71231,-1.53063 -3.71231,-1.92006 0,-0.38942 1.07635,-2.0344 2.39189,-3.65548 1.31553,-1.62109 9.72459,-13.82207 18.6868,-27.1133 25.76278,-38.20698 31.11843,-45.26541 45.71638,-60.25144 7.95438,-8.16584 50.54852,-48.2656 57.43107,-54.06782 2.80483,-2.36456 3.34815,-2.10465 6.07556,2.9065 4.09235,7.51901 7.3383,25.43611 8.03681,44.36185 1.35853,36.80925 -6.33896,61.87628 -27.56664,89.77128 -11.45787,15.05662 -32.1399,37.18126 -34.69758,37.11781 -0.81099,-0.0202 -6.24749,-1.72474 -12.08112,-3.78804 z"
       id="path4216"
       inkscape:connector-curvature="0"
       inkscape:export-xdpi="90"
       inkscape:export-ydpi="90" />
    <path
       style="opacity:1;fill:none;fill-opacity:1;stroke:none;stroke-width:0.40000001;stroke-linejoin:round;stroke-miterlimit:4;stroke-dasharray:none;stroke-opacity:1"
       d="m 584.49498,415.46376 c -1.79974,-9.41642 0.0518,-105.42225 2.33666,-121.15624 3.01566,-20.76692 19.96274,-98.4316 21.9235,-100.4705 0.77778,-0.80877 5.88242,1.47546 11.34364,5.07607 9.12996,6.01942 49.82162,23.39443 54.78894,23.39443 3.98209,0 2.16562,4.94563 -8.06291,21.95254 -5.6077,9.32389 -12.70314,21.92389 -15.76763,28 -5.32312,10.5544 -17.40265,42.61728 -19.23188,51.04746 -1.04359,4.80952 -9.65466,52.12368 -13.23658,72.72942 l -2.56044,14.7294 -15.36946,4.42684 -15.36946,4.42684 -0.79438,-4.15626 z"
       id="path4218"
       inkscape:connector-curvature="0"
       inkscape:export-xdpi="90"
       inkscape:export-ydpi="90" />
    <path
       style="opacity:1;fill:none;fill-opacity:1;stroke:none;stroke-width:0.40000001;stroke-linejoin:round;stroke-miterlimit:4;stroke-dasharray:none;stroke-opacity:1"
       d="m 584.89902,417.80752 c -2.88352,-55.76822 -0.432,-114.81023 6.12444,-147.5 l 5.01411,-25 c 0.66185,-3.3 1.68412,-8.7 2.2717,-12 2.44703,-13.74296 8.69743,-37.77841 10.22027,-39.30125 0.90186,-0.90186 6.10802,1.35791 11.56924,5.02172 5.46123,3.6638 15.7795,8.67712 22.9295,11.1407 7.15,2.46357 13.9,5.2261 15,6.13896 1.1,0.91285 2.45,1.67299 3,1.6892 0.55,0.0162 3.53359,0.99275 6.6302,2.17007 3.09661,1.17733 6.47161,2.1406 7.5,2.1406 4.23766,0 0.19556,8.96936 -16.17258,35.88674 -4.30995,7.08771 -10.03455,18.33771 -12.72133,25 -9.16766,22.73265 -13.33934,34.22074 -14.2233,39.16859 -1.14155,6.38961 -10.79133,61.10459 -12.1594,68.94467 -3.57614,20.49412 -2.65693,19.31176 -18.90622,24.31856 -8.22105,2.53312 -15.17237,4.6227 -15.44737,4.64354 -0.275,0.0208 -0.55817,-1.0871 -0.62926,-2.4621 z"
       id="path4226"
       inkscape:connector-curvature="0"
       inkscape:export-xdpi="90"
       inkscape:export-ydpi="90" />
    <path
       style="opacity:1;fill:none;fill-opacity:1;stroke:none;stroke-width:0.2;stroke-linejoin:round;stroke-miterlimit:4;stroke-dasharray:none;stroke-opacity:1"
       d="m 584.89902,417.80752 c -2.88352,-55.76822 -0.432,-114.81023 6.12444,-147.5 l 5.01411,-25 c 0.66185,-3.3 1.68412,-8.7 2.2717,-12 2.44703,-13.74296 8.69743,-37.77841 10.22027,-39.30125 0.90186,-0.90186 6.10802,1.35791 11.56924,5.02172 5.46123,3.6638 15.7795,8.67712 22.9295,11.1407 7.15,2.46357 13.9,5.2261 15,6.13896 1.1,0.91285 2.45,1.67299 3,1.6892 0.55,0.0162 3.53359,0.99275 6.6302,2.17007 3.09661,1.17733 6.47161,2.1406 7.5,2.1406 4.23766,0 0.19556,8.96936 -16.17258,35.88674 -4.30995,7.08771 -10.03455,18.33771 -12.72133,25 -9.16766,22.73265 -13.33934,34.22074 -14.2233,39.16859 -1.14155,6.38961 -10.79133,61.10459 -12.1594,68.94467 -3.57614,20.49412 -2.65693,19.31176 -18.90622,24.31856 -8.22105,2.53312 -15.17237,4.6227 -15.44737,4.64354 -0.275,0.0208 -0.55817,-1.0871 -0.62926,-2.4621 z"
       id="path4228"
       inkscape:connector-curvature="0"
       inkscape:export-xdpi="90"
       inkscape:export-ydpi="90" />
    <path
       style="opacity:1;fill:none;fill-opacity:1;stroke:none;stroke-width:0.2;stroke-linejoin:round;stroke-miterlimit:4;stroke-dasharray:none;stroke-opacity:1"
       d="m 584.89902,417.80752 c -2.88352,-55.76822 -0.432,-114.81023 6.12444,-147.5 l 5.01411,-25 c 0.66185,-3.3 1.68412,-8.7 2.2717,-12 2.44703,-13.74296 8.69743,-37.77841 10.22027,-39.30125 0.90186,-0.90186 6.10802,1.35791 11.56924,5.02172 5.46123,3.6638 15.7795,8.67712 22.9295,11.1407 7.15,2.46357 13.9,5.2261 15,6.13896 1.1,0.91285 2.45,1.67299 3,1.6892 0.55,0.0162 3.53359,0.99275 6.6302,2.17007 3.09661,1.17733 6.47161,2.1406 7.5,2.1406 4.23766,0 0.19556,8.96936 -16.17258,35.88674 -4.30995,7.08771 -10.03455,18.33771 -12.72133,25 -9.16766,22.73265 -13.33934,34.22074 -14.2233,39.16859 -1.14155,6.38961 -10.79133,61.10459 -12.1594,68.94467 -3.57614,20.49412 -2.65693,19.31176 -18.90622,24.31856 -8.22105,2.53312 -15.17237,4.6227 -15.44737,4.64354 -0.275,0.0208 -0.55817,-1.0871 -0.62926,-2.4621 z"
       id="path4230"
       inkscape:connector-curvature="0"
       inkscape:export-xdpi="90"
       inkscape:export-ydpi="90" />
    <path
       style="opacity:1;fill:none;fill-opacity:1;stroke:none;stroke-width:0.2;stroke-linejoin:round;stroke-miterlimit:4;stroke-dasharray:none;stroke-opacity:1"
       d="m 584.89902,417.80752 c -2.88352,-55.76822 -0.432,-114.81023 6.12444,-147.5 l 5.01411,-25 c 0.66185,-3.3 1.68412,-8.7 2.2717,-12 2.44703,-13.74296 8.69743,-37.77841 10.22027,-39.30125 0.90186,-0.90186 6.10802,1.35791 11.56924,5.02172 5.46123,3.6638 15.7795,8.67712 22.9295,11.1407 7.15,2.46357 13.9,5.2261 15,6.13896 1.1,0.91285 2.45,1.67299 3,1.6892 0.55,0.0162 3.53359,0.99275 6.6302,2.17007 3.09661,1.17733 6.47161,2.1406 7.5,2.1406 4.23766,0 0.19556,8.96936 -16.17258,35.88674 -4.30995,7.08771 -10.03455,18.33771 -12.72133,25 -9.16766,22.73265 -13.33934,34.22074 -14.2233,39.16859 -1.14155,6.38961 -10.79133,61.10459 -12.1594,68.94467 -3.57614,20.49412 -2.65693,19.31176 -18.90622,24.31856 -8.22105,2.53312 -15.17237,4.6227 -15.44737,4.64354 -0.275,0.0208 -0.55817,-1.0871 -0.62926,-2.4621 z"
       id="path4232"
       inkscape:connector-curvature="0"
       inkscape:export-xdpi="90"
       inkscape:export-ydpi="90" />
    <path
       inkscape:export-ydpi="90"
       inkscape:export-xdpi="90"
       inkscape:connector-curvature="0"
       id="path4212"
       d="m -375.05506,445.97543 c -6.41699,-2.26175 -20.23289,-7.6582 -30.70199,-11.99211 -10.46911,-4.33391 -22.43204,-9.05892 -26.58429,-10.50002 l -7.54955,-2.62019 3.40968,-4.33872 c 1.87532,-2.3863 9.862,-14.01084 17.74818,-25.8323 32.25677,-48.35323 37.04328,-54.01553 75.49778,-89.31174 7.58372,-6.96087 17.7221,-16.33916 22.52974,-20.84065 l 8.74116,-8.18453 1.63038,2.0447 c 4.46889,5.60451 6.66775,13.27573 9.27487,32.35737 1.775,12.99135 1.61931,35.69069 -0.32401,47.23848 -4.023,23.90592 -11.66985,40.10107 -29.71479,62.93251 -10.39961,13.15816 -29.26866,33.25931 -31.16194,33.19674 -0.62038,-0.0205 -6.37822,-1.88779 -12.79522,-4.14954 z"
       style="opacity:1;fill:none;fill-opacity:1;stroke:#000000;stroke-width:0.14142136;stroke-linejoin:round;stroke-miterlimit:4;stroke-dasharray:none;stroke-opacity:1" />
    <path
       inkscape:export-ydpi="90"
       inkscape:export-xdpi="90"
       inkscape:connector-curvature="0"
       id="path4215"
       d="m -374.7015,445.63052 c -5.83363,-2.06331 -20.94804,-7.89098 -33.58757,-12.95039 -12.63954,-5.05939 -24.65152,-9.74431 -26.69329,-10.41091 -2.04177,-0.66661 -3.71231,-1.53063 -3.71231,-1.92006 0,-0.38942 1.07635,-2.0344 2.39189,-3.65548 1.31553,-1.62109 9.72459,-13.82207 18.6868,-27.1133 25.76278,-38.20698 31.11843,-45.26541 45.71638,-60.25144 7.95438,-8.16584 50.54852,-48.2656 57.43107,-54.06782 2.80483,-2.36456 3.34815,-2.10465 6.07556,2.9065 4.09235,7.51901 7.3383,25.43611 8.03681,44.36185 1.35853,36.80925 -6.33896,61.87628 -27.56664,89.77128 -11.45787,15.05662 -32.1399,37.18126 -34.69758,37.11781 -0.81099,-0.0202 -6.24749,-1.72474 -12.08112,-3.78804 z"
       style="opacity:1;fill:none;fill-opacity:1;stroke:#000000;stroke-width:0.14142136;stroke-linejoin:round;stroke-miterlimit:4;stroke-dasharray:none;stroke-opacity:1" />
    <path
       inkscape:export-ydpi="90"
       inkscape:export-xdpi="90"
       inkscape:connector-curvature="0"
       id="path4217"
       d="m -514.8092,417.80769 c -1.79974,-9.41642 0.0518,-105.42225 2.33666,-121.15624 3.01566,-20.76692 19.96274,-98.4316 21.9235,-100.4705 0.77778,-0.80877 5.88242,1.47546 11.34364,5.07607 9.12996,6.01942 49.82162,23.39443 54.78894,23.39443 3.98209,0 2.16562,4.94563 -8.06291,21.95254 -5.6077,9.32389 -12.70314,21.92389 -15.76763,28 -5.32312,10.5544 -17.40265,42.61728 -19.23188,51.04746 -1.04359,4.80952 -9.65466,52.12368 -13.23658,72.72942 l -2.56044,14.7294 -15.36946,4.42684 -15.36946,4.42684 -0.79438,-4.15626 z"
       style="opacity:1;fill:none;fill-opacity:1;stroke:none;stroke-width:0.40000001;stroke-linejoin:round;stroke-miterlimit:4;stroke-dasharray:none;stroke-opacity:1" />
    <path
       inkscape:export-ydpi="90"
       inkscape:export-xdpi="90"
       inkscape:connector-curvature="0"
       id="path4219"
       d="m -514.40516,420.15145 c -2.88352,-55.76822 -0.432,-114.81023 6.12444,-147.5 l 5.01411,-25 c 0.66185,-3.3 1.68412,-8.7 2.2717,-12 2.44703,-13.74296 8.69743,-37.77841 10.22027,-39.30125 0.90186,-0.90186 6.10802,1.35791 11.56924,5.02172 5.46123,3.6638 15.7795,8.67712 22.9295,11.1407 7.15,2.46357 13.9,5.2261 15,6.13896 1.1,0.91285 2.45,1.67299 3,1.6892 0.55,0.0162 3.53359,0.99275 6.6302,2.17007 3.09661,1.17733 6.47161,2.1406 7.5,2.1406 4.23766,0 0.19556,8.96936 -16.17258,35.88674 -4.30995,7.08771 -10.03455,18.33771 -12.72133,25 -9.16766,22.73265 -13.33934,34.22074 -14.2233,39.16859 -1.14155,6.38961 -10.79133,61.10459 -12.1594,68.94467 -3.57614,20.49412 -2.65693,19.31176 -18.90622,24.31856 -8.22105,2.53312 -15.17237,4.6227 -15.44737,4.64354 -0.275,0.0208 -0.55817,-1.0871 -0.62926,-2.4621 z"
       style="opacity:1;fill:none;fill-opacity:1;stroke:none;stroke-width:0.40000001;stroke-linejoin:round;stroke-miterlimit:4;stroke-dasharray:none;stroke-opacity:1" />
    <path
       inkscape:export-ydpi="90"
       inkscape:export-xdpi="90"
       inkscape:connector-curvature="0"
       id="path4221"
       d="m -514.40516,420.15145 c -2.88352,-55.76822 -0.432,-114.81023 6.12444,-147.5 l 5.01411,-25 c 0.66185,-3.3 1.68412,-8.7 2.2717,-12 2.44703,-13.74296 8.69743,-37.77841 10.22027,-39.30125 0.90186,-0.90186 6.10802,1.35791 11.56924,5.02172 5.46123,3.6638 15.7795,8.67712 22.9295,11.1407 7.15,2.46357 13.9,5.2261 15,6.13896 1.1,0.91285 2.45,1.67299 3,1.6892 0.55,0.0162 3.53359,0.99275 6.6302,2.17007 3.09661,1.17733 6.47161,2.1406 7.5,2.1406 4.23766,0 0.19556,8.96936 -16.17258,35.88674 -4.30995,7.08771 -10.03455,18.33771 -12.72133,25 -9.16766,22.73265 -13.33934,34.22074 -14.2233,39.16859 -1.14155,6.38961 -10.79133,61.10459 -12.1594,68.94467 -3.57614,20.49412 -2.65693,19.31176 -18.90622,24.31856 -8.22105,2.53312 -15.17237,4.6227 -15.44737,4.64354 -0.275,0.0208 -0.55817,-1.0871 -0.62926,-2.4621 z"
       style="opacity:1;fill:none;fill-opacity:1;stroke:none;stroke-width:0.2;stroke-linejoin:round;stroke-miterlimit:4;stroke-dasharray:none;stroke-opacity:1" />
    <path
       inkscape:export-ydpi="90"
       inkscape:export-xdpi="90"
       inkscape:connector-curvature="0"
       id="path4223"
       d="m -514.40516,420.15145 c -2.88352,-55.76822 -0.432,-114.81023 6.12444,-147.5 l 5.01411,-25 c 0.66185,-3.3 1.68412,-8.7 2.2717,-12 2.44703,-13.74296 8.69743,-37.77841 10.22027,-39.30125 0.90186,-0.90186 6.10802,1.35791 11.56924,5.02172 5.46123,3.6638 15.7795,8.67712 22.9295,11.1407 7.15,2.46357 13.9,5.2261 15,6.13896 1.1,0.91285 2.45,1.67299 3,1.6892 0.55,0.0162 3.53359,0.99275 6.6302,2.17007 3.09661,1.17733 6.47161,2.1406 7.5,2.1406 4.23766,0 0.19556,8.96936 -16.17258,35.88674 -4.30995,7.08771 -10.03455,18.33771 -12.72133,25 -9.16766,22.73265 -13.33934,34.22074 -14.2233,39.16859 -1.14155,6.38961 -10.79133,61.10459 -12.1594,68.94467 -3.57614,20.49412 -2.65693,19.31176 -18.90622,24.31856 -8.22105,2.53312 -15.17237,4.6227 -15.44737,4.64354 -0.275,0.0208 -0.55817,-1.0871 -0.62926,-2.4621 z"
       style="opacity:1;fill:none;fill-opacity:1;stroke:none;stroke-width:0.2;stroke-linejoin:round;stroke-miterlimit:4;stroke-dasharray:none;stroke-opacity:1" />
    <path
       inkscape:export-ydpi="90"
       inkscape:export-xdpi="90"
       inkscape:connector-curvature="0"
       id="path4225"
       d="m -514.40516,420.15145 c -2.88352,-55.76822 -0.432,-114.81023 6.12444,-147.5 l 5.01411,-25 c 0.66185,-3.3 1.68412,-8.7 2.2717,-12 2.44703,-13.74296 8.69743,-37.77841 10.22027,-39.30125 0.90186,-0.90186 6.10802,1.35791 11.56924,5.02172 5.46123,3.6638 15.7795,8.67712 22.9295,11.1407 7.15,2.46357 13.9,5.2261 15,6.13896 1.1,0.91285 2.45,1.67299 3,1.6892 0.55,0.0162 3.53359,0.99275 6.6302,2.17007 3.09661,1.17733 6.47161,2.1406 7.5,2.1406 4.23766,0 0.19556,8.96936 -16.17258,35.88674 -4.30995,7.08771 -10.03455,18.33771 -12.72133,25 -9.16766,22.73265 -13.33934,34.22074 -14.2233,39.16859 -1.14155,6.38961 -10.79133,61.10459 -12.1594,68.94467 -3.57614,20.49412 -2.65693,19.31176 -18.90622,24.31856 -8.22105,2.53312 -15.17237,4.6227 -15.44737,4.64354 -0.275,0.0208 -0.55817,-1.0871 -0.62926,-2.4621 z"
       style="opacity:1;fill:none;fill-opacity:1;stroke:none;stroke-width:0.2;stroke-linejoin:round;stroke-miterlimit:4;stroke-dasharray:none;stroke-opacity:1" />
  </g>
  <g
     inkscape:label="Capa 1"
     inkscape:groupmode="layer"
     id="layer1"
     transform="translate(91.742689,10.64546)">
    <path
       style="fill:#000000;fill-opacity:1;fill-rule:evenodd;stroke:none;stroke-width:1px;stroke-linecap:butt;stroke-linejoin:miter;stroke-opacity:1"
       inkscape:path-effect="#path-effect4290"
       inkscape:original-d="m 274.28571,429.21935 c 56.41299,11.41778 116.18069,32.12872 173.13636,12.49506 32.78063,-15.36428 65.86617,-44.21088 104.55633,-33.25521 33.13857,6.87067 62.37161,25.10488 94.72267,34.42802 40.26574,-34.3165 72.89142,-84.8484 66.55655,-139.80639 0.38087,-30.38842 -17.67126,-61.38293 -47.70104,-70.41161 -51.25788,-24.55711 -113.81489,-26.22507 -156.39725,-67.60434 -46.58585,-33.04633 -115.9948,-41.93181 -162.19767,-3.36044 -52.51628,39.90413 -70.20301,108.52758 -74.77105,171.29324 -5.36261,53.97085 -0.0778,109.12226 -11.70142,162.33696 -15.3803,42.37785 -55.08683,68.10345 -81.39175,102.84855"
       id="path4288"
       d="m 274.28571,429.21935 c 0.0866,-0.42779 8.00685,0.72623 22.76577,3.6714 9.19953,1.83578 41.8323,9.01171 63.93366,11.8724 12.84977,1.66322 27.77123,2.87576 43.16322,2.03688 13.39647,-0.71405 27.84392,-3.05037 42.05818,-8.08418 4.71275,-2.25361 42.37137,-23.41293 49.77926,-26.81998 8.37701,-3.85867 17.56155,-7.19666 27.35906,-8.78987 9.57847,-1.5604 19.74403,-1.21991 29.5766,1.50264 16.57304,3.37084 32.19111,9.45678 48.35885,16.27223 14.28243,6.37933 29.40146,13.55291 44.60129,18.21019 18.70671,-16.48049 35.79931,-36.71416 47.43929,-60.52047 5.86946,-11.35284 10.52046,-23.55626 13.22076,-36.28597 2.65977,-12.64175 3.4257,-25.86901 1.89413,-38.95711 0.14597,-14.16083 -3.89149,-28.63616 -11.74298,-40.79202 -7.72822,-11.69681 -19.40156,-21.25901 -32.92113,-25.25644 -12.5916,-6.01949 -25.95902,-10.66198 -39.76435,-14.95018 -12.9351,-4.00113 -28.06001,-8.16554 -41.41076,-12.38681 -3.1311,-0.98804 -6.26732,-2.0107 -9.39907,-3.07933 -10.60971,-3.62032 -21.04102,-7.72539 -31.08774,-12.76793 -13.2317,-6.60803 -25.56486,-14.95237 -36.12236,-25.21807 -23.31846,-16.54697 -50.92483,-26.06901 -78.32802,-27.47853 -14.0363,-0.75502 -27.98932,0.6581 -41.04777,4.51493 -13.57394,4.01493 -26.15742,10.6912 -36.719,19.47038 -12.66036,9.56301 -23.50495,21.14035 -32.37938,33.71588 -9.11418,12.92657 -16.23315,27.0025 -21.79732,41.26648 -11.98956,30.72197 -17.19896,63.15149 -19.54139,92.97464 -2.81588,26.85644 -3.10279,57.40126 -3.97167,81.21291 -1.13149,30.91513 -3.29631,56.66781 -8.97803,81.57263 -4.216,11.27705 -10.08408,21.24442 -16.19852,29.71456 -6.98444,9.64271 -14.83488,18.20088 -21.62901,25.20018 -33.05773,34.08973 -8.98349,7.52379 -34.60865,34.65713 -7.66479,8.1159 -11.35382,12.74069 -11.69119,12.48527 -0.25118,-0.19016 2.87121,-5.25837 10.08437,-13.91101 12.01757,-14.41583 13.8581,-14.91884 33.20101,-36.07057 6.50995,-7.12582 14.02585,-15.75907 20.55548,-25.24851 5.68662,-8.23715 11.08797,-17.80062 14.81525,-28.40982 5.09369,-24.42868 6.73504,-49.56503 7.41917,-80.19727 0.53359,-23.7396 0.452,-54.21624 3.03399,-81.69116 2.03438,-30.31562 7.10886,-63.52236 19.26848,-95.46475 5.6605,-14.8627 13.01797,-29.62434 22.54311,-43.33521 9.23762,-13.30839 20.61728,-25.59444 34.01244,-35.82953 11.48691,-9.62749 25.11097,-16.9323 39.84916,-21.31835 14.20466,-4.23287 29.24475,-5.83203 44.29448,-5.04917 29.49405,1.59886 59.06473,11.8014 84.15689,29.59519 9.89316,9.60716 21.60514,17.51213 34.26437,23.91536 9.49584,4.7784 19.50721,8.70128 29.8331,12.22449 3.04787,1.03994 6.1125,2.04146 9.18397,3.01578 13.03445,4.12641 28.25288,8.32956 41.34644,12.39241 13.78157,4.25856 27.36152,9.00717 40.38234,15.25832 15.80527,4.81931 29.01381,15.69031 37.5879,29.13538 8.89424,13.6698 13.38051,29.76769 13.15007,45.63938 1.59144,14.00553 0.70501,28.06218 -2.235,41.45167 -2.97803,13.6666 -7.97785,26.63301 -14.2562,38.59276 -13.9738,25.3481 -33.29801,46.64163 -54.06771,63.8048 -17.4071,-4.73918 -34.15472,-11.83634 -49.53082,-18.05721 -16.11729,-6.90076 -31.21195,-12.98718 -46.9544,-16.31641 -8.69541,-2.52391 -17.84731,-2.9397 -26.52251,-1.67015 -8.8666,1.30038 -17.46587,4.33871 -25.5303,7.89817 -6.42527,2.84105 -45.25959,23.83767 -50.34492,26.17519 -15.13096,5.082 -30.29008,7.2932 -44.23713,7.78826 -15.91258,0.54531 -31.09186,-1.02065 -44.08486,-3.04204 -24.00103,-3.73403 -53.16993,-11.42608 -63.8152,-14.14307 -14.55285,-3.71432 -22.29823,-5.68408 -22.2147,-6.09677 z"
       inkscape:connector-curvature="0" />
    <path
       style="fill:#000000;fill-opacity:1;fill-rule:evenodd;stroke:none;stroke-width:1px;stroke-linecap:butt;stroke-linejoin:miter;stroke-opacity:1"
       inkscape:path-effect="#path-effect4294"
       inkscape:original-d="m 515.26428,175.4288 c -11.08215,35.44111 -22.19208,71.09133 -28.21814,107.80637 -4.33306,35.66723 -2.55955,71.72719 -1.22116,107.53064 0.53781,11.31698 1.17347,22.62995 1.9746,33.9315"
       id="path4292"
       d="m 515.26428,175.4288 c 1.28998,0.40337 -1.40573,12.3359 -6.2978,31.74912 -4.49329,17.83079 -12.40597,47.77817 -17.00629,76.75869 10e-6,0 0,1e-5 0,1e-5 -0.56735,4.82797 -1.03884,9.73301 -1.42476,14.7372 -2.36192,30.62635 -1.21226,74.03293 -1.30545,91.94744 0.10631,21.0396 -0.10859,33.98235 -1.4304,34.07605 -1.30406,0.0924 -3.48303,-12.70324 -5.3796,-33.78695 -1.65542,-20.66355 -4.47501,-58.56973 -1.8153,-93.1739 0.39598,-5.15199 0.90241,-10.21593 1.52741,-15.20274 0,0 0,-1e-5 0,-1e-5 5.17282,-30.53816 14.11203,-59.03731 20.44002,-77.22907 6.61494,-19.01666 11.54238,-30.23537 12.69217,-29.87584 z"
       inkscape:connector-curvature="0" />
    <path
       style="fill:#000000;fill-opacity:1;fill-rule:evenodd;stroke:none;stroke-width:1px;stroke-linecap:butt;stroke-linejoin:miter;stroke-opacity:1"
       inkscape:path-effect="#path-effect4298"
       inkscape:original-d="m 593.32609,210.44295 c -16.09781,29.5862 -32.35697,59.34679 -43.64755,91.17132 -7.63404,25.28967 -11.48518,51.5239 -16.32138,77.44556 -1.69224,8.73752 -2.75752,17.71403 -4.99812,26.27118 l -0.0401,-0.48747"
       id="path4296"
       d="m 593.32609,210.44295 c 1.25936,0.68522 -3.21165,11.09763 -10.93298,27.6542 -7.15306,15.33804 -19.24641,40.34231 -27.96661,65.07499 -0.24633,0.81723 -0.48984,1.638 -0.73068,2.46246 -5.73972,19.64877 -14.70755,64.47054 -17.023,74.05561 -3.03783,7.91624 -9.60666,30.02841 -8.32092,25.72263 0,0 0,0 0,0 -0.34158,-0.37741 -0.19905,-0.55564 -0.033,-0.5693 0.16687,-0.0137 0.33498,0.13819 0.0472,0.40564 0,0 0,0 0,0 1.34112,-5.81402 1.34176,-8.28772 1.67532,-26.81972 2.10974,-15.93471 6.29758,-48.88325 14.1298,-75.81247 0.24924,-0.85692 0.50228,-1.71043 0.75928,-2.56059 9.37001,-26.25362 22.23801,-49.9299 31.26161,-65.17733 9.37205,-15.83621 16.00891,-25.04823 17.1339,-24.43612 z"
       inkscape:connector-curvature="0" />
    <path
       style="fill:#000000;fill-opacity:1;fill-rule:evenodd;stroke:none;stroke-width:1px;stroke-linecap:butt;stroke-linejoin:miter;stroke-opacity:1"
       inkscape:path-effect="#path-effect4302"
       inkscape:original-d="m 697.23486,255.6283 c -25.45314,20.33853 -50.97146,40.87608 -73.36229,64.62825 -17.53841,20.06834 -31.16357,43.14865 -45.01411,65.81532 -4.42535,7.42657 -8.78169,14.89486 -13.02346,22.42793"
       id="path4300"
       d="m 697.23486,255.6283 c 0.88109,1.10266 -6.95431,8.72335 -20.00605,20.60391 -12.06936,10.98633 -32.25002,28.82436 -49.65742,47.38183 0,0 -10e-6,0 -10e-6,0 -0.84307,0.96573 -1.6818,1.94289 -2.51688,2.93177 -16.09911,19.06398 -35.24209,49.50039 -43.3426,61.24794 -8.98009,13.34359 -14.75401,21.33833 -15.8769,20.70605 -1.10696,-0.62331 2.64046,-9.78443 10.17002,-24.14981 7.83447,-14.57297 22.98794,-42.33801 41.52893,-64.37372 0.87334,-1.03795 1.75313,-2.06368 2.63981,-3.07721 0,0 10e-6,-1e-5 10e-6,-1e-5 18.58471,-19.62011 38.8174,-35.79145 52.62073,-46.00667 14.28445,-10.57129 23.64082,-16.26468 24.44036,-15.26408 z"
       inkscape:connector-curvature="0" />
    <path
       style="fill:#000000;fill-opacity:1;fill-rule:evenodd;stroke:none;stroke-width:1px;stroke-linecap:butt;stroke-linejoin:miter;stroke-opacity:1"
       inkscape:path-effect="#path-effect4306"
       inkscape:original-d="m 443.03861,459.44924 c 0.45768,47.42829 2.77725,97.89757 -20.38056,141.03399 -20.07475,34.76216 -60.72047,51.77181 -99.27812,54.94278 -39.35704,4.2618 -78.37348,-10.54413 -110.0082,-33.20322 -12.34425,-8.21693 -24.23341,-17.08718 -36.23005,-25.79634"
       id="path4304"
       d="m 443.03861,459.44924 c 0.7175,-0.007 1.56098,6.9628 2.31916,19.4855 0.67257,11.10858 1.6199,32.06118 0.087,52.99372 0,0 0,2e-5 0,2e-5 -1.49808,20.57803 -5.90453,46.56224 -18.64799,70.86002 -9.79378,17.15692 -25.37822,31.5959 -44.56225,41.45542 -2.75311,1.41731 -5.56404,2.74512 -8.42847,3.98294 -16.3876,7.08163 -33.52482,10.79009 -49.96544,12.03649 -21.65187,2.20011 -42.24549,-1.35427 -59.67687,-7.25813 -21.90701,-7.39525 -39.67451,-18.4502 -52.53273,-28.26215 0,0 -1e-5,-10e-6 -1e-5,-10e-6 -22.82259,-16.20984 -34.85654,-27.81086 -34.48938,-28.31661 0.99028,-1.36409 14.35865,8.58169 37.9707,23.27605 0,0 1e-5,10e-6 1e-5,10e-6 13.04987,8.74626 30.66812,18.69869 51.68373,25.13174 16.69662,5.09094 36.14421,8.06216 56.12307,5.75442 15.53773,-1.38343 31.64916,-4.94552 46.9058,-11.53181 2.66846,-1.15197 5.28329,-2.38471 7.84059,-3.69815 17.60602,-9.05887 31.94278,-21.94785 40.85369,-37.18075 12.25027,-22.2602 17.12941,-47.09425 19.44419,-66.95506 0,0 0,-2e-5 0,-2e-5 2.22297,-19.15891 2.78751,-42.28967 3.19927,-52.24774 0.51783,-12.52339 1.09779,-19.51839 1.87588,-19.5259 z"
       inkscape:connector-curvature="0" />
    <path
       style="fill:#000000;fill-opacity:1;fill-rule:evenodd;stroke:none;stroke-width:1px;stroke-linecap:butt;stroke-linejoin:miter;stroke-opacity:1"
       inkscape:path-effect="#path-effect4312"
       inkscape:original-d="m 279.12365,484.58386 c 21.32345,-6.21994 44.3421,-12.94614 66.38589,-6.17686 17.91556,10.52076 22.76491,32.90445 23.62905,52.15459 0.9149,29.26532 -9.23294,60.36842 -32.24447,79.48504 -19.81021,13.58229 -45.09675,12.35335 -67.93889,10.45467 -29.5091,-3.27653 -58.3872,-10.81368 -86.50368,-20.18324"
       id="path4310"
       d="m 279.12365,484.58386 c -0.0248,-0.0851 11.00438,-6.85059 32.51343,-10.796 9.4826,-1.69858 22.26291,-2.59104 35.40995,1.12445 4.74089,2.65016 9.15953,6.30238 12.87418,10.84657 3.26824,4.12091 5.88856,8.81668 7.89321,13.88693 3.76103,9.54729 5.50765,19.8793 6.05716,30.73557 0.59478,14.69136 -1.48125,30.3767 -7.23046,45.5119 -1.96406,5.14131 -4.38108,10.2023 -7.26427,15.06389 -5.25302,8.85757 -11.82565,16.67133 -19.50607,23.02866 -11.00555,7.40108 -23.62938,10.73712 -35.34567,11.77668 -12.64759,1.10533 -25.20493,0.0606 -35.98072,-1.02833 -26.3327,-3.36931 -49.07861,-9.94352 -63.38457,-14.77233 -14.86909,-5.01888 -22.96502,-8.87333 -22.70827,-9.64379 0.31003,-0.93035 8.94181,1.31645 24.05148,4.89096 14.29824,3.38255 37.46535,8.68023 62.86304,11.0594 10.66199,0.69342 22.75727,1.40905 34.23213,0.12773 10.47615,-1.1565 21.44759,-4.06181 30.31926,-10.28872 6.63929,-5.53863 12.34835,-12.44923 16.96706,-20.33408 2.53492,-4.32752 4.68239,-8.84851 6.4519,-13.44689 5.29675,-13.68035 7.35712,-28.04317 7.06918,-41.58466 -0.39609,-10.2096 -1.67848,-19.54248 -4.78333,-27.96606 -1.63149,-4.44694 -3.68786,-8.48846 -6.2671,-11.95952 -2.62097,-3.68153 -5.84929,-6.70545 -9.38312,-8.91453 -10.92956,-3.67668 -22.60434,-3.39782 -31.5162,-2.4406 -20.99127,2.17814 -32.75714,7.09423 -33.3322,5.12277 z"
       inkscape:connector-curvature="0" />
    <path
       style="fill:#000000;fill-opacity:1;fill-rule:evenodd;stroke:none;stroke-width:1px;stroke-linecap:butt;stroke-linejoin:miter;stroke-opacity:1"
       inkscape:path-effect="#path-effect4320"
       inkscape:original-d="m 181.74444,596.67725 c -37.08372,28.76979 -72.52524,60.49628 -100.429328,98.46652 -13.149482,18.13536 -24.614173,38.85607 -25.775756,61.68376 -0.0048,1.50452 0.36931,3.19249 1.646952,4.15682"
       id="path4318"
       d="m 181.74444,596.67725 c 0.89642,1.15546 -7.93798,9.27377 -22.11947,22.35124 -13.97741,12.88928 -33.85668,31.28856 -52.98183,52.80351 -7.920709,8.91044 -15.028152,17.57195 -21.503143,26.10383 -9.869586,13.29031 -16.551465,24.44146 -21.151465,35.32418 -4.447511,10.52197 -5.941673,18.51975 -6.989098,23.60697 -0.170124,1.37123 -0.164126,2.11589 7.97e-4,2.86653 0.140836,0.641 0.348416,1.03576 0.186077,1.25084 0.0459,-0.0608 -2.7493,0.27138 -3.10703,-4.19627 -0.503496,-5.2017 -0.170669,-14.19917 3.398365,-25.79092 3.671417,-11.92428 10.138924,-24.7095 20.012584,-38.64545 6.374283,-8.95204 13.575359,-18.01232 21.677505,-27.13099 19.728048,-22.20319 40.513788,-39.88235 55.902958,-51.6147 15.50157,-11.81804 25.88194,-17.9494 26.67375,-16.92877 z"
       inkscape:connector-curvature="0" />
    <path
       style="opacity:1;fill:#000000;fill-opacity:1;stroke:#000000;stroke-width:0.1;stroke-miterlimit:4;stroke-dasharray:none;stroke-opacity:1"
       d="m 449.32101,255.83864 c 1.99733,31.29551 -30.6265,59.67951 -61.36183,52.12707 -22.58579,-5.10528 -38.32447,-27.09548 -39.35041,-49.67838 -1.63839,-20.86065 10.03735,-42.61122 29.68209,-50.79986 18.20753,-8.39955 41.51241,-5.14109 55.53228,9.6318 10.05303,10.16055 15.45045,24.50623 15.49787,38.71937 z"
       id="path4322"
       inkscape:connector-curvature="0" />
    <path
       style="opacity:1;fill:#ffffff;fill-opacity:1;stroke:#000000;stroke-width:0.1;stroke-miterlimit:4;stroke-dasharray:none;stroke-opacity:1"
       d="m 423.45099,235.41495 c 0.27936,6.77727 -5.56412,12.84093 -12.16588,13.58132 -5.26209,0.62487 -10.79617,-2.14285 -13.25735,-6.87684 -2.50612,-4.43434 -2.46952,-10.32535 0.5896,-14.49063 2.26653,-3.37511 6.1559,-5.51996 10.20577,-5.74063 4.71482,-0.37171 9.68346,1.74314 12.23963,5.81452 1.52396,2.26311 2.41178,4.97504 2.38823,7.71226 z"
       id="path4326"
       inkscape:connector-curvature="0" />
    <path
       style="fill:#000000;fill-opacity:1;fill-rule:evenodd;stroke:none;stroke-width:1px;stroke-linecap:butt;stroke-linejoin:miter;stroke-opacity:1"
       inkscape:path-effect="#path-effect4330"
       inkscape:original-d="m 444.2917,436.40088 c -16.08777,-11.86016 -26.37985,-29.9045 -32.74009,-48.53378 -2.89015,-9.25483 -2.67701,-19.11692 -2.64399,-28.71235 -0.61562,-1.61285 1.4626,-6.48492 -0.65953,-6.12239 -0.13827,0.0371 -0.27655,0.0743 -0.41482,0.11141"
       id="path4328"
       d="m 444.2917,436.40088 c -0.76027,1.03127 -6.10021,-0.88736 -12.94451,-6.90297 -7.04326,-6.19046 -14.46489,-15.72226 -20.19173,-28.77772 -1.68839,-3.84899 -3.07921,-7.66333 -4.21444,-11.34642 -3.27591,-11.74738 -1.52299,-24.26123 -0.59128,-29.75199 -0.29148,-1.31637 -0.0831,-2.06926 0.17186,-2.41227 0.24624,-0.85189 0.56267,-1.58755 0.78245,-2.09399 0.15323,-0.49067 0.58052,-1.14508 0.59399,-1.17483 0.0341,-0.0262 0.2126,-0.003 0.36443,0.0518 0.31445,-0.0309 0.23604,-0.17483 0.12939,-0.30393 0,0 0,0 0,0 -0.30008,-0.14594 -0.49941,-0.32434 -0.55859,-0.54483 -0.0591,-0.22012 0.0239,-0.47511 0.27105,-0.76765 0,0 0,0 0,0 0.20009,-0.1747 0.61865,-0.37179 1.35414,-0.11826 0.43801,0.25228 0.82241,0.62495 0.96319,1.01992 0.36749,0.76006 0.51402,1.58894 0.55989,2.31227 0.0433,0.40883 0.13612,1.75419 0.18342,2.13389 0.14593,0.71182 0.17222,1.15598 0.30054,0.96378 0.64084,3.84816 1.84162,19.57091 4.6967,27.67271 1.27145,3.36654 2.67817,6.86894 4.23814,10.41253 5.40347,12.27438 10.78835,20.84858 16.09228,27.95958 4.92045,6.59688 8.6653,10.49335 7.79908,11.66834 z"
       inkscape:connector-curvature="0" />
    <path
       style="fill:#000000;fill-opacity:1;fill-rule:evenodd;stroke:none;stroke-width:1px;stroke-linecap:butt;stroke-linejoin:miter;stroke-opacity:1"
       inkscape:path-effect="#path-effect4334"
       inkscape:original-d="m 182.45155,598.79857 c -41.4775,-7.01821 -87.064209,-8.74294 -124.905355,12.52318 -20.125562,11.61226 -33.831853,33.6693 -33.613484,57.11532 -1.111036,32.61741 12.984498,63.87909 31.322768,90.11624 l 0.955125,1.2236 0.975704,1.20744"
       id="path4332"
       d="m 182.45155,598.79857 c -0.52439,3.09915 -25.33831,-3.60764 -63.55646,-0.24239 -17.94672,1.58937 -39.482783,5.97449 -58.898626,17.06834 -5.421419,3.16108 -10.476194,7.22417 -14.892845,12.04648 -2.943256,3.21358 -5.529406,6.68426 -7.719897,10.32478 -5.758105,9.62261 -8.71209,20.32385 -8.725812,30.49973 -0.816538,17.07446 2.820681,33.17089 7.189859,46.06497 6.636205,19.55754 18.616101,40.04491 20.227985,43.38667 0.284318,0.52238 0.519199,0.98331 0.702066,1.37925 0.455153,0.93947 0.599815,1.50334 0.408488,1.65795 -0.191344,0.15462 -0.712304,-0.10529 -1.54292,-0.75693 -0.347307,-0.28325 -0.750273,-0.63948 -1.208184,-1.06795 -4.017212,-4.13892 -16.591408,-19.66623 -25.681762,-41.94437 -5.410611,-13.23948 -9.946987,-30.14872 -9.54593,-48.83647 -0.219693,-11.92841 2.979967,-24.35349 9.629723,-35.49091 2.519006,-4.2391 5.502139,-8.26607 8.912765,-11.98548 5.118615,-5.58202 11.001216,-10.2554 17.345926,-13.88326 21.433687,-11.86234 44.392449,-15.92555 63.279464,-16.66809 19.30585,-0.76652 36.38773,1.55482 47.01234,3.54686 11.10667,2.08243 17.19448,4.12861 17.06382,4.90082 z"
       inkscape:connector-curvature="0" />
    <path
       style="fill:#000000;fill-opacity:1;fill-rule:evenodd;stroke:none;stroke-width:1px;stroke-linecap:butt;stroke-linejoin:miter;stroke-opacity:1"
       inkscape:path-effect="#path-effect4338"
       inkscape:original-d="m 431.62047,131.93496 c 2.72316,-23.6007 5.44631,-47.201397 8.16947,-70.802095"
       id="path4336"
       d="m 431.62047,131.93496 c -2.74181,-0.31636 -3.13708,-16.43279 -0.88231,-35.974169 2.25477,-19.541378 6.30997,-35.144289 9.05178,-34.827926 2.74181,0.316363 3.13708,16.43279 0.88231,35.974169 -2.25477,19.541376 -6.30997,35.144286 -9.05178,34.827926 z"
       inkscape:connector-curvature="0" />
    <path
       style="fill:#000000;fill-opacity:1;fill-rule:evenodd;stroke:none;stroke-width:1px;stroke-linecap:butt;stroke-linejoin:miter;stroke-opacity:1"
       inkscape:path-effect="#path-effect4346"
       inkscape:original-d="M 431.44319,130.08406 C 443.36173,109.53273 455.28026,88.981407 467.1988,68.430081"
       id="path4344"
       d="m 431.44319,130.08406 c -2.38755,-1.38463 3.68399,-16.31889 13.55254,-33.335386 9.86854,-17.016498 19.81552,-29.703228 22.20307,-28.318593 2.38755,1.384635 -3.68399,16.318888 -13.55254,33.335389 -9.86854,17.01649 -19.81552,29.70322 -22.20307,28.31859 z"
       inkscape:connector-curvature="0" />
    <path
       style="fill:#000001;fill-opacity:1;fill-rule:evenodd;stroke:none;stroke-width:0.2;stroke-linecap:butt;stroke-linejoin:miter;stroke-miterlimit:4;stroke-dasharray:none;stroke-opacity:1"
       inkscape:path-effect="#path-effect4342-3"
       inkscape:original-d="m 362.22373,648.17421 c 32.40149,16.82404 64.80299,33.64807 97.20448,50.47211 -36.01603,32.04713 -72.03205,64.09425 -108.04808,96.14138 3.61453,-48.87116 7.22907,-97.74233 10.8436,-146.61349 z"
       id="path4340"
       d="m 362.22373,648.17421 c 1.0527,-2.02739 41.08561,17.99105 99.71208,50.15927 -21.14053,18.75628 -44.39024,39.24897 -70.01549,61.77294 -14.14667,12.43458 -28.38572,24.93315 -41.3415,36.30378 0,0 0,-2e-5 0,-2e-5 4.05137,-86.10878 8.71542,-148.45264 11.64491,-148.23597 2.94372,0.21772 -1.6071,62.07883 -10.04229,144.99098 0,0 0,10e-6 0,10e-6 12.15668,-10.97423 25.50062,-23.01957 38.70112,-34.91829 23.95489,-21.59255 45.73606,-41.16838 66.03805,-59.28775 -56.73169,-27.74262 -95.75476,-48.74757 -94.69688,-50.78495 z"
       inkscape:connector-curvature="0" />
    <path
       style="opacity:1;fill:none;fill-opacity:1;stroke:none;stroke-width:0.40000001;stroke-linejoin:round;stroke-miterlimit:4;stroke-dasharray:none;stroke-opacity:1"
       d="m 624.54888,409.93548 c 1.59369,-2.51252 6.49612,-27.1824 11.47153,-49.81463 4.97542,-22.63223 12.05435,-48.73223 15.73096,-58 5.45732,-13.75647 32.81562,-75.4955 34.28461,-77.36952 0.70862,-0.904 51.52347,15.72495 63.93228,20.92158 14.28803,5.98362 37.18052,18.06256 36.28291,20.4347 -0.35431,0.93635 -13.62973,8.71802 -25.17973,17.29262 -42.05748,31.223 -68.9116,62.88768 -93.24223,109.94534 l -11.17198,23.82218 -15.85262,-5.29398 -17.26684,-0.34422 z"
       id="path4202"
       inkscape:connector-curvature="0"
       transform="translate(-91.742689,-10.64546)"
       sodipodi:nodetypes="sssssssscccs"
       inkscape:export-xdpi="90"
       inkscape:export-ydpi="90" />
    <text
       xml:space="preserve"
       style="font-style:normal;font-variant:normal;font-weight:normal;font-stretch:normal;font-size:90px;line-height:150%;font-family:Neurotica;-inkscape-font-specification:Neurotica;text-align:start;letter-spacing:0px;word-spacing:0px;text-anchor:start;fill:#000000;fill-opacity:1;stroke:none;stroke-width:1px;stroke-linecap:butt;stroke-linejoin:miter;stroke-opacity:1"
       id="text4193"
       sodipodi:linespacing="150%"
       transform="translate(2.8228648,-15.525756)"><textPath
         xlink:href="#path4205"
         id="textPath4207"><tspan
   id="tspan4195"
   style="font-size:90px">MUMAKER</tspan></textPath></text>
    <path
       style="fill:none;fill-rule:evenodd;stroke:#000000;stroke-width:1px;stroke-linecap:butt;stroke-linejoin:miter;stroke-opacity:1"
       d="M 396.37862,914.22181 C 634.95307,868.47349 703.10141,743.76855 760.76248,650.28395"
       id="path4205"
       inkscape:connector-curvature="0"
       sodipodi:nodetypes="cc" />
    <path
       inkscape:connector-curvature="0"
       d="m -825.01847,431.56328 c 0.0866,-0.42779 8.00685,0.72623 22.76577,3.6714 9.19953,1.83578 41.8323,9.01171 63.93366,11.8724 12.84977,1.66322 27.77123,2.87576 43.16322,2.03688 13.39647,-0.71405 27.84392,-3.05037 42.05818,-8.08418 4.71275,-2.25361 42.37137,-23.41293 49.77926,-26.81998 8.37701,-3.85867 17.56155,-7.19666 27.35906,-8.78987 9.57847,-1.5604 19.74403,-1.21991 29.5766,1.50264 16.57304,3.37084 32.19111,9.45678 48.35885,16.27223 14.28243,6.37933 29.40146,13.55291 44.60129,18.21019 18.70671,-16.48049 35.79931,-36.71416 47.43929,-60.52047 5.86946,-11.35284 10.52046,-23.55626 13.22076,-36.28597 2.65977,-12.64175 3.4257,-25.86901 1.89413,-38.95711 0.14597,-14.16083 -3.89149,-28.63616 -11.74298,-40.79202 -7.72822,-11.69681 -19.40156,-21.25901 -32.92113,-25.25644 -12.5916,-6.01949 -25.95902,-10.66198 -39.76435,-14.95018 -12.9351,-4.00113 -28.06001,-8.16554 -41.41076,-12.38681 -3.1311,-0.98804 -6.26732,-2.0107 -9.39907,-3.07933 -10.60971,-3.62032 -21.04102,-7.72539 -31.08774,-12.76793 -13.2317,-6.60803 -25.56486,-14.95237 -36.12236,-25.21807 -23.31846,-16.54697 -50.92483,-26.06901 -78.32802,-27.47853 -14.0363,-0.75502 -27.98932,0.6581 -41.04777,4.51493 -13.57394,4.01493 -26.15742,10.6912 -36.719,19.47038 -12.66036,9.56301 -23.50495,21.14035 -32.37938,33.71588 -9.11418,12.92657 -16.23315,27.0025 -21.79732,41.26648 -11.98956,30.72197 -17.19896,63.15149 -19.54139,92.97464 -2.81588,26.85644 -3.10279,57.40126 -3.97167,81.21291 -1.13149,30.91513 -3.29631,56.66781 -8.97803,81.57263 -4.216,11.27705 -10.08408,21.24442 -16.19852,29.71456 -6.98444,9.64271 -14.83488,18.20088 -21.62901,25.20018 -33.05773,34.08973 -8.98349,7.52379 -34.60865,34.65713 -7.66479,8.1159 -11.35382,12.74069 -11.69119,12.48527 -0.25118,-0.19016 2.87121,-5.25837 10.08437,-13.91101 12.01757,-14.41583 13.8581,-14.91884 33.20101,-36.07057 6.50995,-7.12582 14.02585,-15.75907 20.55548,-25.24851 5.68662,-8.23715 11.08797,-17.80062 14.81525,-28.40982 5.09369,-24.42868 6.73504,-49.56503 7.41917,-80.19727 0.53359,-23.7396 0.452,-54.21624 3.03399,-81.69116 2.03438,-30.31562 7.10886,-63.52236 19.26848,-95.46475 5.6605,-14.8627 13.01797,-29.62434 22.54311,-43.33521 9.23762,-13.30839 20.61728,-25.59444 34.01244,-35.82953 11.48691,-9.62749 25.11097,-16.9323 39.84916,-21.31835 14.20466,-4.23287 29.24475,-5.83203 44.29448,-5.04917 29.49405,1.59886 59.06473,11.8014 84.15689,29.59519 9.89316,9.60716 21.60514,17.51213 34.26437,23.91536 9.49584,4.7784 19.50721,8.70128 29.8331,12.22449 3.04787,1.03994 6.1125,2.04146 9.18397,3.01578 13.03445,4.12641 28.25288,8.32956 41.34644,12.39241 13.78157,4.25856 27.36152,9.00717 40.38234,15.25832 15.80527,4.81931 29.01381,15.69031 37.5879,29.13538 8.89424,13.6698 13.38051,29.76769 13.15007,45.63938 1.59144,14.00553 0.70501,28.06218 -2.235,41.45167 -2.97803,13.6666 -7.97785,26.63301 -14.2562,38.59276 -13.9738,25.3481 -33.29801,46.64163 -54.06771,63.8048 -17.4071,-4.73918 -34.15472,-11.83634 -49.53082,-18.05721 -16.11729,-6.90076 -31.21195,-12.98718 -46.9544,-16.31641 -8.69541,-2.52391 -17.84731,-2.9397 -26.52251,-1.67015 -8.8666,1.30038 -17.46587,4.33871 -25.5303,7.89817 -6.42527,2.84105 -45.25959,23.83767 -50.34492,26.17519 -15.13096,5.082 -30.29008,7.2932 -44.23713,7.78826 -15.91258,0.54531 -31.09186,-1.02065 -44.08486,-3.04204 -24.00103,-3.73403 -53.16993,-11.42608 -63.8152,-14.14307 -14.55285,-3.71432 -22.29823,-5.68408 -22.2147,-6.09677 z"
       id="path4227"
       inkscape:original-d="m -825.01847,431.56328 c 56.41299,11.41778 116.18069,32.12872 173.13636,12.49506 32.78063,-15.36428 65.86617,-44.21088 104.55633,-33.25521 33.13857,6.87067 62.37161,25.10488 94.72267,34.42802 40.26574,-34.3165 72.89142,-84.8484 66.55655,-139.80639 0.38087,-30.38842 -17.67126,-61.38293 -47.70104,-70.41161 -51.25788,-24.55711 -113.81489,-26.22507 -156.39725,-67.60434 -46.58585,-33.04633 -115.9948,-41.93181 -162.19767,-3.36044 -52.51628,39.90413 -70.20301,108.52758 -74.77105,171.29324 -5.36261,53.97085 -0.0778,109.12226 -11.70142,162.33696 -15.3803,42.37785 -55.08683,68.10345 -81.39175,102.84855"
       inkscape:path-effect="#path-effect4229"
       style="fill:#000000;fill-opacity:1;fill-rule:evenodd;stroke:none;stroke-width:1px;stroke-linecap:butt;stroke-linejoin:miter;stroke-opacity:1" />
    <path
       inkscape:connector-curvature="0"
       d="m -584.0399,177.77273 c 1.28998,0.40337 -1.40573,12.3359 -6.2978,31.74912 -4.49329,17.83079 -12.40597,47.77817 -17.00629,76.75869 10e-6,0 0,1e-5 0,1e-5 -0.56735,4.82797 -1.03884,9.73301 -1.42476,14.7372 -2.36192,30.62635 -1.21226,74.03293 -1.30545,91.94744 0.10631,21.0396 -0.10859,33.98235 -1.4304,34.07605 -1.30406,0.0924 -3.48303,-12.70324 -5.3796,-33.78695 -1.65542,-20.66355 -4.47501,-58.56973 -1.8153,-93.1739 0.39598,-5.15199 0.90241,-10.21593 1.52741,-15.20274 0,0 0,-1e-5 0,-1e-5 5.17282,-30.53816 14.11203,-59.03731 20.44002,-77.22907 6.61494,-19.01666 11.54238,-30.23537 12.69217,-29.87584 z"
       id="path4231"
       inkscape:original-d="m -584.0399,177.77273 c -11.08215,35.44111 -22.19208,71.09133 -28.21814,107.80637 -4.33306,35.66723 -2.55955,71.72719 -1.22116,107.53064 0.53781,11.31698 1.17347,22.62995 1.9746,33.9315"
       inkscape:path-effect="#path-effect4233"
       style="fill:#000000;fill-opacity:1;fill-rule:evenodd;stroke:none;stroke-width:1px;stroke-linecap:butt;stroke-linejoin:miter;stroke-opacity:1" />
    <path
       inkscape:connector-curvature="0"
       d="m -505.97809,212.78688 c 1.25936,0.68522 -3.21165,11.09763 -10.93298,27.65421 -7.15306,15.33804 -19.24641,40.3423 -27.96661,65.07498 -0.24633,0.81723 -0.48984,1.63799 -0.73068,2.46246 -5.73972,19.64877 -14.70755,64.47053 -17.023,74.05561 -3.03783,7.91624 -9.60666,30.02841 -8.32092,25.72263 0,0 0,0 0,0 -0.34158,-0.37741 -0.19905,-0.55564 -0.033,-0.5693 0.16687,-0.0137 0.33498,0.13819 0.0472,0.40564 0,0 0,0 0,0 1.34112,-5.81402 1.34176,-8.28772 1.67532,-26.81972 2.10974,-15.93471 6.29758,-48.88325 14.1298,-75.81247 0.24924,-0.85692 0.50228,-1.71043 0.75928,-2.56059 9.37001,-26.25362 22.23801,-49.9299 31.26161,-65.17733 9.37205,-15.83621 16.00891,-25.04823 17.1339,-24.43612 z"
       id="path4235"
       inkscape:original-d="m -505.97809,212.78688 c -16.09781,29.5862 -32.35697,59.34679 -43.64755,91.17132 -7.63404,25.28967 -11.48518,51.5239 -16.32138,77.44556 -1.69224,8.73752 -2.75752,17.71403 -4.99812,26.27118 l -0.0401,-0.48747"
       inkscape:path-effect="#path-effect4237"
       style="fill:#000000;fill-opacity:1;fill-rule:evenodd;stroke:none;stroke-width:1px;stroke-linecap:butt;stroke-linejoin:miter;stroke-opacity:1" />
    <path
       inkscape:connector-curvature="0"
       d="m -402.06932,257.97223 c 0.88109,1.10266 -6.95431,8.72335 -20.00605,20.6039 -12.06936,10.98634 -32.25002,28.82437 -49.65742,47.38184 0,0 -10e-6,0 -10e-6,0 -0.84307,0.96573 -1.6818,1.9429 -2.51688,2.93177 -16.09911,19.06398 -35.24209,49.50039 -43.3426,61.24794 -8.98009,13.34359 -14.75401,21.33833 -15.8769,20.70605 -1.10696,-0.62331 2.64046,-9.78443 10.17002,-24.14981 7.83447,-14.57297 22.98794,-42.338 41.52893,-64.37372 0.87334,-1.03795 1.75313,-2.06368 2.63981,-3.07721 0,0 1e-5,-1e-5 1e-5,-1e-5 18.58471,-19.62011 38.8174,-35.79145 52.62073,-46.00667 14.28445,-10.57129 23.64082,-16.26468 24.44036,-15.26408 z"
       id="path4239"
       inkscape:original-d="m -402.06932,257.97223 c -25.45314,20.33853 -50.97146,40.87608 -73.36229,64.62825 -17.53841,20.06834 -31.16357,43.14865 -45.01411,65.81532 -4.42535,7.42657 -8.78169,14.89486 -13.02346,22.42793"
       inkscape:path-effect="#path-effect4241"
       style="fill:#000000;fill-opacity:1;fill-rule:evenodd;stroke:none;stroke-width:1px;stroke-linecap:butt;stroke-linejoin:miter;stroke-opacity:1" />
    <path
       inkscape:connector-curvature="0"
       d="m -656.26557,461.79317 c 0.7175,-0.007 1.56098,6.9628 2.31916,19.4855 0.67257,11.10858 1.6199,32.06118 0.087,52.99372 0,0 0,2e-5 0,2e-5 -1.49808,20.57803 -5.90453,46.56224 -18.64799,70.86002 -9.79378,17.15692 -25.37822,31.5959 -44.56225,41.45542 -2.75311,1.41731 -5.56404,2.74512 -8.42847,3.98294 -16.3876,7.08163 -33.52482,10.79009 -49.96544,12.03649 -21.65187,2.20011 -42.24549,-1.35427 -59.67687,-7.25813 -21.90701,-7.39525 -39.67451,-18.4502 -52.53273,-28.26215 0,0 -1e-5,-10e-6 -1e-5,-10e-6 -22.82259,-16.20984 -34.85654,-27.81086 -34.48938,-28.31661 0.99028,-1.36409 14.35865,8.58169 37.9707,23.27605 0,0 10e-6,10e-6 10e-6,10e-6 13.04987,8.74626 30.66812,18.69869 51.68373,25.13174 16.69662,5.09094 36.14421,8.06216 56.12307,5.75442 15.53773,-1.38343 31.64916,-4.94552 46.9058,-11.53181 2.66846,-1.15197 5.28329,-2.38471 7.84059,-3.69815 17.60602,-9.05887 31.94278,-21.94785 40.85369,-37.18075 12.25027,-22.2602 17.12941,-47.09425 19.44419,-66.95506 0,0 0,-2e-5 0,-2e-5 2.22297,-19.15891 2.78751,-42.28967 3.19927,-52.24774 0.51783,-12.52339 1.09779,-19.51839 1.87588,-19.5259 z"
       id="path4243"
       inkscape:original-d="m -656.26557,461.79317 c 0.45768,47.42829 2.77725,97.89757 -20.38056,141.03399 -20.07475,34.76216 -60.72047,51.77181 -99.27812,54.94278 -39.35704,4.2618 -78.37348,-10.54413 -110.0082,-33.20322 -12.34425,-8.21693 -24.23341,-17.08718 -36.23005,-25.79634"
       inkscape:path-effect="#path-effect4245"
       style="fill:#000000;fill-opacity:1;fill-rule:evenodd;stroke:none;stroke-width:1px;stroke-linecap:butt;stroke-linejoin:miter;stroke-opacity:1" />
    <path
       inkscape:connector-curvature="0"
       d="m -820.18053,486.92779 c -0.0248,-0.0851 11.00438,-6.85059 32.51343,-10.796 9.4826,-1.69858 22.26291,-2.59104 35.40995,1.12445 4.74089,2.65016 9.15953,6.30238 12.87418,10.84657 3.26824,4.12091 5.88856,8.81668 7.89321,13.88693 3.76103,9.54729 5.50765,19.8793 6.05716,30.73557 0.59478,14.69136 -1.48125,30.3767 -7.23046,45.5119 -1.96406,5.14131 -4.38108,10.2023 -7.26427,15.06389 -5.25302,8.85757 -11.82565,16.67133 -19.50607,23.02866 -11.00555,7.40108 -23.62938,10.73712 -35.34567,11.77668 -12.64759,1.10533 -25.20493,0.0606 -35.98072,-1.02833 -26.3327,-3.36931 -49.07861,-9.94352 -63.38457,-14.77233 -14.86909,-5.01888 -22.96502,-8.87333 -22.70827,-9.64379 0.31003,-0.93035 8.94181,1.31645 24.05148,4.89096 14.29824,3.38255 37.46535,8.68023 62.86304,11.0594 10.66199,0.69342 22.75727,1.40905 34.23213,0.12773 10.47615,-1.1565 21.44759,-4.06181 30.31926,-10.28872 6.63929,-5.53863 12.34835,-12.44923 16.96706,-20.33408 2.53492,-4.32752 4.68239,-8.84851 6.4519,-13.44689 5.29675,-13.68035 7.35712,-28.04317 7.06918,-41.58466 -0.39609,-10.2096 -1.67848,-19.54248 -4.78333,-27.96606 -1.63149,-4.44694 -3.68786,-8.48846 -6.2671,-11.95952 -2.62097,-3.68153 -5.84929,-6.70545 -9.38312,-8.91453 -10.92956,-3.67668 -22.60434,-3.39782 -31.5162,-2.4406 -20.99127,2.17814 -32.75714,7.09423 -33.3322,5.12277 z"
       id="path4247"
       inkscape:original-d="m -820.18053,486.92779 c 21.32345,-6.21994 44.3421,-12.94614 66.38589,-6.17686 17.91556,10.52076 22.76491,32.90445 23.62905,52.15459 0.9149,29.26532 -9.23294,60.36842 -32.24447,79.48504 -19.81021,13.58229 -45.09675,12.35335 -67.93889,10.45467 -29.5091,-3.27653 -58.3872,-10.81368 -86.50368,-20.18324"
       inkscape:path-effect="#path-effect4249"
       style="fill:#000000;fill-opacity:1;fill-rule:evenodd;stroke:none;stroke-width:1px;stroke-linecap:butt;stroke-linejoin:miter;stroke-opacity:1" />
    <path
       inkscape:connector-curvature="0"
       d="m -917.55974,599.02118 c 0.89642,1.15546 -7.93794,9.27374 -22.11936,22.35115 -13.97735,12.88923 -33.85653,31.28841 -52.98163,52.80323 -7.92087,8.91057 -15.02837,17.5722 -21.50347,26.10419 -9.8697,13.28867 -16.5517,24.43886 -21.1516,35.32117 -4.4475,10.52155 -5.9416,18.51976 -6.9891,23.60766 -0.1647,1.38173 -0.1633,2.11433 0,2.86993 0.1399,0.64014 0.3474,1.03472 0.1851,1.24977 0.037,-0.0492 -2.7386,0.25628 -3.1068,-4.19394 -0.5036,-5.20021 -0.1709,-14.19711 3.3981,-25.78928 3.6713,-11.92479 10.1388,-24.71129 20.0126,-38.64941 6.3744,-8.95216 13.5756,-18.01256 21.6779,-27.13136 19.72796,-22.20307 40.51361,-39.88214 55.90272,-51.61443 15.50151,-11.81798 25.88183,-17.94931 26.67364,-16.92868 z"
       id="path4251"
       inkscape:original-d="m -917.55974,599.02118 c -37.08372,28.76979 -72.52524,60.49628 -100.42936,98.46652 -13.1494,18.13536 -24.6141,38.85607 -25.7757,61.68376 -0,1.50452 0.3693,3.19249 1.6469,4.15682"
       inkscape:path-effect="#path-effect4253"
       style="fill:#000000;fill-opacity:1;fill-rule:evenodd;stroke:none;stroke-width:1px;stroke-linecap:butt;stroke-linejoin:miter;stroke-opacity:1" />
    <path
       inkscape:connector-curvature="0"
       id="path4255"
       d="m -649.98317,258.18257 c 1.99733,31.29551 -30.6265,59.67951 -61.36183,52.12707 -22.58579,-5.10528 -38.32447,-27.09548 -39.35041,-49.67838 -1.63839,-20.86065 10.03735,-42.61122 29.68209,-50.79986 18.20753,-8.39955 41.51241,-5.14109 55.53228,9.6318 10.05303,10.16055 15.45045,24.50623 15.49787,38.71937 z"
       style="opacity:1;fill:#000000;fill-opacity:1;stroke:#000000;stroke-width:0.1;stroke-miterlimit:4;stroke-dasharray:none;stroke-opacity:1" />
    <path
       inkscape:connector-curvature="0"
       id="path4257"
       d="m -675.85319,237.75888 c 0.27936,6.77727 -5.56412,12.84093 -12.16588,13.58132 -5.26209,0.62487 -10.79617,-2.14285 -13.25735,-6.87684 -2.50612,-4.43434 -2.46952,-10.32535 0.5896,-14.49063 2.26653,-3.37511 6.1559,-5.51996 10.20577,-5.74063 4.71482,-0.37171 9.68346,1.74314 12.23963,5.81452 1.52396,2.26311 2.41178,4.97504 2.38823,7.71226 z"
       style="opacity:1;fill:#ffffff;fill-opacity:1;stroke:#000000;stroke-width:0.1;stroke-miterlimit:4;stroke-dasharray:none;stroke-opacity:1" />
    <path
       inkscape:connector-curvature="0"
       d="m -655.01248,438.74481 c -0.76027,1.03127 -6.10021,-0.88736 -12.94451,-6.90297 -7.04326,-6.19046 -14.46488,-15.72226 -20.19173,-28.77772 -1.68839,-3.84899 -3.07921,-7.66333 -4.21444,-11.34642 -3.27591,-11.74738 -1.52299,-24.26123 -0.59128,-29.75199 -0.29148,-1.31637 -0.0831,-2.06926 0.17186,-2.41227 0.24624,-0.85189 0.56267,-1.58755 0.78245,-2.09399 0.15323,-0.49067 0.58052,-1.14508 0.59399,-1.17483 0.0341,-0.0262 0.2126,-0.003 0.36443,0.0518 0.31445,-0.031 0.23604,-0.17484 0.12939,-0.30394 0,0 0,0 0,0 -0.30007,-0.14587 -0.49942,-0.32437 -0.55859,-0.54482 -0.0591,-0.2201 0.0239,-0.47515 0.27105,-0.76764 0,0 0,0 0,0 0.20009,-0.1747 0.61865,-0.3718 1.35414,-0.11827 0.43801,0.25228 0.82241,0.62495 0.96319,1.01992 0.36749,0.76006 0.51402,1.58894 0.55989,2.31227 0.0433,0.40883 0.13612,1.75419 0.18342,2.13389 0.14593,0.71182 0.17222,1.15598 0.30054,0.96378 0.64084,3.84816 1.84162,19.57091 4.6967,27.67271 1.27145,3.36654 2.67817,6.86894 4.23814,10.41253 5.40347,12.27438 10.78835,20.84858 16.09228,27.95958 4.92045,6.59688 8.6653,10.49335 7.79908,11.66834 z"
       id="path4259"
       inkscape:original-d="m -655.01248,438.74481 c -16.08777,-11.86016 -26.37985,-29.9045 -32.74009,-48.53378 -2.89015,-9.25483 -2.67701,-19.11692 -2.64399,-28.71235 -0.61562,-1.61285 1.4626,-6.48492 -0.65953,-6.12239 -0.13827,0.0371 -0.27655,0.0743 -0.41482,0.11141"
       inkscape:path-effect="#path-effect4261"
       style="fill:#000000;fill-opacity:1;fill-rule:evenodd;stroke:none;stroke-width:1px;stroke-linecap:butt;stroke-linejoin:miter;stroke-opacity:1" />
    <path
       inkscape:connector-curvature="0"
       d="m -916.85263,601.1425 c -0.52439,3.09915 -25.33831,-3.60764 -63.55645,-0.24239 -17.94673,1.58937 -39.48282,5.97449 -58.89862,17.06834 -5.4214,3.16108 -10.4762,7.22417 -14.8928,12.04648 -2.9433,3.21359 -5.5294,6.68426 -7.7199,10.32479 -5.7581,9.62261 -8.7121,20.32384 -8.7259,30.49973 -0.8165,17.07446 2.8207,33.17088 7.1899,46.06496 6.6362,19.55757 18.6161,40.04493 20.228,43.38668 0.2843,0.52238 0.5192,0.98331 0.702,1.37925 0.4552,0.93946 0.5998,1.50333 0.4085,1.65794 -0.1913,0.15462 -0.7123,-0.10529 -1.5429,-0.75694 -0.3473,-0.28325 -0.7503,-0.63948 -1.2082,-1.06795 -4.0172,-4.13891 -16.5914,-19.66621 -25.6818,-41.94436 -5.4106,-13.23948 -9.9469,-30.14872 -9.5459,-48.83648 -0.2197,-11.92841 2.98,-24.35348 9.6298,-35.49091 2.519,-4.23909 5.5021,-8.26606 8.9127,-11.98546 5.1186,-5.58202 11.0012,-10.25541 17.3459,-13.88327 21.4337,-11.86233 44.3925,-15.92555 63.27952,-16.66809 19.30585,-0.76652 36.38773,1.55482 47.01234,3.54686 11.10666,2.08243 17.19447,4.12861 17.06381,4.90082 z"
       id="path4263"
       inkscape:original-d="m -916.85263,601.1425 c -41.4775,-7.01821 -87.06417,-8.74294 -124.90537,12.52318 -20.1255,11.61226 -33.8318,33.6693 -33.6135,57.11532 -1.111,32.61741 12.9845,63.87909 31.3228,90.11624 l 0.9551,1.2236 0.9757,1.20744"
       inkscape:path-effect="#path-effect4265"
       style="fill:#000000;fill-opacity:1;fill-rule:evenodd;stroke:none;stroke-width:1px;stroke-linecap:butt;stroke-linejoin:miter;stroke-opacity:1" />
    <path
       inkscape:connector-curvature="0"
       d="m -667.68371,134.27889 c -2.74181,-0.31636 -3.13708,-16.43279 -0.88231,-35.974167 2.25477,-19.541378 6.30997,-35.144288 9.05178,-34.827926 2.74181,0.316362 3.13708,16.432789 0.88231,35.974167 -2.25477,19.541376 -6.30997,35.144286 -9.05178,34.827926 z"
       id="path4267"
       inkscape:original-d="m -667.68371,134.27889 c 2.72316,-23.6007 5.44631,-47.201395 8.16947,-70.802093"
       inkscape:path-effect="#path-effect4269"
       style="fill:#000000;fill-opacity:1;fill-rule:evenodd;stroke:none;stroke-width:1px;stroke-linecap:butt;stroke-linejoin:miter;stroke-opacity:1" />
    <path
       inkscape:connector-curvature="0"
       d="m -667.86099,132.42799 c -2.38755,-1.38463 3.68399,-16.31889 13.55254,-33.335385 9.86854,-17.016497 19.81552,-29.703227 22.20307,-28.318592 2.38755,1.384635 -3.68399,16.318887 -13.55254,33.335387 -9.86854,17.0165 -19.81552,29.70322 -22.20307,28.31859 z"
       id="path4271"
       inkscape:original-d="m -667.86099,132.42799 c 11.91854,-20.55133 23.83707,-41.102651 35.75561,-61.653977"
       inkscape:path-effect="#path-effect4273"
       style="fill:#000000;fill-opacity:1;fill-rule:evenodd;stroke:none;stroke-width:1px;stroke-linecap:butt;stroke-linejoin:miter;stroke-opacity:1" />
    <path
       inkscape:connector-curvature="0"
       d="m -737.08045,650.51814 c 1.05269,-2.02739 41.08561,17.99105 99.71208,50.15927 -21.14055,18.7563 -44.39022,39.24895 -70.01549,61.77294 -14.14664,12.43455 -28.38575,24.93318 -41.3415,36.30378 0,0 0,-2e-5 0,-2e-5 4.05137,-86.10878 8.71542,-148.45264 11.64491,-148.23597 2.94372,0.21772 -1.6071,62.07883 -10.04229,144.99098 0,0 0,10e-6 0,10e-6 12.15672,-10.97426 25.50058,-23.01953 38.70112,-34.91829 23.95487,-21.59253 45.73609,-41.1684 66.03805,-59.28775 -56.73169,-27.74262 -95.75476,-48.74757 -94.69688,-50.78495 z"
       id="path4275"
       inkscape:original-d="m -737.08045,650.51814 c 32.40149,16.82404 64.80299,33.64807 97.20448,50.47211 -36.01603,32.04713 -72.03205,64.09425 -108.04808,96.14138 3.61453,-48.87116 7.22907,-97.74233 10.8436,-146.61349 z"
       inkscape:path-effect="#path-effect4277"
       style="fill:#000001;fill-opacity:1;fill-rule:evenodd;stroke:none;stroke-width:0.2;stroke-linecap:butt;stroke-linejoin:miter;stroke-miterlimit:4;stroke-dasharray:none;stroke-opacity:1" />
    <path
       inkscape:export-ydpi="90"
       inkscape:export-xdpi="90"
       sodipodi:nodetypes="sssssssscccs"
       inkscape:connector-curvature="0"
       id="path4279"
       d="m -566.49799,401.63395 c 1.59369,-2.51252 6.49612,-27.1824 11.47153,-49.81463 4.97542,-22.63223 12.05435,-48.73223 15.73096,-58 5.45732,-13.75647 32.81562,-75.4955 34.28461,-77.36952 0.70862,-0.904 51.52347,15.72495 63.93228,20.92158 14.28803,5.98362 37.18052,18.06256 36.28291,20.4347 -0.35431,0.93635 -13.62973,8.71802 -25.17973,17.29262 -42.05748,31.223 -68.9116,62.88768 -93.24223,109.94534 l -11.17198,23.82218 -15.85262,-5.29398 -17.26684,-0.34422 z"
       style="opacity:1;fill:none;fill-opacity:1;stroke:none;stroke-width:0.40000001;stroke-linejoin:round;stroke-miterlimit:4;stroke-dasharray:none;stroke-opacity:1" />
    <rect
       style="opacity:1;fill:none;fill-opacity:1;stroke:#000000;stroke-width:0.977328;stroke-linejoin:round;stroke-miterlimit:4;stroke-dasharray:none;stroke-opacity:1"
       id="rect4289"
       width="825.08612"
       height="932.90704"
       x="-1127.2111"
       y="41.58012"
       ry="2.0503469" />
    <text
       xml:space="preserve"
       style="font-style:normal;font-variant:normal;font-weight:normal;font-stretch:normal;font-size:125px;line-height:150%;font-family:Neurotica;-inkscape-font-specification:Neurotica;text-align:start;letter-spacing:0px;word-spacing:0px;text-anchor:start;fill:#000000;fill-opacity:1;stroke:none;stroke-width:1px;stroke-linecap:butt;stroke-linejoin:miter;stroke-opacity:1;"
       x="-1101.9774"
       y="954.0686"
       id="text4291"
       sodipodi:linespacing="150%"><tspan
         sodipodi:role="line"
         id="tspan4293"
         x="-1101.9774"
         y="954.0686">MUMAKER.NET</tspan></text>
  </g>
</svg>
