<?xml version="1.0" encoding="UTF-8" standalone="no"?>
<!-- Created with Inkscape (http://www.inkscape.org/) -->

<svg
   xmlns:dc="http://purl.org/dc/elements/1.1/"
   xmlns:cc="http://creativecommons.org/ns#"
   xmlns:rdf="http://www.w3.org/1999/02/22-rdf-syntax-ns#"
   xmlns:svg="http://www.w3.org/2000/svg"
   xmlns="http://www.w3.org/2000/svg"
   xmlns:sodipodi="http://sodipodi.sourceforge.net/DTD/sodipodi-0.dtd"
   xmlns:inkscape="http://www.inkscape.org/namespaces/inkscape"
   width="197.29317mm"
   height="210.83182mm"
   viewBox="0 0 699.07028 747.04187"
   id="svg2"
   version="1.1"
   inkscape:version="0.91 r13725"
   sodipodi:docname="Lori Color i Fons Blanc.svg">
  <defs
     id="defs4">
    <inkscape:path-effect
       fuse_tolerance="0"
       vertical_pattern="false"
       prop_units="false"
       tang_offset="0"
       normal_offset="0"
       spacing="0"
       scale_y_rel="false"
       prop_scale="1"
       copytype="single_stretched"
       pattern="m 13.615788,7.7231576 c 0,-2.76 2.24,-5 5,-5 2.76,0 5,2.24 5,5 0,2.7600004 -2.24,5.0000004 -5,5.0000004 -2.76,0 -5,-2.24 -5,-5.0000004 z"
       is_visible="true"
       id="path-effect4346"
       effect="skeletal" />
    <inkscape:path-effect
       effect="skeletal"
       id="path-effect4342"
       is_visible="true"
       pattern="M 0,5 C 0,2.24 2.24,0 5,0 7.76,0 10,2.24 10,5 10,7.76 7.76,10 5,10 2.24,10 0,7.76 0,5 Z"
       copytype="single_stretched"
       prop_scale="1"
       scale_y_rel="false"
       spacing="0"
       normal_offset="0"
       tang_offset="0"
       prop_units="false"
       vertical_pattern="false"
       fuse_tolerance="0" />
    <inkscape:path-effect
       effect="skeletal"
       id="path-effect4338"
       is_visible="true"
       pattern="M 0,5 C 0,2.24 2.24,0 5,0 7.76,0 10,2.24 10,5 10,7.76 7.76,10 5,10 2.24,10 0,7.76 0,5 Z"
       copytype="single_stretched"
       prop_scale="1"
       scale_y_rel="false"
       spacing="0"
       normal_offset="0"
       tang_offset="0"
       prop_units="false"
       vertical_pattern="false"
       fuse_tolerance="0" />
    <inkscape:path-effect
       fuse_tolerance="0"
       vertical_pattern="false"
       prop_units="false"
       tang_offset="0"
       normal_offset="0"
       spacing="0"
       scale_y_rel="false"
       prop_scale="1"
       copytype="single_stretched"
       pattern="M 0,5 C 0,2.24 2.24,0 5,0 7.76,0 10,2.24 10,5 10,7.76 7.76,10 5,10 2.24,10 0,7.76 0,5 Z"
       is_visible="true"
       id="path-effect4334"
       effect="skeletal" />
    <inkscape:path-effect
       effect="skeletal"
       id="path-effect4330"
       is_visible="true"
       pattern="M 0,5 C 0,2.24 2.24,0 5,0 7.76,0 10,2.24 10,5 10,7.76 7.76,10 5,10 2.24,10 0,7.76 0,5 Z"
       copytype="single_stretched"
       prop_scale="1"
       scale_y_rel="false"
       spacing="0"
       normal_offset="0"
       tang_offset="0"
       prop_units="false"
       vertical_pattern="false"
       fuse_tolerance="0" />
    <inkscape:path-effect
       effect="skeletal"
       id="path-effect4320"
       is_visible="true"
       pattern="M 0,5 C 0,2.24 2.24,0 5,0 7.76,0 10,2.24 10,5 10,7.76 7.76,10 5,10 2.24,10 0,7.76 0,5 Z"
       copytype="single_stretched"
       prop_scale="1"
       scale_y_rel="false"
       spacing="0"
       normal_offset="0"
       tang_offset="0"
       prop_units="false"
       vertical_pattern="false"
       fuse_tolerance="0" />
    <inkscape:path-effect
       effect="skeletal"
       id="path-effect4316"
       is_visible="true"
       pattern="m -6.0847363,0.57486901 c 0,-2.76000001 2.24,-5.00000001 5,-5.00000001 2.76,0 5,2.24 5,5.00000001 0,2.75999999 -2.24,4.99999999 -5,4.99999999 -2.76,0 -5,-2.24 -5,-4.99999999 z"
       copytype="single_stretched"
       prop_scale="1"
       scale_y_rel="false"
       spacing="0"
       normal_offset="0"
       tang_offset="0"
       prop_units="false"
       vertical_pattern="false"
       fuse_tolerance="0" />
    <inkscape:path-effect
       effect="skeletal"
       id="path-effect4312"
       is_visible="true"
       pattern="M 0,5 C 0,2.24 2.24,0 5,0 7.76,0 10,2.24 10,5 10,7.76 7.76,10 5,10 2.24,10 0,7.76 0,5 Z"
       copytype="single_stretched"
       prop_scale="1"
       scale_y_rel="false"
       spacing="0"
       normal_offset="0"
       tang_offset="0"
       prop_units="false"
       vertical_pattern="false"
       fuse_tolerance="0" />
    <inkscape:path-effect
       effect="skeletal"
       id="path-effect4306"
       is_visible="true"
       pattern="m 34.285714,-49.285715 c 0,-2.76 2.24,-5 5,-5 2.76,0 5,2.24 5,5 0,2.76 -2.24,5 -5,5 -2.76,0 -5,-2.24 -5,-5 z"
       copytype="single_stretched"
       prop_scale="1"
       scale_y_rel="false"
       spacing="0"
       normal_offset="0"
       tang_offset="0"
       prop_units="false"
       vertical_pattern="false"
       fuse_tolerance="0" />
    <inkscape:path-effect
       effect="skeletal"
       id="path-effect4302"
       is_visible="true"
       pattern="m -14.977366,-23.593154 c 0,-2.76 2.24,-5 4.9999996,-5 2.76,0 5,2.24 5,5 0,2.76 -2.24,5 -5,5 -2.7599996,0 -4.9999996,-2.24 -4.9999996,-5 z"
       copytype="single_stretched"
       prop_scale="1"
       scale_y_rel="false"
       spacing="0"
       normal_offset="0"
       tang_offset="0"
       prop_units="false"
       vertical_pattern="false"
       fuse_tolerance="0" />
    <inkscape:path-effect
       effect="skeletal"
       id="path-effect4298"
       is_visible="true"
       pattern="m -9.5310514,-14.062103 c 0,-2.76 2.2399997,-5 4.9999997,-5 2.76,0 4.99999959,2.24 4.99999959,5 0,2.76 -2.23999959,5.0000003 -4.99999959,5.0000003 -2.76,0 -4.9999997,-2.2400003 -4.9999997,-5.0000003 z"
       copytype="single_stretched"
       prop_scale="1"
       scale_y_rel="false"
       spacing="0"
       normal_offset="0"
       tang_offset="0"
       prop_units="false"
       vertical_pattern="false"
       fuse_tolerance="0" />
    <inkscape:path-effect
       effect="skeletal"
       id="path-effect4294"
       is_visible="true"
       pattern="m 16.593154,-22.78526 c 0,-2.76 2.24,-5 5,-5 2.76,0 5,2.24 5,5 0,2.76 -2.24,5 -5,5 -2.76,0 -5,-2.24 -5,-5 z"
       copytype="single_stretched"
       prop_scale="1"
       scale_y_rel="false"
       spacing="0"
       normal_offset="0"
       tang_offset="0"
       prop_units="false"
       vertical_pattern="false"
       fuse_tolerance="0" />
    <inkscape:path-effect
       effect="skeletal"
       id="path-effect4290"
       is_visible="true"
       pattern="m 0,-41 c 0,-2.76 2.24,-5 5,-5 2.76,0 5,2.24 5,5 0,2.76 -2.24,5 -5,5 -2.76,0 -5,-2.24 -5,-5 z"
       copytype="single_stretched"
       prop_scale="1"
       scale_y_rel="false"
       spacing="0"
       normal_offset="0"
       tang_offset="0"
       prop_units="false"
       vertical_pattern="false"
       fuse_tolerance="0" />
    <inkscape:path-effect
       effect="skeletal"
       id="path-effect4260"
       is_visible="true"
       pattern="M 0,5 C 0,2.24 2.24,0 5,0 7.76,0 10,2.24 10,5 10,7.76 7.76,10 5,10 2.24,10 0,7.76 0,5 Z"
       copytype="single_stretched"
       prop_scale="1"
       scale_y_rel="false"
       spacing="0"
       normal_offset="0"
       tang_offset="0"
       prop_units="false"
       vertical_pattern="false"
       fuse_tolerance="0" />
  </defs>
  <sodipodi:namedview
     id="base"
     pagecolor="#ffffff"
     bordercolor="#666666"
     borderopacity="1.0"
     inkscape:pageopacity="0.0"
     inkscape:pageshadow="2"
     inkscape:zoom="0.73444154"
     inkscape:cx="-157.23196"
     inkscape:cy="312.79498"
     inkscape:document-units="px"
     inkscape:current-layer="layer1"
     showgrid="false"
     inkscape:window-width="1920"
     inkscape:window-height="955"
     inkscape:window-x="0"
     inkscape:window-y="1"
     inkscape:window-maximized="1"
     fit-margin-top="0"
     fit-margin-left="0"
     fit-margin-right="0"
     fit-margin-bottom="0" />
  <metadata
     id="metadata7">
    <rdf:RDF>
      <cc:Work
         rdf:about="">
        <dc:format>image/svg+xml</dc:format>
        <dc:type
           rdf:resource="http://purl.org/dc/dcmitype/StillImage" />
        <dc:title></dc:title>
      </cc:Work>
    </rdf:RDF>
  </metadata>
  <g
     inkscape:label="Capa 1"
     inkscape:groupmode="layer"
     id="layer1"
     transform="translate(-17.137588,-61.128138)">
    <path
       style="fill:#082f47;fill-opacity:1;fill-rule:evenodd;stroke:none;stroke-width:0.1;stroke-linecap:butt;stroke-linejoin:miter;stroke-miterlimit:4;stroke-dasharray:none;stroke-opacity:1"
       d="m 17.142975,718.07585 c -0.0064,-0.0116 -0.0071,-0.0263 -0.002,-0.0443 0.005,-0.0176 0.01546,-0.0382 0.03144,-0.0619 0,0 1e-6,0 1e-6,0 0.0318,-0.0471 0.08535,-0.10642 0.160448,-0.17774 l 1e-6,0 c 0.14877,-0.14128 0.382528,-0.3302 0.699249,-0.56596 l 0,0 c 0.620876,-0.46217 1.566726,-1.10868 2.818496,-1.93203 l 0,0 c 2.397218,-1.57677 5.967654,-3.83458 10.568256,-6.72799 l 1e-6,0 c 7.816727,-4.9161 20.688857,-12.95564 34.866814,-22.22022 l 0,0 c 11.747342,-7.67669 26.691895,-17.65626 41.729191,-28.76757 l 0,0 c 6.18223,-4.56831 12.69031,-9.55395 19.12191,-14.8903 l 0,0 c 5.23173,-4.34271 10.601,-9.04292 15.62135,-14.13712 l 0,0 c 14.65759,-14.85542 23.58231,-23.04013 39.98713,-39.32007 l 0,0 c 12.67932,-12.5874 26.31008,-26.60156 38.61545,-41.70811 l 0,0 c 10.92017,-13.42029 21.47336,-28.41537 29.17661,-44.99344 l 0,0 c 6.98547,-15.03594 11.72073,-31.84647 12.06951,-49.12025 0.68723,-31.54376 1.2909,-66.86066 3.53164,-101.10895 l 0,0 c 1.79725,-27.61647 4.73322,-56.65284 11.5659,-85.18565 l 0,0 c 5.65973,-23.70298 14.46213,-47.63047 28.52269,-68.91092 1.09504,-1.65243 2.22127,-3.2867 3.37814,-4.9016 5.97499,-8.34057 12.70124,-16.07179 20.05877,-23.06867 9.46582,-8.99468 19.91108,-16.74313 30.86865,-23.31503 12.72118,-7.62434 26.82376,-12.4532 41.11503,-14.57608 15.05733,-2.23018 30.239,-1.573 44.69022,1.19735 33.53217,6.4525 63.23287,23.60704 86.54579,44.70151 4.1115,3.78735 9.48574,6.52434 15.03007,9.12118 7.38047,3.40041 15.14723,6.16627 22.85646,8.75224 14.03492,4.70022 44.13114,13.58818 57.17057,17.86519 19.5783,6.39449 37.63046,12.98979 54.16947,23.01255 7.17506,4.33548 13.84941,9.35998 19.35522,15.58313 5.03878,5.67939 8.7502,12.45884 10.2652,19.80932 3.42559,17.12311 4.87209,33.40036 4.38538,48.83141 -0.64824,21.1847 -5.13172,39.53559 -12.69961,54.72607 -9.97036,19.87266 -25.00479,35.13378 -34.16024,43.71418 -13.72289,11.44898 -21.22028,17.39175 -21.55289,17.01518 0,0 0,-10e-6 0,-10e-6 0,0 0,0 0,0 -0.001,-0.001 -0.001,-0.001 -0.001,-0.001 0,0 0,0 -0.001,-0.001 0,0 0,-10e-6 0,-10e-6 0,0 0,0 0,0 -0.30033,-0.40482 6.58319,-7.09995 19.58025,-19.13184 8.54712,-8.90236 22.83576,-24.56446 31.71829,-43.72778 6.85079,-14.66781 10.65226,-32.26365 10.9257,-52.73018 0.18496,-14.91969 -1.50604,-30.64539 -5.09085,-47.26152 -1.23545,-5.88677 -4.49118,-11.47766 -8.85841,-16.34801 -4.87017,-5.41449 -11.01529,-9.84977 -17.81422,-13.89001 -15.77897,-9.34787 -33.28821,-15.44617 -52.7844,-21.64956 -14.14098,-4.47919 -41.70427,-12.25211 -57.39849,-17.36486 -7.84959,-2.55296 -15.93343,-5.37375 -23.83207,-8.93089 -5.87358,-2.60247 -12.03106,-5.7943 -17.42025,-10.53015 -22.45593,-19.9657 -50.75687,-36.18454 -82.19408,-42.01884 -13.52031,-2.51952 -27.61618,-3.10273 -41.42097,-0.99725 -13.0757,1.98819 -25.95628,6.41704 -37.45452,13.35386 -10.38302,6.25846 -20.24079,13.5799 -29.10721,22.0284 -6.89407,6.56355 -13.20498,13.82385 -18.81534,21.65544 -1.08629,1.51637 -2.14399,3.05091 -3.17256,4.60242 -13.26028,19.93916 -21.63679,42.80639 -27.20911,65.7116 l 0,0 c -6.70522,27.64365 -9.65078,56.14494 -11.56779,83.5121 -2.36058,33.86855 -3.16182,69.17387 -4.07468,100.68832 -0.56653,18.79276 -5.73919,36.73622 -13.31774,52.59261 l 0,0 c -8.32152,17.41262 -19.39443,32.86161 -30.75452,46.46555 l 0,0 c -12.79175,15.33425 -26.76459,29.35208 -39.70672,41.8332 l 0,0 c -18.1465,17.50667 -24.33918,22.7697 -40.57368,38.64019 l 0,0 c -5.34218,5.22111 -10.95278,9.95116 -16.36717,14.25918 l 0,0 c -6.66389,5.30463 -13.36081,10.21031 -19.70934,14.6775 l 0,0 c -15.498428,10.90591 -30.662845,20.43337 -42.770436,27.77231 l 0,0 c -14.88165,9.02098 -27.437755,16.08616 -35.930623,20.67506 l -10e-7,10e-6 c -4.805327,2.59645 -8.535322,4.52142 -11.135225,5.78404 l 0,0 c -1.352279,0.65672 -2.390844,1.13013 -3.11199,1.42179 l 0,0 c -0.366704,0.1483 -0.649785,0.24894 -0.848498,0.30185 l 0,0 c -0.100171,0.0267 -0.178764,0.0412 -0.235651,0.0435 0,0 -1e-6,0 -1e-6,0 -0.02858,0.001 -0.05166,-7.8e-4 -0.06924,-0.006 -0.01798,-0.005 -0.0302,-0.0134 -0.03665,-0.025 z"
       id="path4258"
       inkscape:path-effect="#path-effect4260"
       inkscape:original-d="m 17.142968,718.07585 c 0,0 91.340842,-50.80714 127.915002,-87.21477 50.86389,-50.63229 120.27993,-105.59098 122.10068,-177.33671 3.68859,-145.34786 5.31934,-247.86399 95.93624,-302.34455 48.41546,-29.10827 115.58869,-15.3697 166.71033,30.49253 31.38344,28.1547 167.40124,38.12174 178.47739,91.42852 5.53807,26.65339 9.45508,67.54566 -7.07454,101.77459 -16.52962,34.22892 -53.50585,61.7945 -53.50585,61.7945"
       inkscape:connector-curvature="0"
       sodipodi:nodetypes="casasssc" />
    <path
       style="fill:#072f48;fill-opacity:1;fill-rule:evenodd;stroke:none;stroke-width:1px;stroke-linecap:butt;stroke-linejoin:miter;stroke-opacity:1"
       d="m 274.28572,429.21935 c 0.006,-0.0233 0.0185,-0.0449 0.0372,-0.0648 0.0182,-0.0195 0.0424,-0.0374 0.0725,-0.0537 0,0 0,0 0,0 0.06,-0.0325 0.14351,-0.0586 0.2502,-0.0786 l 0,0 0,0 c 0.21197,-0.0397 0.51591,-0.055 0.90886,-0.047 l 0,0 c 0.77507,0.0157 1.90239,0.12234 3.35637,0.31006 l 0,0 c 2.81733,0.36374 6.91879,1.04082 12.10212,1.94455 l 0,0 c 8.98524,1.56655 23.79315,4.29381 39.63811,6.83192 l 0,0 c 13.80472,2.21013 30.85903,4.72549 48.51926,6.20826 l 0,0 c 0,0 10e-6,0 10e-6,0 7.43738,0.62405 15.24555,1.09246 23.14814,1.14567 l 0,0 c 6.56375,0.0397 13.30675,-0.16635 19.92562,-1.04889 l 0,0 c 8.56175,-1.10359 17.06869,-4.06787 25.61545,-8.01013 3.25331,-1.50772 6.48309,-3.15284 9.73229,-4.89796 5.19963,-2.79269 10.4453,-5.84182 15.55856,-8.76909 8.7259,-5.01272 17.17719,-9.7549 26.28716,-13.62725 9.38327,-4.00555 19.03143,-6.66835 28.81229,-7.28101 20.90274,-1.24506 39.45166,0.70189 55.42536,4.6541 26.16469,6.43844 41.5235,17.77822 48.56445,24.62982 1.4318,1.43979 1.82199,3.20837 1.9967,4.07067 0.29216,1.66196 0.31352,2.55212 0.0588,2.65163 -0.009,0.003 -0.009,0.003 -0.009,0.003 0,0 10e-6,6e-5 -0.01,0.003 -0.26771,0.0611 -0.80113,-0.66963 -1.56357,-2.09078 -0.46469,-0.73151 -1.25197,-2.20958 -2.09511,-2.61515 -8.27939,-5.39654 -23.06658,-14.48497 -48.52763,-19.52605 -15.45977,-3.04034 -33.1519,-4.24849 -53.19684,-2.61861 -8.45115,0.66736 -16.97855,3.25058 -25.61736,7.01822 -8.42952,3.69276 -16.46003,8.32294 -25.15237,13.35333 -5.07875,2.94932 -10.38365,6.04832 -15.80434,8.95419 -3.37978,1.81181 -6.78888,3.54078 -10.2669,5.14802 -9.15264,4.2482 -18.68312,7.42641 -28.58186,8.6551 l 0,0 c -7.28667,0.87424 -14.47422,1.00248 -21.30267,0.82906 l 0,0 c -8.24607,-0.20384 -16.27879,-0.8583 -23.86638,-1.69596 0,0 -10e-6,0 -10e-6,0 l 0,0 c -18.1001,-1.99735 -35.08507,-5.16024 -48.96143,-8.12484 l 0,0 c -16.37674,-3.49714 -29.95595,-7.0848 -39.26657,-9.85278 l 0,0 c -5.08457,-1.51156 -9.01176,-2.81387 -11.69232,-3.83659 l 0,0 c -1.37669,-0.52526 -2.41563,-0.97364 -3.10531,-1.33768 l 0,0 c -0.34877,-0.1841 -0.60703,-0.34602 -0.77296,-0.48487 l 0,0 0,0 c -0.0834,-0.0698 -0.14338,-0.1337 -0.17969,-0.19157 0,0 0,0 0,0 -0.0182,-0.029 -0.0305,-0.0565 -0.0367,-0.0825 -0.006,-0.0265 -0.007,-0.0514 -4.2e-4,-0.0747 z"
       id="path4288"
       inkscape:path-effect="#path-effect4290"
       inkscape:original-d="m 274.28571,429.21935 c 0,0 98.99501,26.26344 148.57143,20 37.72387,-4.766 67.7839,-40.19427 105.71429,-42.85715 35.25413,-2.475 75.28976,3.60051 102.85714,25.71429 1.66117,1.33254 2.85714,5.71429 2.85714,5.71429"
       inkscape:connector-curvature="0"
       sodipodi:nodetypes="caaac" />
    <path
       style="fill:#fa720e;fill-opacity:1;fill-rule:evenodd;stroke:none;stroke-width:1px;stroke-linecap:butt;stroke-linejoin:miter;stroke-opacity:1"
       d="m 515.26428,175.42881 c 0.024,0.008 0.0463,0.0203 0.0671,0.0376 0.0202,0.0167 0.039,0.0378 0.0562,0.0633 0,0 0,1e-5 0,1e-5 0.0344,0.0509 0.063,0.11915 0.0858,0.2046 l 0,0 0,0 c 0.0454,0.16992 0.068,0.40789 0.0686,0.71183 0,0 0,0 0,0 l 0,0 c 0.001,0.60075 -0.0838,1.46101 -0.24858,2.56423 l 0,0 c -0.3209,2.14804 -0.94733,5.23246 -1.82796,9.12923 l 0,0 c -1.67809,7.42563 -4.16052,17.29704 -7.26084,29.77369 l 0,0 c -2.57266,10.35427 -5.80273,23.37602 -8.71889,36.57984 -2.25426,10.2293 -4.69112,21.67572 -6.01135,33.01472 -0.65962,5.60473 -1.12583,11.31579 -1.4611,17.1947 -0.47834,8.38776 -0.67309,16.85039 -0.81522,24.89115 -0.28961,16.77466 -0.15843,33.30148 -0.0213,47.11632 0.15311,15.41696 0.34016,28.10503 0.35515,38.3508 -0.27278,7.06708 -0.49056,13.1642 -0.65911,16.62879 0,10e-6 -1e-5,10e-6 -1e-5,10e-6 -4.19422,1.98974 -6.3364,2.48585 -6.56613,2.00702 -0.22967,-0.47871 1.47653,-1.82927 4.41972,-3.26375 0,0 0,-10e-6 0,-10e-6 -0.72013,-4.09351 -1.48216,-8.55441 -2.69085,-15.035 -1.15583,-9.99041 -2.33233,-23.13393 -3.23492,-38.39816 -0.82997,-14.02921 -1.47025,-30.34729 -1.423,-47.50387 0.0188,-8.12863 0.15459,-16.70535 0.6528,-25.36516 0.34814,-6.05137 0.86331,-11.98022 1.60432,-17.8264 1.53625,-12.01178 4.26316,-23.6585 6.88752,-33.94263 3.43824,-13.50372 7.21647,-26.06447 10.5775,-36.47599 l 0,0 c 3.91562,-12.13095 7.5219,-22.10041 10.29279,-29.01419 l 0,0 c 1.49316,-3.72571 2.7602,-6.60501 3.75146,-8.54971 l 0,0 c 0.50814,-0.99689 0.94235,-1.74516 1.29662,-2.23272 l 0,0 c 0,0 0,0 0,0 0.17907,-0.24643 0.33745,-0.42591 0.47442,-0.53678 l 0,0 0,0 c 0.0688,-0.0557 0.13222,-0.0941 0.19007,-0.11483 0,0 0,0 0,0 0.029,-0.0104 0.0566,-0.0164 0.0828,-0.018 0.027,-0.002 0.0524,0.001 0.0764,0.009 z"
       id="path4292"
       inkscape:path-effect="#path-effect4294"
       inkscape:original-d="m 515.26428,175.4288 c 0,0 -24.05094,73.38953 -28.70972,111.47729 -5.83428,47.69803 1.24502,144.15518 1.24502,144.15518 l -5.49293,2.63539"
       inkscape:connector-curvature="0"
       sodipodi:nodetypes="cacc" />
    <path
       style="fill:#fbff29;fill-opacity:1;fill-rule:evenodd;stroke:none;stroke-width:1px;stroke-linecap:butt;stroke-linejoin:miter;stroke-opacity:1"
       d="m 593.32608,210.44296 c 1.26815,0.67886 -4.25562,13.74666 -14.10601,34.08075 0,0 -10e-6,1e-5 -10e-6,1e-5 -3.77617,8.14441 -8.60518,18.52486 -13.16667,28.97057 -3.54067,8.11721 -7.45046,17.22746 -10.43265,26.3929 -1.82587,5.58486 -3.43638,11.34198 -4.95465,17.35795 -1.39815,5.54003 -2.67803,11.14226 -3.89042,16.551 -3.01427,13.47322 -5.67874,26.85166 -7.94708,38.37305 -3.34044,18.54426 -6.4119,33.91483 -8.8273,44.17161 -0.69967,8.92763 -1.51847,14.10215 -2.38948,14.10215 -0.87198,0 -1.68885,-5.18618 -2.38948,-14.46929 0.78968,-10.48097 2.52359,-26.19501 4.98841,-45.21075 1.74072,-11.82897 3.98556,-25.20152 6.89833,-39.06308 1.15101,-5.48981 2.41331,-11.1847 3.86029,-16.90479 1.56659,-6.19296 3.29232,-12.18952 5.2857,-18.03677 3.34025,-9.75802 7.58248,-18.98949 11.50208,-27.08182 5.16082,-10.67024 10.43245,-20.46687 15.00165,-28.54199 0,0 10e-6,0 10e-6,0 11.48604,-19.52356 19.29898,-31.37044 20.56728,-30.6915 z"
       id="path4296"
       inkscape:path-effect="#path-effect4298"
       inkscape:original-d="m 593.32609,210.44295 c 0,0 -32.08273,57.03286 -42.38819,87.87978 -12.68753,37.97707 -23.32609,117.83451 -23.32609,117.83451 l 0,0 0,14.28571"
       inkscape:connector-curvature="0"
       sodipodi:nodetypes="caccc" />
    <path
       style="fill:#bafb26;fill-opacity:1;fill-rule:evenodd;stroke:none;stroke-width:1px;stroke-linecap:butt;stroke-linejoin:miter;stroke-opacity:1"
       d="m 690.87089,258.45674 c 0.99653,1.15991 -8.67095,11.27154 -24.68168,26.23613 0,0 0,0 0,0 -6.29515,6.0755 -14.43894,13.8865 -22.24764,21.68096 -6.15179,6.14533 -12.95391,12.99951 -18.99044,20.19387 -1.22141,1.45178 -2.43086,2.93312 -3.63363,4.44477 -5.35851,6.73467 -10.43308,13.89191 -15.08997,20.51569 -7.129,10.14956 -14.18089,20.6178 -19.75065,28.83398 l 0,0 c -6.6203,9.76636 -12.05533,17.73005 -16.20212,23.42667 l 0,0 c -2.18143,2.99673 -3.97304,5.31954 -5.31281,6.84875 l 0,0 c -0.6856,0.78255 -1.25489,1.35966 -1.6993,1.71593 l 0,0 c -0.22447,0.17994 -0.41736,0.30375 -0.57754,0.36954 l 0,0 0,0 c -0.0804,0.033 -0.1527,0.0514 -0.21659,0.055 l 0,0 0,0 c -0.0787,-0.0251 -0.12086,-0.0341 -0.14345,-0.0368 -0.0223,-0.003 -0.0254,9.5e-4 -0.0256,0.001 0,0 0,0 0,0 0,0 0,0 0,0 0,0 0,0 0,0 0,0 0,0 0,0 0,0 0,0 0,0 0,0 0,0 0,0 0,0 0,0 0,0 0,0 0,0 0,0 0,0 0,0 0,0 0,0 0,0 0,0 -10e-6,10e-6 -10e-6,10e-6 -10e-6,10e-6 0,0 0,0 0,-10e-6 0,0 0,0 0,0 0,0 0,0 0,0 0,0 0,0 0,0 0,0 0,0 0,0 0,0 0,0 0,0 0,0 0,0 0,0 0,0 0,0 0,0 0,0 0,0 0,0 0,0 0,0 0,0 0,0 0,0 0,0 1.5e-4,-3.2e-4 0.002,-0.005 -0.0118,-0.0228 -0.0136,-0.0182 -0.0426,-0.0502 -0.10368,-0.10572 l 0,0 0,0 c -0.0289,-0.0572 -0.0489,-0.12906 -0.0604,-0.21547 l 0,0 0,0 c -0.0228,-0.17198 -0.0113,-0.40123 0.0338,-0.68604 l 0,0 c 0.0893,-0.56432 0.31013,-1.34541 0.6569,-2.32982 l 0,0 c 0.67874,-1.92682 1.83648,-4.62309 3.43568,-7.98652 l 0,0 c 2.99874,-6.307 7.58611,-15.03706 13.45595,-25.26281 l 0,0 c 5.11882,-8.91818 11.40265,-19.31938 18.53515,-30.05931 4.54126,-6.84562 9.61382,-14.19758 15.2536,-21.28575 1.25958,-1.58306 2.53549,-3.13825 3.83185,-4.66518 6.50696,-7.64523 13.61028,-14.52242 20.08305,-20.53258 8.45323,-7.85737 16.69925,-14.89151 23.76002,-20.64729 0,0 10e-6,-1e-5 10e-6,-1e-5 17.24878,-13.60975 28.70455,-21.64648 29.7012,-20.48642 z"
       id="path4300"
       inkscape:path-effect="#path-effect4302"
       inkscape:original-d="m 690.8709,258.45673 c 0,0 -49.23547,40.63967 -69.73203,64.88864 -23.02926,27.24536 -58.8394,89.39707 -58.8394,89.39707"
       inkscape:connector-curvature="0"
       sodipodi:nodetypes="cac" />
    <path
       style="fill:#000000;fill-rule:evenodd;stroke:none;stroke-width:1px;stroke-linecap:butt;stroke-linejoin:miter;stroke-opacity:1"
       d="m 443.03861,459.44925 c 0.0239,-0.001 0.0483,0.004 0.073,0.0174 0.0242,0.0127 0.0488,0.0323 0.0738,0.0587 0,0 0,0 0,0 0.0497,0.0526 0.10067,0.13235 0.15286,0.23892 l 0,0 0,0 c 0.10373,0.21193 0.21178,0.52914 0.32331,0.95002 l 0,0 c 0.22022,0.83104 0.45158,2.05653 0.68533,3.66787 l 0,0 c 0.45265,3.1203 0.90858,7.63708 1.27242,13.44801 l 0,0 c 0.65133,10.39698 1.06625,25.73204 0.14253,43.68658 l 0,0 c -0.75539,14.79306 -2.43451,33.025 -6.88226,51.59418 -1.8222,7.61537 -4.21297,15.59848 -7.59308,23.44717 l 0,0 c -2.79169,6.52188 -6.42937,13.17622 -11.4336,19.12837 -11.89699,13.96134 -27.72091,24.70287 -45.86286,32.173 -4.52633,1.86376 -9.10113,3.48393 -13.67125,4.87982 -24.28496,7.49001 -48.62408,9.29221 -70.72675,7.35767 -6.36845,-0.56785 -12.39927,-2.066 -17.93341,-3.85707 l 0,0 c -6.72188,-2.1633 -13.0535,-4.83348 -18.88192,-7.59215 -14.15,-6.69506 -26.81348,-14.52443 -36.7937,-21.17946 l 0,0 c -12.08889,-8.05683 -21.80247,-15.50017 -28.22815,-20.7841 l 0,0 c -3.58415,-2.94716 -6.28447,-5.33836 -8.07801,-7.08116 l 0,0 c -0.92684,-0.90063 -1.60499,-1.62215 -2.03195,-2.15578 l 0,0 c -0.21641,-0.27048 -0.36728,-0.49147 -0.45192,-0.66181 l 0,0 c 0,0 0,0 0,0 -0.0427,-0.0857 -0.0685,-0.15848 -0.0773,-0.21813 l 0,0 c -0.004,-0.0299 -0.005,-0.0565 -3.3e-4,-0.0798 0.004,-0.0239 0.0131,-0.0442 0.0264,-0.061 0.0133,-0.0168 0.0311,-0.0301 0.0533,-0.0397 0.0217,-0.009 0.0476,-0.0155 0.0776,-0.0182 l 0,0 c 0.0599,-0.005 0.13646,0.002 0.22944,0.0231 0,0 0,0 0,0 l 0,0 c 0.18474,0.0413 0.43506,0.13401 0.74904,0.2762 l 0,0 c 0.61733,0.27955 1.48745,0.75348 2.59361,1.40343 l 0,0 c 2.1286,1.2507 5.18953,3.18924 9.05672,5.65955 l 0,0 c 6.73756,4.3037 17.37253,11.17795 29.4882,18.30289 l 0,0 c 10.15957,5.97156 22.98706,13.15579 36.78043,19.12714 5.70002,2.4666 11.78149,4.83151 18.07502,6.67307 l 0,0 c 5.20391,1.51303 10.63383,2.75432 16.05582,3.09853 21.08125,1.40588 44.16483,-0.57456 67.06088,-7.72349 4.28863,-1.35273 8.5741,-2.89215 12.80248,-4.63533 16.95021,-6.98786 31.56234,-16.65635 42.34358,-29.17719 4.25879,-4.8647 7.5161,-10.69678 10.22291,-16.61885 l 0,0 c 3.2388,-7.13095 5.6371,-14.59417 7.5742,-21.8363 4.70964,-17.62573 6.9846,-35.47252 8.42485,-49.95233 l 0,0 c 1.72364,-17.39228 2.38196,-33.00427 2.81332,-43.11743 l 0,0 c 0.24451,-5.73616 0.43193,-10.316 0.64431,-13.4073 l 0,0 c 0.11067,-1.61072 0.22993,-2.85488 0.36605,-3.69493 l 0,0 c 0.0693,-0.42741 0.14335,-0.75347 0.22307,-0.97414 l 0,0 0,0 c 0.0402,-0.11127 0.0819,-0.196 0.12518,-0.25372 0,0 0,0 0,0 0.0217,-0.029 0.0439,-0.0512 0.0665,-0.0665 0.023,-0.0157 0.0465,-0.0242 0.0704,-0.0256 z"
       id="path4304"
       inkscape:path-effect="#path-effect4306"
       inkscape:original-d="m 443.03861,459.44924 c 0,0 6.8415,113.73976 -26.85827,153.09217 -28.91198,33.76154 -81.91694,46.40117 -126.2339,42.97325 -42.32137,-3.27358 -112.80476,-59.08821 -112.80476,-59.08821"
       inkscape:connector-curvature="0"
       sodipodi:nodetypes="caac" />
    <path
       style="fill:#11707a;fill-opacity:1;fill-rule:evenodd;stroke:none;stroke-width:1px;stroke-linecap:butt;stroke-linejoin:miter;stroke-opacity:1"
       d="m 279.12366,484.58386 c -0.15904,-0.52862 2.91218,-2.00729 8.7395,-4.27905 0,0 0,0 0,0 4.88125,-1.76931 12.40195,-4.125 21.39864,-5.92572 6.88529,-1.389 15.84244,-2.75223 25.26185,-2.12363 3.65289,0.23846 7.62296,0.85293 11.58555,2.25812 3.31273,1.15718 6.68696,3.06504 9.51074,5.99304 7.54712,8.02958 12.92341,18.56035 15.7766,30.51971 0,0 10e-6,2e-5 10e-6,2e-5 2.79313,11.57025 3.40257,24.03323 1.89371,36.83729 -1.39473,12.02172 -4.63107,24.32603 -10.13171,36.05365 -1.08639,2.33321 -2.27194,4.64988 -3.56291,6.92975 -4.59899,8.12181 -10.35048,15.44977 -17.35235,21.41177 -6.05558,5.0586 -13.07799,8.2706 -19.97461,10.24558 l 0,0 c -8.20124,2.37655 -16.47184,3.34155 -24.25432,3.63372 l 0,0 c -19.39731,0.74062 -37.98508,-2.1986 -52.86849,-5.29524 l 0,0 c -18.4289,-3.81839 -34.02454,-8.65319 -44.44399,-12.33439 l 0,0 c -5.88465,-2.07864 -10.42423,-3.90245 -13.5207,-5.31365 l 0,0 c -1.6028,-0.73046 -2.80657,-1.34527 -3.60423,-1.83055 l 0,0 c -0.40416,-0.24589 -0.70143,-0.45698 -0.89027,-0.63171 l 0,0 0,0 c -0.0951,-0.088 -0.16255,-0.16656 -0.20195,-0.23545 l 0,0 0,0 c -0.0198,-0.0342 -0.0325,-0.0666 -0.0381,-0.0962 -0.003,-0.0149 -0.004,-0.0291 -0.003,-0.0427 7.7e-4,-0.0141 0.003,-0.0274 0.008,-0.0402 0.005,-0.0127 0.011,-0.0247 0.0194,-0.0361 0.008,-0.011 0.0179,-0.0213 0.0296,-0.031 0.0231,-0.0193 0.0534,-0.0363 0.0903,-0.0503 l 0,0 0,0 c 0.0738,-0.0284 0.17519,-0.047 0.3036,-0.056 l 0,0 0,0 c 0.255,-0.0176 0.61803,0.003 1.08467,0.0587 l 0,0 c 0.91629,0.10984 2.24752,0.35912 3.95277,0.72512 l 0,0 c 3.26442,0.70065 8.0609,1.86711 14.03565,3.28838 l 0,0 c 10.44741,2.48467 26.55786,6.28314 44.54974,9.15894 l 0,0 c 14.69969,2.33768 32.87635,4.61802 51.036,3.49155 7.29038,-0.45747 14.81262,-1.44253 21.94051,-3.64741 l 0,0 c 5.94549,-1.86316 11.76281,-4.52082 16.32916,-8.50367 5.95589,-5.06785 10.92202,-11.51981 15.05032,-18.80878 1.15873,-2.04586 2.23853,-4.1349 3.2448,-6.24652 5.03125,-10.64222 8.07668,-21.91478 9.51368,-32.9819 1.50891,-11.80118 1.20345,-23.14705 -1.08089,-33.61467 0,0 -10e-6,-10e-6 -10e-6,-10e-6 -2.38027,-10.75596 -6.65623,-20.09761 -12.87297,-27.12643 -1.5533,-1.86042 -3.868,-3.2404 -6.29904,-4.2774 -2.98031,-1.24705 -6.29267,-1.90199 -9.5225,-2.31086 -8.34011,-1.04047 -16.97173,-0.28282 -23.72196,0.50316 -8.5932,1.01155 -16.55307,2.56597 -21.39697,3.48818 0,0 0,10e-6 0,10e-6 -6.07805,1.31022 -9.4547,1.77138 -9.61373,1.24283 z"
       id="path4310"
       inkscape:path-effect="#path-effect4312"
       inkscape:original-d="m 279.12365,484.58386 c 0,0 56.98726,-19.45476 73.52525,-1.36158 28.33694,31.00167 18.36724,98.04078 -13.61579,125.26525 -39.79875,33.87733 -156.58156,-8.16947 -156.58156,-8.16947"
       inkscape:connector-curvature="0"
       sodipodi:nodetypes="caac" />
    <path
       style="fill:#ba2a5b;fill-opacity:1;fill-rule:evenodd;stroke:none;stroke-width:1px;stroke-linecap:butt;stroke-linejoin:miter;stroke-opacity:1"
       d="m 182.44528,603.04553 c 0.0228,0.0329 0.0395,0.07 0.0502,0.11099 0.006,0.0433 0.005,0.0919 -0.004,0.14575 0,0 0,0 0,0 -0.0183,0.10748 -0.0675,0.23604 -0.14683,0.38509 0,0 0,0 0,0 l 0,0 c -0.15775,0.29679 -0.4353,0.67628 -0.82541,1.1341 l 0,0 c -0.77283,0.90697 -1.99937,2.13516 -3.61346,3.64714 l 0,0 c -3.14023,2.94159 -7.94097,7.13151 -13.7501,12.19125 l 0,0 c -11.0637,9.63753 -26.63814,23.12118 -42.96277,39.08181 -4.79269,4.69291 -9.72523,9.64261 -14.59769,14.78218 -11.453231,12.08112 -20.814117,23.3651 -28.725406,34.82537 0,0 -3e-6,0 -3e-6,0 l 0,0 c -6.489466,9.40962 -11.051087,17.55205 -14.398619,25.47308 l 0,0 c -5.280322,12.55863 -5.804439,20.17538 -6.67506,24.74926 l 0,0 0,10e-6 0,-10e-6 c -0.249852,-0.15937 -0.04365,0.13664 0.09559,0.47026 l 0,0 10e-7,0 0,0 c 0.109972,0.20522 0.198304,0.36169 0.25993,0.51433 l 0,0 c 0.03231,0.0833 0.05357,0.15892 0.0617,0.22598 l 0,0 c -0.04347,0.16454 -0.02925,0.1987 -0.02713,0.20165 0,0 1e-6,0 1e-6,0 4.3e-4,6e-4 3.17e-4,5.8e-4 3.17e-4,5.8e-4 0,0 7.9e-5,8e-5 -6.64e-4,4e-5 0,0 0,0 0,0 -0.0039,-2.1e-4 -0.04018,0.006 -0.157968,0.1276 l 0,0 c -0.06507,0.0249 -0.147566,0.0387 -0.247818,0.0396 l 0,0 c -0.166102,0.003 -0.391139,-0.0297 -0.657436,-0.12299 l 0,0 -10e-7,0 0,0 c -0.297186,-0.0485 -0.929447,-0.2618 -1.268864,-1.35458 l 10e-7,0 -2e-6,0 0,0 c -1.179839,-4.03222 -2.03327,-13.70735 2.174977,-27.19242 l 0,0 c 2.709302,-8.73825 7.015921,-17.97835 13.332074,-28.06398 l 10e-7,0 c 0,0 3e-6,-10e-6 3e-6,-10e-6 7.679715,-12.27575 17.25079,-24.41046 28.967817,-36.77982 5.013292,-5.2924 10.099182,-10.29121 15.083542,-14.97 17.05123,-16.03046 33.48819,-28.66171 45.74748,-37.14829 l 0,0 c 6.46402,-4.4754 11.78709,-7.80436 15.65037,-9.93671 l 1e-5,0 c 1.95713,-1.08024 3.51709,-1.84014 4.64338,-2.27132 l 0,0 c 0.56584,-0.21662 1.01883,-0.34895 1.35407,-0.39515 l 0,0 c 0,0 0,0 0,0 0.16792,-0.0231 0.30593,-0.0246 0.41342,-0.004 0,0 0,0 0,0 0.0538,0.0103 0.0999,0.026 0.13826,0.0473 0.0347,0.0244 0.0635,0.0531 0.0863,0.0861 z"
       id="path4318"
       inkscape:path-effect="#path-effect4320"
       inkscape:original-d="m 182.45155,603.04121 c 0,0 -130.161914,89.54951 -126.626821,156.58156 0.0338,0.64096 1.361579,1.36158 1.361579,1.36158"
       inkscape:connector-curvature="0"
       sodipodi:nodetypes="csc" />
    <ellipse
       style="opacity:1;fill:#082f47;fill-opacity:1;stroke:#000000;stroke-width:0.1;stroke-miterlimit:4;stroke-dasharray:none;stroke-opacity:1"
       id="path4322"
       cx="398.9426"
       cy="255.83864"
       rx="50.378414"
       ry="53.10157" />
    <circle
       style="opacity:1;fill:#ffffff;fill-opacity:1;stroke:#000000;stroke-width:0.1;stroke-miterlimit:4;stroke-dasharray:none;stroke-opacity:1"
       id="path4326"
       cx="409.83521"
       cy="235.41495"
       r="13.615788" />
    <path
       style="fill:#000000;fill-rule:evenodd;stroke:none;stroke-width:1px;stroke-linecap:butt;stroke-linejoin:miter;stroke-opacity:1"
       d="m 444.2917,436.40088 c -0.76177,1.02973 -6.12198,-0.91286 -12.97998,-6.96272 -7.06095,-6.22889 -14.48277,-15.79771 -20.22286,-28.90522 -1.71491,-3.916 -3.12514,-7.7963 -4.27474,-11.53963 -1.2315,-4.00308 -1.61359,-7.86354 -1.75588,-11.13388 l 0,0 c -0.22002,-4.35774 -0.0598,-8.4059 0.23162,-11.79269 l 0,0 c 0.32762,-3.82948 0.84429,-7.05575 1.41297,-9.4647 l 0,0 0,0 0,0 c 0.26384,-1.11794 0.5402,-2.06768 0.82337,-2.83961 l 0,0 c 0.10296,-0.28067 0.20636,-0.53733 0.31071,-0.77023 l 0,0 c 0.31157,0.15933 0.59711,0.29918 0.85788,0.42077 l 0,0 c 0,0 0,0 0,0 0.0132,-0.0133 0.0261,-0.0267 0.0389,-0.0401 0,0 0,0 0,0 0.002,-0.002 0.0114,-0.0122 0.0136,-0.0146 0,0 0,0 0,0 -0.26269,0.41797 -0.80383,0.19569 -0.91401,-0.21458 -0.10804,-0.4023 0.25771,-0.88523 1.71595,-0.92087 0,4e-5 0,4e-5 0,4e-5 0.012,0.0242 -6.3e-4,-0.001 0.0113,0.0229 0,0 0,0 0,0 0.0106,0.0213 0.0215,0.0429 0.0326,0.065 10e-6,0 10e-6,0 10e-6,0 l 0,0 c 0.25317,0.25278 0.53062,0.52769 0.83451,0.82681 l 0,0 c 0.0778,0.23585 0.15451,0.49632 0.22944,0.77936 l 0,0 c 0.20573,0.77706 0.40211,1.731 0.59097,2.83692 l 0,0 0,0 0,0 c 0.41511,2.43046 0.78281,5.50354 1.21571,9.21651 l 0,0 c 0.36969,3.16306 0.81759,7.15515 1.43287,10.98075 0.50235,3.01219 1.04989,6.2332 2.094,8.91742 1.29332,3.43125 2.72501,7.00651 4.31322,10.62403 5.43133,12.37115 10.82411,21.00125 16.15363,28.17037 4.94036,6.64562 8.70256,10.56416 7.83423,11.73793 z"
       id="path4328"
       inkscape:path-effect="#path-effect4330"
       inkscape:original-d="m 444.2917,436.40088 c -16.47962,-12.19126 -26.55106,-30.35633 -32.88933,-48.96995 -3.72989,-10.95355 -2.25412,-34.64032 -2.25412,-34.64032 l 0,0 -1.31498,0.35316"
       inkscape:connector-curvature="0"
       sodipodi:nodetypes="caaac" />
    <path
       sodipodi:nodetypes="cssc"
       inkscape:connector-curvature="0"
       inkscape:original-d="m 182.45155,603.04121 c -70.18871,-12.20673 -113.079862,-3.27922 -136.283924,16.64102 -37.5096027,32.20128 -23.574762,93.12774 9.657103,139.94054 0.371543,0.52338 1.361579,1.36158 1.361579,1.36158"
       inkscape:path-effect="#path-effect4334"
       id="path4332"
       d="m 182.45155,603.04121 c -0.19209,1.10449 -8.99842,0.18945 -24.1219,-0.81524 -14.18669,-0.94246 -37.38305,-2.2106 -60.99795,1.58252 -15.964745,2.62611 -34.370347,7.81722 -47.910791,19.66332 -1.622605,1.39475 -3.175351,2.89154 -4.648612,4.48165 -5.984549,6.45918 -10.352843,14.12155 -12.90824,22.0692 -3.615988,11.09372 -3.960053,22.9264 -2.914246,33.62414 1.39536,14.04128 5.364168,27.02352 9.361192,37.50303 6.203724,16.35385 17.606045,36.7743 18.128126,37.95405 0.634166,0.98953 0.918719,1.64491 0.76097,1.86454 0,0 -1e-6,0 -1e-6,0 -0.0136,0.016 -0.01379,0.0159 -0.01379,0.0159 0,0 1.34e-4,2e-4 -0.01478,0.0151 0,0 -1e-6,0 -1e-6,0 -0.204445,0.17338 -0.848809,-0.10111 -1.961195,-0.85778 -3.354528,-3.11288 -14.169672,-16.09354 -23.478681,-36.21906 -4.896442,-10.62103 -9.709712,-24.05896 -11.745205,-39.22304 -1.569587,-11.56766 -1.430155,-24.68794 2.507408,-37.62261 2.883703,-9.35405 7.917284,-18.32274 14.947203,-25.91412 1.729706,-1.86786 3.557759,-3.62751 5.473289,-5.27018 16.031187,-13.53947 36.109701,-18.99219 53.134647,-21.07293 25.24398,-3.17444 48.48853,-0.49152 62.92554,1.97672 15.15422,2.59086 23.62805,5.37636 23.47702,6.24477 z"
       style="fill:#ba2a5b;fill-opacity:1;fill-rule:evenodd;stroke:none;stroke-width:1px;stroke-linecap:butt;stroke-linejoin:miter;stroke-opacity:1" />
    <path
       style="fill:#ba2a5b;fill-opacity:1;fill-rule:evenodd;stroke:none;stroke-width:1px;stroke-linecap:butt;stroke-linejoin:miter;stroke-opacity:1"
       d="m 431.62047,131.93496 c -2.74181,-0.31636 -3.13708,-16.43279 -0.88231,-35.974168 2.25477,-19.541378 6.30997,-35.144289 9.05178,-34.827927 2.74181,0.316362 3.13708,16.43279 0.88231,35.974168 -2.25477,19.541377 -6.30997,35.144287 -9.05178,34.827927 z"
       id="path4336"
       inkscape:path-effect="#path-effect4338"
       inkscape:original-d="m 431.62047,131.93496 8.16947,-70.802095"
       inkscape:connector-curvature="0" />
    <path
       style="fill:#f16901;fill-opacity:1;fill-rule:evenodd;stroke:none;stroke-width:1px;stroke-linecap:butt;stroke-linejoin:miter;stroke-opacity:1"
       d="m 324.60238,659.934 c 1.0527,-2.0274 41.0856,17.99105 99.71208,50.15927 -21.14053,18.75629 -44.39025,39.24898 -70.0155,61.77296 -14.14666,12.43458 -28.38571,24.93316 -41.34149,36.30379 0,0 0,-2e-5 0,-2e-5 4.05138,-86.1088 8.71541,-148.45267 11.64491,-148.236 2.94371,0.21772 -1.60709,62.07884 -10.04229,144.99101 0,0 0,10e-6 0,10e-6 12.15668,-10.97423 25.50061,-23.01957 38.70112,-34.91829 23.95489,-21.59257 45.73606,-41.1684 66.03805,-59.28778 -56.7317,-27.74262 -95.75476,-48.74758 -94.69688,-50.78495 z"
       id="path4340"
       inkscape:path-effect="#path-effect4342"
       inkscape:original-d="m 324.60238,659.934 97.20448,50.47211 -108.04808,96.14141 z"
       inkscape:connector-curvature="0" />
    <path
       inkscape:connector-curvature="0"
       inkscape:original-d="M 431.44319,130.08406 467.1988,68.430081"
       inkscape:path-effect="#path-effect4346"
       id="path4344"
       d="m 431.44319,130.08406 c -2.38755,-1.38463 3.68399,-16.31889 13.55254,-33.335386 9.86854,-17.016498 19.81552,-29.703228 22.20307,-28.318593 2.38755,1.384635 -3.68399,16.318888 -13.55254,33.335389 -9.86854,17.0165 -19.81552,29.70322 -22.20307,28.31859 z"
       style="fill:#bafb26;fill-opacity:1;fill-rule:evenodd;stroke:none;stroke-width:1px;stroke-linecap:butt;stroke-linejoin:miter;stroke-opacity:1" />
    <path
       style="opacity:1;fill:none;fill-opacity:1;stroke:none;stroke-width:0.1;stroke-miterlimit:4;stroke-dasharray:none;stroke-opacity:1"
       d="m 316.17929,797.14628 c 0.005,-2.49623 1.1918,-16.48645 2.63791,-31.08938 2.96778,-29.96881 6.75079,-78.82103 7.24,-93.49422 l 0.32531,-9.75713 8.16947,4.85504 c 4.49321,2.67027 25.11916,13.51515 45.83545,24.09973 l 37.66597,19.24469 -49.83804,44.88607 c -27.41092,24.68734 -50.33453,45.09031 -50.94136,45.33993 -0.60684,0.24963 -1.09945,-1.5885 -1.09471,-4.08473 z"
       id="path4348"
       inkscape:connector-curvature="0" />
  </g>
</svg>
