<?xml version="1.0" encoding="UTF-8" standalone="no"?>
<!-- Created with Inkscape (http://www.inkscape.org/) -->

<svg
   xmlns:dc="http://purl.org/dc/elements/1.1/"
   xmlns:cc="http://creativecommons.org/ns#"
   xmlns:rdf="http://www.w3.org/1999/02/22-rdf-syntax-ns#"
   xmlns:svg="http://www.w3.org/2000/svg"
   xmlns="http://www.w3.org/2000/svg"
   xmlns:sodipodi="http://sodipodi.sourceforge.net/DTD/sodipodi-0.dtd"
   xmlns:inkscape="http://www.inkscape.org/namespaces/inkscape"
   width="195.18445mm"
   height="57.315285mm"
   viewBox="0 0 691.59844 203.08565"
   id="svg5188"
   version="1.1"
   inkscape:version="0.91 r13725"
   sodipodi:docname="Targeta Lori.svg">
  <defs
     id="defs5190">
    <inkscape:path-effect
       effect="skeletal"
       id="path-effect5419"
       is_visible="true"
       pattern="m 0.52837571,-86.084817 c 0,-2.76 2.23999999,-5 4.99999999,-5 2.76,0 5.0000003,2.24 5.0000003,5 0,2.76 -2.2400003,5 -5.0000003,5 -2.76,0 -4.99999999,-2.24 -4.99999999,-5 z"
       copytype="single_stretched"
       prop_scale="1"
       scale_y_rel="false"
       spacing="0"
       normal_offset="0"
       tang_offset="0"
       prop_units="false"
       vertical_pattern="false"
       fuse_tolerance="0" />
    <inkscape:path-effect
       effect="skeletal"
       id="path-effect5415"
       is_visible="true"
       pattern="m 34.814076,-140.37052 c 0,-2.76 2.24,-5 5,-5 2.76,0 5,2.24 5,5 0,2.76 -2.24,5 -5,5 -2.76,0 -5,-2.24 -5,-5 z"
       copytype="single_stretched"
       prop_scale="1"
       scale_y_rel="false"
       spacing="0"
       normal_offset="0"
       tang_offset="0"
       prop_units="false"
       vertical_pattern="false"
       fuse_tolerance="0" />
    <inkscape:path-effect
       effect="skeletal"
       id="path-effect5412"
       is_visible="true"
       pattern="m 0.52837571,-86.084817 c 0,-2.76 2.23999999,-5 4.99999999,-5 2.76,0 5.0000003,2.24 5.0000003,5 0,2.76 -2.2400003,5 -5.0000003,5 -2.76,0 -4.99999999,-2.24 -4.99999999,-5 z"
       copytype="single_stretched"
       prop_scale="1"
       scale_y_rel="false"
       spacing="0"
       normal_offset="0"
       tang_offset="0"
       prop_units="false"
       vertical_pattern="false"
       fuse_tolerance="0" />
    <inkscape:path-effect
       effect="skeletal"
       id="path-effect5409"
       is_visible="true"
       pattern="m 0.52837571,-86.084817 c 0,-2.76 2.23999999,-5 4.99999999,-5 2.76,0 5.0000003,2.24 5.0000003,5 0,2.76 -2.2400003,5 -5.0000003,5 -2.76,0 -4.99999999,-2.24 -4.99999999,-5 z"
       copytype="single_stretched"
       prop_scale="1"
       scale_y_rel="false"
       spacing="0"
       normal_offset="0"
       tang_offset="0"
       prop_units="false"
       vertical_pattern="false"
       fuse_tolerance="0" />
    <inkscape:path-effect
       fuse_tolerance="0"
       vertical_pattern="false"
       prop_units="false"
       tang_offset="0"
       normal_offset="0"
       spacing="0"
       scale_y_rel="false"
       prop_scale="1"
       copytype="single_stretched"
       pattern="m 0.52837571,-86.084817 c 0,-2.76 2.23999999,-5 4.99999999,-5 2.76,0 5.0000003,2.24 5.0000003,5 0,2.76 -2.2400003,5 -5.0000003,5 -2.76,0 -4.99999999,-2.24 -4.99999999,-5 z"
       is_visible="true"
       id="path-effect5406"
       effect="skeletal" />
    <inkscape:path-effect
       fuse_tolerance="0"
       vertical_pattern="false"
       prop_units="false"
       tang_offset="0"
       normal_offset="0"
       spacing="0"
       scale_y_rel="false"
       prop_scale="1"
       copytype="single_stretched"
       pattern="m 1.4149066,-132.26169 c 0,-2.76 2.24,-5 5,-5 2.76,0 5.0000004,2.24 5.0000004,5 0,2.76 -2.2400004,5 -5.0000004,5 -2.76,0 -5,-2.24 -5,-5 z"
       is_visible="true"
       id="path-effect5403"
       effect="skeletal" />
    <inkscape:path-effect
       effect="skeletal"
       id="path-effect5793"
       is_visible="true"
       pattern="m 1.4149066,-132.26169 c 0,-2.76 2.24,-5 5,-5 2.76,0 5.0000004,2.24 5.0000004,5 0,2.76 -2.2400004,5 -5.0000004,5 -2.76,0 -5,-2.24 -5,-5 z"
       copytype="single_stretched"
       prop_scale="1"
       scale_y_rel="false"
       spacing="0"
       normal_offset="0"
       tang_offset="0"
       prop_units="false"
       vertical_pattern="false"
       fuse_tolerance="0" />
    <inkscape:path-effect
       effect="skeletal"
       id="path-effect5788"
       is_visible="true"
       pattern="m 0.52837571,-132.08482 c 0,-2.76 2.23999999,-5 4.99999999,-5 2.76,0 5.0000003,2.24 5.0000003,5 0,2.76 -2.2400003,5 -5.0000003,5 -2.76,0 -4.99999999,-2.24 -4.99999999,-5 z"
       copytype="single_stretched"
       prop_scale="1"
       scale_y_rel="false"
       spacing="0"
       normal_offset="0"
       tang_offset="0"
       prop_units="false"
       vertical_pattern="false"
       fuse_tolerance="0" />
    <inkscape:path-effect
       effect="skeletal"
       id="path-effect5152"
       is_visible="true"
       pattern="m 0.52837571,-86.084817 c 0,-2.76 2.23999999,-5 4.99999999,-5 2.76,0 5.0000003,2.24 5.0000003,5 0,2.76 -2.2400003,5 -5.0000003,5 -2.76,0 -4.99999999,-2.24 -4.99999999,-5 z"
       copytype="single_stretched"
       prop_scale="1"
       scale_y_rel="false"
       spacing="0"
       normal_offset="0"
       tang_offset="0"
       prop_units="false"
       vertical_pattern="false"
       fuse_tolerance="0" />
    <inkscape:path-effect
       fuse_tolerance="0"
       vertical_pattern="false"
       prop_units="false"
       tang_offset="0"
       normal_offset="0"
       spacing="0"
       scale_y_rel="false"
       prop_scale="1"
       copytype="single_stretched"
       pattern="m 0.52837571,-86.084817 c 0,-2.76 2.23999999,-5 4.99999999,-5 2.76,0 5.0000003,2.24 5.0000003,5 0,2.76 -2.2400003,5 -5.0000003,5 -2.76,0 -4.99999999,-2.24 -4.99999999,-5 z"
       is_visible="true"
       id="path-effect5140"
       effect="skeletal" />
    <inkscape:path-effect
       fuse_tolerance="0"
       vertical_pattern="false"
       prop_units="false"
       tang_offset="0"
       normal_offset="0"
       spacing="0"
       scale_y_rel="false"
       prop_scale="1"
       copytype="single_stretched"
       pattern="m 0.52837571,-86.084817 c 0,-2.76 2.23999999,-5 4.99999999,-5 2.76,0 5.0000003,2.24 5.0000003,5 0,2.76 -2.2400003,5 -5.0000003,5 -2.76,0 -4.99999999,-2.24 -4.99999999,-5 z"
       is_visible="true"
       id="path-effect5136"
       effect="skeletal" />
    <inkscape:path-effect
       fuse_tolerance="0"
       vertical_pattern="false"
       prop_units="false"
       tang_offset="0"
       normal_offset="0"
       spacing="0"
       scale_y_rel="false"
       prop_scale="1"
       copytype="single_stretched"
       pattern="m 34.814076,-140.37052 c 0,-2.76 2.24,-5 5,-5 2.76,0 5,2.24 5,5 0,2.76 -2.24,5 -5,5 -2.76,0 -5,-2.24 -5,-5 z"
       is_visible="true"
       id="path-effect5132"
       effect="skeletal" />
    <inkscape:path-effect
       fuse_tolerance="0"
       vertical_pattern="false"
       prop_units="false"
       tang_offset="0"
       normal_offset="0"
       spacing="0"
       scale_y_rel="false"
       prop_scale="1"
       copytype="single_stretched"
       pattern="m 0.52837571,-132.08482 c 0,-2.76 2.23999999,-5 4.99999999,-5 2.76,0 5.0000003,2.24 5.0000003,5 0,2.76 -2.2400003,5 -5.0000003,5 -2.76,0 -4.99999999,-2.24 -4.99999999,-5 z"
       is_visible="true"
       id="path-effect5116"
       effect="skeletal" />
  </defs>
  <sodipodi:namedview
     id="base"
     pagecolor="#ffffff"
     bordercolor="#666666"
     borderopacity="1.0"
     inkscape:pageopacity="0.0"
     inkscape:pageshadow="2"
     inkscape:zoom="1.5394782"
     inkscape:cx="386.93927"
     inkscape:cy="92.993246"
     inkscape:document-units="px"
     inkscape:current-layer="layer1"
     showgrid="false"
     inkscape:window-width="1920"
     inkscape:window-height="955"
     inkscape:window-x="0"
     inkscape:window-y="1"
     inkscape:window-maximized="1"
     fit-margin-top="0"
     fit-margin-left="0"
     fit-margin-right="0"
     fit-margin-bottom="0" />
  <metadata
     id="metadata5193">
    <rdf:RDF>
      <cc:Work
         rdf:about="">
        <dc:format>image/svg+xml</dc:format>
        <dc:type
           rdf:resource="http://purl.org/dc/dcmitype/StillImage" />
        <dc:title />
      </cc:Work>
    </rdf:RDF>
  </metadata>
  <g
     inkscape:label="Capa 1"
     inkscape:groupmode="layer"
     id="layer1"
     transform="translate(-20.654094,-9.0727603)">
    <g
       id="g5590"
       transform="translate(5.5939078,-13.810038)">
      <path
         sodipodi:nodetypes="scccccssssssssccccscccs"
         inkscape:connector-curvature="0"
         id="rect5164"
         d="m 141.1534,8.6573962 c -3.72331,0.029284 -7.99465,0.7355722 -11.51653,1.7750268 -4.49743,1.325621 -9.99472,5.004074 -13.5,7.913852 -3.67836,3.272445 -5.36624,5.966438 -8.07446,9.293951 -1.75569,2.481425 -5.41863,8.861389 -7.14596,13.353433 -0.32744,0.851919 -0.38611,0.383648 -1.313501,2.947932 l -79.99474,0 c -0.35989,0 -0.649646,0.286985 -0.649646,0.643433 l 0,166.579346 c 0,0.35644 0.289756,0.64342 0.649646,0.64342 l 212.644051,0 c 0.35989,0 0.64965,-0.28698 0.64965,-0.64342 l 0,-166.579346 c 0,-0.356448 -0.28983,-0.637022 -0.64965,-0.643433 l -7.79303,-0.138853 c -2.37584,-2.420818 -7.35451,-5.185106 -7.35451,-5.185106 -3.97336,-1.889324 -7.60536,-3.580137 -11.81087,-4.867228 -3.99557,-1.227943 -6.39277,-1.446129 -10.37031,-2.693283 -0.93727,-0.294475 -4.88801,-0.947862 -5.81809,-1.262167 -3.15099,-1.064844 -12.02995,-3.870981 -14.92765,-5.31519 -3.86303,-1.935291 -6.69478,-4.216828 -7.90608,-5.074348 -3.7835,-3.139993 -10.57816,-9.8244697 -19.57841,-10.3077027 -0.86109,-0.044364 -4.68068,-0.4470748 -5.53991,-0.4403171 z"
         style="opacity:1;fill:none;fill-opacity:1;stroke:#000000;stroke-width:0.7012248;stroke-linejoin:round;stroke-miterlimit:4;stroke-dasharray:none;stroke-opacity:1" />
      <g
         transform="translate(-44.457496,-212.79901)"
         style="fill:none;stroke:#0000ff;stroke-opacity:1"
         id="g5447">
        <path
           style="fill:none;fill-rule:evenodd;stroke:#0000ff;stroke-width:1px;stroke-linecap:butt;stroke-linejoin:miter;stroke-opacity:1"
           d="m 112.42779,364.14275 c 13.30971,11.66184 18.54677,14.481 29.66165,16.98573 9.13641,2.05889 19.45301,1.64324 28.0138,-2.1549 8.08678,-3.58783 15.49538,-10.25081 19.2674,-18.25333 5.52562,-11.72286 2.66195,-38.78833 2.66195,-38.78833"
           id="path5433"
           inkscape:connector-curvature="0"
           sodipodi:nodetypes="csssc" />
        <path
           style="fill:none;fill-rule:evenodd;stroke:#0000ff;stroke-width:1px;stroke-linecap:butt;stroke-linejoin:miter;stroke-opacity:1"
           d="m 113.06158,364.64978 c 0,0 31.43863,12.33289 45.25305,5.95769 6.62957,-3.05947 10.68005,-11.18387 11.91537,-18.38009 1.4114,-8.22191 0.91255,-19.42683 -5.83093,-24.33778 -5.78936,-4.21611 -21.42231,1.64787 -21.42231,1.64787 l 0,0 0.12676,0"
           id="path5435"
           inkscape:connector-curvature="0"
           sodipodi:nodetypes="csssccc" />
        <path
           style="fill:none;fill-rule:evenodd;stroke:#0000ff;stroke-width:1px;stroke-linecap:butt;stroke-linejoin:miter;stroke-opacity:1"
           d="m 112.17427,364.64978 c 0,0 -25.743927,20.83502 -33.844721,34.85879 -2.241176,3.87983 -4.309814,13.05621 -4.309814,13.05621"
           id="path5437"
           inkscape:connector-curvature="0"
           sodipodi:nodetypes="csc" />
        <path
           style="fill:none;fill-rule:evenodd;stroke:#0000ff;stroke-width:1px;stroke-linecap:butt;stroke-linejoin:miter;stroke-opacity:1"
           d="m 74.019735,412.1845 c 0,0 -6.11716,-10.72741 -7.732314,-16.73222 -1.321562,-4.91331 -3.017629,-10.43361 -1.267592,-15.21111 2.569143,-7.01362 8.955604,-12.95893 15.844905,-15.84491 9.743252,-4.08152 31.689806,-0.25351 31.689806,-0.25351 0,0 18.60372,-16.53009 23.70398,-27.50676 3.60621,-7.76121 3.02087,-16.85662 4.0563,-25.35185 2.19571,-18.01486 -1.97192,-37.3223 4.56333,-54.25295 4.55878,-11.81027 12.11714,-23.82081 23.07018,-30.1687 7.74497,-4.48864 17.86822,-5.43304 26.61944,-3.54926 8.75707,1.88504 14.81594,10.16864 22.81667,14.19703 16.63715,8.37687 38.613,7.55336 51.97129,20.535 3.23078,3.13968 4.78141,7.95013 5.32388,12.42241 1.00039,8.24741 -0.87122,16.91823 -4.05629,24.59129 -3.55154,8.5559 -16.22518,22.56314 -16.22518,22.56314 0,0 -22.0658,-13.07229 -34.225,-12.67592 -10.35951,0.33771 -18.38233,9.99289 -28.39407,12.67592 -3.93924,1.05567 -8.09151,1.35154 -12.16889,1.2676 -11.69758,-0.24082 -34.73203,-5.07037 -34.73203,-5.07037"
           id="path5439"
           inkscape:connector-curvature="0"
           sodipodi:nodetypes="cssscssssssssscsssc" />
      </g>
      <g
         transform="translate(-0.5303301,-40.481864)"
         id="g5572">
        <path
           sodipodi:nodetypes="ccacaacc"
           inkscape:connector-curvature="0"
           id="path5461"
           d="m 75.776397,221.4899 c -0.06943,2.8513 -0.129553,5.71826 0.192001,8.55667 0.266141,2.0594 1.498602,3.96531 3.108801,5.16977 1.325802,0.99172 3.135026,1.36588 4.806323,1.25326 1.50487,-0.15212 2.801698,-1.06621 3.856076,-2.07576 0.937793,-0.89792 1.588974,-2.11255 1.993419,-3.3463 0.412176,-1.25733 0.309855,-2.63393 0.381666,-3.95112 0.01401,-1.91691 0.01225,-3.83392 0.0011,-5.75084"
           style="fill:none;fill-rule:evenodd;stroke:#000000;stroke-width:1px;stroke-linecap:butt;stroke-linejoin:miter;stroke-opacity:1" />
        <path
           style="fill:none;fill-rule:evenodd;stroke:#000000;stroke-width:1px;stroke-linecap:butt;stroke-linejoin:miter;stroke-opacity:1"
           d="m 59.245422,236.75384 0.180858,-13.38329 6.691647,11.93645 7.143785,-12.56945 0,13.83543"
           id="path5463"
           inkscape:connector-curvature="0"
           sodipodi:nodetypes="ccccc" />
        <path
           sodipodi:nodetypes="ccccc"
           inkscape:connector-curvature="0"
           id="path5465"
           d="m 92.703656,237.02512 0.180858,-13.38329 6.691647,11.93645 7.143789,-12.56945 0,13.83543"
           style="fill:none;fill-rule:evenodd;stroke:#000000;stroke-width:1px;stroke-linecap:butt;stroke-linejoin:miter;stroke-opacity:1" />
        <path
           style="fill:none;fill-rule:evenodd;stroke:#000000;stroke-width:1px;stroke-linecap:butt;stroke-linejoin:miter;stroke-opacity:1"
           d="m 108.89021,236.84427 8.13849,-15.19185 8.22891,15.46313"
           id="path5467"
           inkscape:connector-curvature="0" />
        <path
           style="fill:none;fill-rule:evenodd;stroke:#000000;stroke-width:1px;stroke-linecap:butt;stroke-linejoin:miter;stroke-opacity:1"
           d="m 127.5183,220.20558 0,16.90997 0.27128,0 -0.27128,0"
           id="path5469"
           inkscape:connector-curvature="0" />
        <path
           style="fill:none;fill-rule:evenodd;stroke:#000000;stroke-width:1px;stroke-linecap:butt;stroke-linejoin:miter;stroke-opacity:1"
           d="m 141.98673,220.296 -10.85132,10.67047 11.03217,11.1226"
           id="path5471"
           inkscape:connector-curvature="0" />
        <path
           style="fill:none;fill-rule:evenodd;stroke:#000000;stroke-width:1px;stroke-linecap:butt;stroke-linejoin:miter;stroke-opacity:1"
           d="m 156.54558,220.83857 -12.11731,-0.0904 0,15.91527 12.11731,0"
           id="path5473"
           inkscape:connector-curvature="0" />
        <path
           style="fill:none;fill-rule:evenodd;stroke:#000000;stroke-width:1px;stroke-linecap:butt;stroke-linejoin:miter;stroke-opacity:1"
           d="m 147.05068,231.68989 9.58533,-0.0904"
           id="path5475"
           inkscape:connector-curvature="0" />
        <path
           style="fill:none;fill-rule:evenodd;stroke:#000000;stroke-width:1px;stroke-linecap:butt;stroke-linejoin:miter;stroke-opacity:1"
           d="m 158.71584,236.84427 0,-16.0057 c 0,0 3.70337,-0.21903 5.51609,0.0904 0.75168,0.12831 1.39323,0.25599 2.17026,0.72342 0.6395,0.3847 1.51253,0.91586 1.98941,1.6277 0.40333,0.60206 0.52634,1.36305 0.633,2.07983 0.11979,0.80499 0.14168,1.64013 0,2.44155 -0.13096,0.74076 -0.33053,1.51214 -0.77374,2.11995 -0.39234,0.53805 -0.97858,0.93454 -1.57738,1.22587 -0.78229,0.38061 -2.53198,0.633 -2.53198,0.633 l -1.53727,0.0905 5.15438,5.06394"
           id="path5477"
           inkscape:connector-curvature="0"
           sodipodi:nodetypes="ccssssaaaccc" />
        <path
           inkscape:connector-curvature="0"
           id="path5479"
           d="m 204.56267,220.74814 -12.11731,-0.0904 0,15.91527 12.11731,0"
           style="fill:none;fill-rule:evenodd;stroke:#000000;stroke-width:1px;stroke-linecap:butt;stroke-linejoin:miter;stroke-opacity:1" />
        <path
           inkscape:connector-curvature="0"
           id="path5481"
           d="m 195.06777,231.59946 9.58533,-0.0904"
           style="fill:none;fill-rule:evenodd;stroke:#000000;stroke-width:1px;stroke-linecap:butt;stroke-linejoin:miter;stroke-opacity:1" />
        <path
           style="fill:none;fill-rule:evenodd;stroke:#000000;stroke-width:0.99012268px;stroke-linecap:butt;stroke-linejoin:miter;stroke-opacity:1"
           d="m 205.56569,220.83857 11.93773,0 0,0.184"
           id="path5483"
           inkscape:connector-curvature="0" />
        <path
           style="fill:none;fill-rule:evenodd;stroke:#000000;stroke-width:1px;stroke-linecap:butt;stroke-linejoin:miter;stroke-opacity:1"
           d="m 211.62609,220.47686 c 0,16.63869 0,16.63869 0,16.63869"
           id="path5485"
           inkscape:connector-curvature="0" />
        <path
           style="fill:none;fill-rule:evenodd;stroke:#000000;stroke-width:1px;stroke-linecap:butt;stroke-linejoin:miter;stroke-opacity:1"
           d="m 175.08325,236.93469 0.18086,-15.01099 14.01628,13.74501 -0.0904,-15.28228"
           id="path5487"
           inkscape:connector-curvature="0" />
        <path
           style="fill:none;fill-rule:evenodd;stroke:#000000;stroke-width:1px;stroke-linecap:butt;stroke-linejoin:miter;stroke-opacity:1"
           d="M 172.18956,236.12084 Z"
           id="path5489"
           inkscape:connector-curvature="0" />
        <ellipse
           style="opacity:1;fill:none;fill-opacity:0.95721926;stroke:#000001;stroke-width:0.95897824;stroke-linecap:square;stroke-linejoin:bevel;stroke-miterlimit:4;stroke-dasharray:none;stroke-opacity:1"
           id="path5554"
           cx="171.99602"
           cy="236.38194"
           rx="0.55803692"
           ry="0.50223327" />
      </g>
    </g>
    <g
       transform="translate(235.23538,-13.810038)"
       id="g5615">
      <path
         style="opacity:1;fill:none;fill-opacity:1;stroke:#000000;stroke-width:0.7012248;stroke-linejoin:round;stroke-miterlimit:4;stroke-dasharray:none;stroke-opacity:1"
         d="m 141.1534,8.6573962 c -3.72331,0.029284 -7.99465,0.7355722 -11.51653,1.7750268 -4.49743,1.325621 -9.99472,5.004074 -13.5,7.913852 -3.67836,3.272445 -5.36624,5.966438 -8.07446,9.293951 -1.75569,2.481425 -5.41863,8.861389 -7.14596,13.353433 -0.32744,0.851919 -0.38611,0.383648 -1.313501,2.947932 l -79.99474,0 c -0.35989,0 -0.649646,0.286985 -0.649646,0.643433 l 0,166.579346 c 0,0.35644 0.289756,0.64342 0.649646,0.64342 l 212.644051,0 c 0.35989,0 0.64965,-0.28698 0.64965,-0.64342 l 0,-166.579346 c 0,-0.356448 -0.28983,-0.637022 -0.64965,-0.643433 l -7.79303,-0.138853 c -2.37584,-2.420818 -7.35451,-5.185106 -7.35451,-5.185106 -3.97336,-1.889324 -7.60536,-3.580137 -11.81087,-4.867228 -3.99557,-1.227943 -6.39277,-1.446129 -10.37031,-2.693283 -0.93727,-0.294475 -4.88801,-0.947862 -5.81809,-1.262167 -3.15099,-1.064844 -12.02995,-3.870981 -14.92765,-5.31519 -3.86303,-1.935291 -6.69478,-4.216828 -7.90608,-5.074348 -3.7835,-3.139993 -10.57816,-9.8244697 -19.57841,-10.3077027 -0.86109,-0.044364 -4.68068,-0.4470748 -5.53991,-0.4403171 z"
         id="path5617"
         inkscape:connector-curvature="0"
         sodipodi:nodetypes="scccccssssssssccccscccs" />
      <g
         id="g5619"
         style="fill:none;stroke:#0000ff;stroke-opacity:1"
         transform="translate(-44.457496,-212.79901)">
        <path
           sodipodi:nodetypes="csssc"
           inkscape:connector-curvature="0"
           id="path5621"
           d="m 112.42779,364.14275 c 13.30971,11.66184 18.54677,14.481 29.66165,16.98573 9.13641,2.05889 19.45301,1.64324 28.0138,-2.1549 8.08678,-3.58783 15.49538,-10.25081 19.2674,-18.25333 5.52562,-11.72286 2.66195,-38.78833 2.66195,-38.78833"
           style="fill:none;fill-rule:evenodd;stroke:#0000ff;stroke-width:1px;stroke-linecap:butt;stroke-linejoin:miter;stroke-opacity:1" />
        <path
           sodipodi:nodetypes="csssccc"
           inkscape:connector-curvature="0"
           id="path5623"
           d="m 113.06158,364.64978 c 0,0 31.43863,12.33289 45.25305,5.95769 6.62957,-3.05947 10.68005,-11.18387 11.91537,-18.38009 1.4114,-8.22191 0.91255,-19.42683 -5.83093,-24.33778 -5.78936,-4.21611 -21.42231,1.64787 -21.42231,1.64787 l 0,0 0.12676,0"
           style="fill:none;fill-rule:evenodd;stroke:#0000ff;stroke-width:1px;stroke-linecap:butt;stroke-linejoin:miter;stroke-opacity:1" />
        <path
           sodipodi:nodetypes="csc"
           inkscape:connector-curvature="0"
           id="path5625"
           d="m 112.17427,364.64978 c 0,0 -25.743927,20.83502 -33.844721,34.85879 -2.241176,3.87983 -4.309814,13.05621 -4.309814,13.05621"
           style="fill:none;fill-rule:evenodd;stroke:#0000ff;stroke-width:1px;stroke-linecap:butt;stroke-linejoin:miter;stroke-opacity:1" />
        <path
           sodipodi:nodetypes="cssscssssssssscsssc"
           inkscape:connector-curvature="0"
           id="path5627"
           d="m 74.019735,412.1845 c 0,0 -6.11716,-10.72741 -7.732314,-16.73222 -1.321562,-4.91331 -3.017629,-10.43361 -1.267592,-15.21111 2.569143,-7.01362 8.955604,-12.95893 15.844905,-15.84491 9.743252,-4.08152 31.689806,-0.25351 31.689806,-0.25351 0,0 18.60372,-16.53009 23.70398,-27.50676 3.60621,-7.76121 3.02087,-16.85662 4.0563,-25.35185 2.19571,-18.01486 -1.97192,-37.3223 4.56333,-54.25295 4.55878,-11.81027 12.11714,-23.82081 23.07018,-30.1687 7.74497,-4.48864 17.86822,-5.43304 26.61944,-3.54926 8.75707,1.88504 14.81594,10.16864 22.81667,14.19703 16.63715,8.37687 38.613,7.55336 51.97129,20.535 3.23078,3.13968 4.78141,7.95013 5.32388,12.42241 1.00039,8.24741 -0.87122,16.91823 -4.05629,24.59129 -3.55154,8.5559 -16.22518,22.56314 -16.22518,22.56314 0,0 -22.0658,-13.07229 -34.225,-12.67592 -10.35951,0.33771 -18.38233,9.99289 -28.39407,12.67592 -3.93924,1.05567 -8.09151,1.35154 -12.16889,1.2676 -11.69758,-0.24082 -34.73203,-5.07037 -34.73203,-5.07037"
           style="fill:none;fill-rule:evenodd;stroke:#0000ff;stroke-width:1px;stroke-linecap:butt;stroke-linejoin:miter;stroke-opacity:1" />
      </g>
      <g
         id="g5629"
         transform="translate(-0.5303301,-40.481864)">
        <path
           style="fill:none;fill-rule:evenodd;stroke:#0000ff;stroke-width:1px;stroke-linecap:butt;stroke-linejoin:miter;stroke-opacity:1"
           d="m 75.776397,221.4899 c -0.06943,2.8513 -0.129553,5.71826 0.192001,8.55667 0.266141,2.0594 1.498602,3.96531 3.108801,5.16977 1.325802,0.99172 3.135026,1.36588 4.806323,1.25326 1.50487,-0.15212 2.801698,-1.06621 3.856076,-2.07576 0.937793,-0.89792 1.588974,-2.11255 1.993419,-3.3463 0.412176,-1.25733 0.309855,-2.63393 0.381666,-3.95112 0.01401,-1.91691 0.01225,-3.83392 0.0011,-5.75084"
           id="path5631"
           inkscape:connector-curvature="0"
           sodipodi:nodetypes="ccacaacc" />
        <path
           sodipodi:nodetypes="ccccc"
           inkscape:connector-curvature="0"
           id="path5633"
           d="m 59.245422,236.75384 0.180858,-13.38329 6.691647,11.93645 7.143785,-12.56945 0,13.83543"
           style="fill:none;fill-rule:evenodd;stroke:#0000ff;stroke-width:1px;stroke-linecap:butt;stroke-linejoin:miter;stroke-opacity:1" />
        <path
           style="fill:none;fill-rule:evenodd;stroke:#0000ff;stroke-width:1px;stroke-linecap:butt;stroke-linejoin:miter;stroke-opacity:1"
           d="m 92.703656,237.02512 0.180858,-13.38329 6.691647,11.93645 7.143789,-12.56945 0,13.83543"
           id="path5635"
           inkscape:connector-curvature="0"
           sodipodi:nodetypes="ccccc" />
        <path
           inkscape:connector-curvature="0"
           id="path5637"
           d="m 108.89021,236.84427 8.13849,-15.19185 8.22891,15.46313"
           style="fill:none;fill-rule:evenodd;stroke:#0000ff;stroke-width:1px;stroke-linecap:butt;stroke-linejoin:miter;stroke-opacity:1" />
        <path
           inkscape:connector-curvature="0"
           id="path5639"
           d="m 127.5183,220.20558 0,16.90997 0.27128,0 -0.27128,0"
           style="fill:none;fill-rule:evenodd;stroke:#0000ff;stroke-width:1px;stroke-linecap:butt;stroke-linejoin:miter;stroke-opacity:1" />
        <path
           inkscape:connector-curvature="0"
           id="path5641"
           d="m 141.98673,220.296 -10.85132,10.67047 11.03217,11.1226"
           style="fill:none;fill-rule:evenodd;stroke:#0000ff;stroke-width:1px;stroke-linecap:butt;stroke-linejoin:miter;stroke-opacity:1" />
        <path
           inkscape:connector-curvature="0"
           id="path5643"
           d="m 156.54558,220.83857 -12.11731,-0.0904 0,15.91527 12.11731,0"
           style="fill:none;fill-rule:evenodd;stroke:#0000ff;stroke-width:1px;stroke-linecap:butt;stroke-linejoin:miter;stroke-opacity:1" />
        <path
           inkscape:connector-curvature="0"
           id="path5645"
           d="m 147.05068,231.68989 9.58533,-0.0904"
           style="fill:none;fill-rule:evenodd;stroke:#0000ff;stroke-width:1px;stroke-linecap:butt;stroke-linejoin:miter;stroke-opacity:1" />
        <path
           sodipodi:nodetypes="ccssssaaaccc"
           inkscape:connector-curvature="0"
           id="path5647"
           d="m 158.71584,236.84427 0,-16.0057 c 0,0 3.70337,-0.21903 5.51609,0.0904 0.75168,0.12831 1.39323,0.25599 2.17026,0.72342 0.6395,0.3847 1.51253,0.91586 1.98941,1.6277 0.40333,0.60206 0.52634,1.36305 0.633,2.07983 0.11979,0.80499 0.14168,1.64013 0,2.44155 -0.13096,0.74076 -0.33053,1.51214 -0.77374,2.11995 -0.39234,0.53805 -0.97858,0.93454 -1.57738,1.22587 -0.78229,0.38061 -2.53198,0.633 -2.53198,0.633 l -1.53727,0.0905 5.15438,5.06394"
           style="fill:none;fill-rule:evenodd;stroke:#0000ff;stroke-width:1px;stroke-linecap:butt;stroke-linejoin:miter;stroke-opacity:1" />
        <path
           style="fill:none;fill-rule:evenodd;stroke:#0000ff;stroke-width:1px;stroke-linecap:butt;stroke-linejoin:miter;stroke-opacity:1"
           d="m 204.56267,220.74814 -12.11731,-0.0904 0,15.91527 12.11731,0"
           id="path5649"
           inkscape:connector-curvature="0" />
        <path
           style="fill:none;fill-rule:evenodd;stroke:#0000ff;stroke-width:1px;stroke-linecap:butt;stroke-linejoin:miter;stroke-opacity:1"
           d="m 195.06777,231.59946 9.58533,-0.0904"
           id="path5651"
           inkscape:connector-curvature="0" />
        <path
           inkscape:connector-curvature="0"
           id="path5653"
           d="m 205.56569,220.83857 11.93773,0 0,0.184"
           style="fill:none;fill-rule:evenodd;stroke:#0000ff;stroke-width:0.99012268px;stroke-linecap:butt;stroke-linejoin:miter;stroke-opacity:1" />
        <path
           inkscape:connector-curvature="0"
           id="path5655"
           d="m 211.62609,220.47686 c 0,16.63869 0,16.63869 0,16.63869"
           style="fill:none;fill-rule:evenodd;stroke:#0000ff;stroke-width:1px;stroke-linecap:butt;stroke-linejoin:miter;stroke-opacity:1" />
        <path
           inkscape:connector-curvature="0"
           id="path5657"
           d="m 175.08325,236.93469 0.18086,-15.01099 14.01628,13.74501 -0.0904,-15.28228"
           style="fill:none;fill-rule:evenodd;stroke:#0000ff;stroke-width:1px;stroke-linecap:butt;stroke-linejoin:miter;stroke-opacity:1" />
        <path
           inkscape:connector-curvature="0"
           id="path5659"
           d="M 172.18956,236.12084 Z"
           style="fill:none;fill-rule:evenodd;stroke:#000000;stroke-width:1px;stroke-linecap:butt;stroke-linejoin:miter;stroke-opacity:1" />
        <ellipse
           ry="0.50223327"
           rx="0.55803692"
           cy="236.38194"
           cx="171.99602"
           id="ellipse5661"
           style="opacity:1;fill:none;fill-opacity:0.95721926;stroke:#0000ff;stroke-width:0.95897824;stroke-linecap:square;stroke-linejoin:bevel;stroke-miterlimit:4;stroke-dasharray:none;stroke-opacity:1" />
      </g>
    </g>
    <g
       id="g5663"
       transform="translate(464.87681,-13.810038)">
      <path
         sodipodi:nodetypes="scccccssssssssccccscccs"
         inkscape:connector-curvature="0"
         id="path5665"
         d="m 141.1534,8.6573962 c -3.72331,0.029284 -7.99465,0.7355722 -11.51653,1.7750268 -4.49743,1.325621 -9.99472,5.004074 -13.5,7.913852 -3.67836,3.272445 -5.36624,5.966438 -8.07446,9.293951 -1.75569,2.481425 -5.41863,8.861389 -7.14596,13.353433 -0.32744,0.851919 -0.38611,0.383648 -1.313501,2.947932 l -79.99474,0 c -0.35989,0 -0.649646,0.286985 -0.649646,0.643433 l 0,166.579346 c 0,0.35644 0.289756,0.64342 0.649646,0.64342 l 212.644051,0 c 0.35989,0 0.64965,-0.28698 0.64965,-0.64342 l 0,-166.579346 c 0,-0.356448 -0.28983,-0.637022 -0.64965,-0.643433 l -7.79303,-0.138853 c -2.37584,-2.420818 -7.35451,-5.185106 -7.35451,-5.185106 -3.97336,-1.889324 -7.60536,-3.580137 -11.81087,-4.867228 -3.99557,-1.227943 -6.39277,-1.446129 -10.37031,-2.693283 -0.93727,-0.294475 -4.88801,-0.947862 -5.81809,-1.262167 -3.15099,-1.064844 -12.02995,-3.870981 -14.92765,-5.31519 -3.86303,-1.935291 -6.69478,-4.216828 -7.90608,-5.074348 -3.7835,-3.139993 -10.57816,-9.8244697 -19.57841,-10.3077027 -0.86109,-0.044364 -4.68068,-0.4470748 -5.53991,-0.4403171 z"
         style="opacity:1;fill:none;fill-opacity:1;stroke:#000000;stroke-width:0.7012248;stroke-linejoin:round;stroke-miterlimit:4;stroke-dasharray:none;stroke-opacity:1" />
      <g
         transform="translate(-44.457496,-212.79901)"
         style="fill:none;stroke:#0000ff;stroke-opacity:1"
         id="g5667">
        <path
           style="fill:none;fill-rule:evenodd;stroke:#000000;stroke-width:1px;stroke-linecap:butt;stroke-linejoin:miter;stroke-opacity:1"
           d="m 112.42779,364.14275 c 13.30971,11.66184 18.54677,14.481 29.66165,16.98573 9.13641,2.05889 19.45301,1.64324 28.0138,-2.1549 8.08678,-3.58783 15.49538,-10.25081 19.2674,-18.25333 5.52562,-11.72286 2.66195,-38.78833 2.66195,-38.78833"
           id="path5669"
           inkscape:connector-curvature="0"
           sodipodi:nodetypes="csssc" />
        <path
           style="fill:none;fill-rule:evenodd;stroke:#000000;stroke-width:1px;stroke-linecap:butt;stroke-linejoin:miter;stroke-opacity:1"
           d="m 113.06158,364.64978 c 0,0 31.43863,12.33289 45.25305,5.95769 6.62957,-3.05947 10.68005,-11.18387 11.91537,-18.38009 1.4114,-8.22191 0.91255,-19.42683 -5.83093,-24.33778 -5.78936,-4.21611 -21.42231,1.64787 -21.42231,1.64787 l 0,0 0.12676,0"
           id="path5671"
           inkscape:connector-curvature="0"
           sodipodi:nodetypes="csssccc" />
        <path
           style="fill:none;fill-rule:evenodd;stroke:#000000;stroke-width:1px;stroke-linecap:butt;stroke-linejoin:miter;stroke-opacity:1"
           d="m 112.17427,364.64978 c 0,0 -25.743927,20.83502 -33.844721,34.85879 -2.241176,3.87983 -4.309814,13.05621 -4.309814,13.05621"
           id="path5673"
           inkscape:connector-curvature="0"
           sodipodi:nodetypes="csc" />
        <path
           style="fill:none;fill-rule:evenodd;stroke:#0000ff;stroke-width:1px;stroke-linecap:butt;stroke-linejoin:miter;stroke-opacity:1"
           d="m 74.019735,412.1845 c 0,0 -6.11716,-10.72741 -7.732314,-16.73222 -1.321562,-4.91331 -3.017629,-10.43361 -1.267592,-15.21111 2.569143,-7.01362 8.955604,-12.95893 15.844905,-15.84491 9.743252,-4.08152 31.689806,-0.25351 31.689806,-0.25351 0,0 18.60372,-16.53009 23.70398,-27.50676 3.60621,-7.76121 3.02087,-16.85662 4.0563,-25.35185 2.19571,-18.01486 -1.97192,-37.3223 4.56333,-54.25295 4.55878,-11.81027 12.11714,-23.82081 23.07018,-30.1687 7.74497,-4.48864 17.86822,-5.43304 26.61944,-3.54926 8.75707,1.88504 14.81594,10.16864 22.81667,14.19703 16.63715,8.37687 38.613,7.55336 51.97129,20.535 3.23078,3.13968 4.78141,7.95013 5.32388,12.42241 1.00039,8.24741 -0.87122,16.91823 -4.05629,24.59129 -3.55154,8.5559 -16.22518,22.56314 -16.22518,22.56314 0,0 -22.0658,-13.07229 -34.225,-12.67592 -10.35951,0.33771 -18.38233,9.99289 -28.39407,12.67592 -3.93924,1.05567 -8.09151,1.35154 -12.16889,1.2676 -11.69758,-0.24082 -34.73203,-5.07037 -34.73203,-5.07037"
           id="path5675"
           inkscape:connector-curvature="0"
           sodipodi:nodetypes="cssscssssssssscsssc" />
      </g>
      <g
         transform="translate(-0.5303301,-40.481864)"
         id="g5677">
        <path
           sodipodi:nodetypes="ccacaacc"
           inkscape:connector-curvature="0"
           id="path5679"
           d="m 75.776397,221.4899 c -0.06943,2.8513 -0.129553,5.71826 0.192001,8.55667 0.266141,2.0594 1.498602,3.96531 3.108801,5.16977 1.325802,0.99172 3.135026,1.36588 4.806323,1.25326 1.50487,-0.15212 2.801698,-1.06621 3.856076,-2.07576 0.937793,-0.89792 1.588974,-2.11255 1.993419,-3.3463 0.412176,-1.25733 0.309855,-2.63393 0.381666,-3.95112 0.01401,-1.91691 0.01225,-3.83392 0.0011,-5.75084"
           style="fill:none;fill-rule:evenodd;stroke:#000000;stroke-width:1px;stroke-linecap:butt;stroke-linejoin:miter;stroke-opacity:1" />
        <path
           style="fill:none;fill-rule:evenodd;stroke:#000000;stroke-width:1px;stroke-linecap:butt;stroke-linejoin:miter;stroke-opacity:1"
           d="m 59.245422,236.75384 0.180858,-13.38329 6.691647,11.93645 7.143785,-12.56945 0,13.83543"
           id="path5681"
           inkscape:connector-curvature="0"
           sodipodi:nodetypes="ccccc" />
        <path
           sodipodi:nodetypes="ccccc"
           inkscape:connector-curvature="0"
           id="path5683"
           d="m 92.703656,237.02512 0.180858,-13.38329 6.691647,11.93645 7.143789,-12.56945 0,13.83543"
           style="fill:none;fill-rule:evenodd;stroke:#000000;stroke-width:1px;stroke-linecap:butt;stroke-linejoin:miter;stroke-opacity:1" />
        <path
           style="fill:none;fill-rule:evenodd;stroke:#000000;stroke-width:1px;stroke-linecap:butt;stroke-linejoin:miter;stroke-opacity:1"
           d="m 108.89021,236.84427 8.13849,-15.19185 8.22891,15.46313"
           id="path5685"
           inkscape:connector-curvature="0" />
        <path
           style="fill:none;fill-rule:evenodd;stroke:#000000;stroke-width:1px;stroke-linecap:butt;stroke-linejoin:miter;stroke-opacity:1"
           d="m 127.5183,220.20558 0,16.90997 0.27128,0 -0.27128,0"
           id="path5687"
           inkscape:connector-curvature="0" />
        <path
           style="fill:none;fill-rule:evenodd;stroke:#000000;stroke-width:1px;stroke-linecap:butt;stroke-linejoin:miter;stroke-opacity:1"
           d="m 141.98673,220.296 -10.85132,10.67047 11.03217,11.1226"
           id="path5689"
           inkscape:connector-curvature="0" />
        <path
           style="fill:none;fill-rule:evenodd;stroke:#000000;stroke-width:1px;stroke-linecap:butt;stroke-linejoin:miter;stroke-opacity:1"
           d="m 156.54558,220.83857 -12.11731,-0.0904 0,15.91527 12.11731,0"
           id="path5691"
           inkscape:connector-curvature="0" />
        <path
           style="fill:none;fill-rule:evenodd;stroke:#000000;stroke-width:1px;stroke-linecap:butt;stroke-linejoin:miter;stroke-opacity:1"
           d="m 147.05068,231.68989 9.58533,-0.0904"
           id="path5693"
           inkscape:connector-curvature="0" />
        <path
           style="fill:none;fill-rule:evenodd;stroke:#000000;stroke-width:1px;stroke-linecap:butt;stroke-linejoin:miter;stroke-opacity:1"
           d="m 158.71584,236.84427 0,-16.0057 c 0,0 3.70337,-0.21903 5.51609,0.0904 0.75168,0.12831 1.39323,0.25599 2.17026,0.72342 0.6395,0.3847 1.51253,0.91586 1.98941,1.6277 0.40333,0.60206 0.52634,1.36305 0.633,2.07983 0.11979,0.80499 0.14168,1.64013 0,2.44155 -0.13096,0.74076 -0.33053,1.51214 -0.77374,2.11995 -0.39234,0.53805 -0.97858,0.93454 -1.57738,1.22587 -0.78229,0.38061 -2.53198,0.633 -2.53198,0.633 l -1.53727,0.0905 5.15438,5.06394"
           id="path5695"
           inkscape:connector-curvature="0"
           sodipodi:nodetypes="ccssssaaaccc" />
        <path
           inkscape:connector-curvature="0"
           id="path5697"
           d="m 204.56267,220.74814 -12.11731,-0.0904 0,15.91527 12.11731,0"
           style="fill:none;fill-rule:evenodd;stroke:#000000;stroke-width:1px;stroke-linecap:butt;stroke-linejoin:miter;stroke-opacity:1" />
        <path
           inkscape:connector-curvature="0"
           id="path5699"
           d="m 195.06777,231.59946 9.58533,-0.0904"
           style="fill:none;fill-rule:evenodd;stroke:#000000;stroke-width:1px;stroke-linecap:butt;stroke-linejoin:miter;stroke-opacity:1" />
        <path
           style="fill:none;fill-rule:evenodd;stroke:#000000;stroke-width:0.99012268px;stroke-linecap:butt;stroke-linejoin:miter;stroke-opacity:1"
           d="m 205.56569,220.83857 11.93773,0 0,0.184"
           id="path5701"
           inkscape:connector-curvature="0" />
        <path
           style="fill:none;fill-rule:evenodd;stroke:#000000;stroke-width:1px;stroke-linecap:butt;stroke-linejoin:miter;stroke-opacity:1"
           d="m 211.62609,220.47686 c 0,16.63869 0,16.63869 0,16.63869"
           id="path5703"
           inkscape:connector-curvature="0" />
        <path
           style="fill:none;fill-rule:evenodd;stroke:#000000;stroke-width:1px;stroke-linecap:butt;stroke-linejoin:miter;stroke-opacity:1"
           d="m 175.08325,236.93469 0.18086,-15.01099 14.01628,13.74501 -0.0904,-15.28228"
           id="path5705"
           inkscape:connector-curvature="0" />
        <path
           style="fill:none;fill-rule:evenodd;stroke:#000000;stroke-width:1px;stroke-linecap:butt;stroke-linejoin:miter;stroke-opacity:1"
           d="M 172.18956,236.12084 Z"
           id="path5707"
           inkscape:connector-curvature="0" />
        <ellipse
           style="opacity:1;fill:none;fill-opacity:0.95721926;stroke:#000001;stroke-width:0.95897824;stroke-linecap:square;stroke-linejoin:bevel;stroke-miterlimit:4;stroke-dasharray:none;stroke-opacity:1"
           id="ellipse5709"
           cx="171.99602"
           cy="236.38194"
           rx="0.55803692"
           ry="0.50223327" />
      </g>
    </g>
  </g>
</svg>
