<?xml version="1.0" encoding="UTF-8" standalone="no"?>
<!-- Created with Inkscape (http://www.inkscape.org/) -->

<svg
   xmlns:dc="http://purl.org/dc/elements/1.1/"
   xmlns:cc="http://creativecommons.org/ns#"
   xmlns:rdf="http://www.w3.org/1999/02/22-rdf-syntax-ns#"
   xmlns:svg="http://www.w3.org/2000/svg"
   xmlns="http://www.w3.org/2000/svg"
   xmlns:sodipodi="http://sodipodi.sourceforge.net/DTD/sodipodi-0.dtd"
   xmlns:inkscape="http://www.inkscape.org/namespaces/inkscape"
   width="210mm"
   height="297mm"
   viewBox="0 0 744.09448819 1052.3622047"
   id="svg5188"
   version="1.1"
   inkscape:version="0.91 r13725"
   sodipodi:docname="Targeta Lori.svg">
  <defs
     id="defs5190">
    <inkscape:path-effect
       effect="skeletal"
       id="path-effect5793"
       is_visible="true"
       pattern="m 1.4149066,-132.26169 c 0,-2.76 2.24,-5 5,-5 2.76,0 5.0000004,2.24 5.0000004,5 0,2.76 -2.2400004,5 -5.0000004,5 -2.76,0 -5,-2.24 -5,-5 z"
       copytype="single_stretched"
       prop_scale="1"
       scale_y_rel="false"
       spacing="0"
       normal_offset="0"
       tang_offset="0"
       prop_units="false"
       vertical_pattern="false"
       fuse_tolerance="0" />
    <inkscape:path-effect
       effect="skeletal"
       id="path-effect5788"
       is_visible="true"
       pattern="m 0.52837571,-132.08482 c 0,-2.76 2.23999999,-5 4.99999999,-5 2.76,0 5.0000003,2.24 5.0000003,5 0,2.76 -2.2400003,5 -5.0000003,5 -2.76,0 -4.99999999,-2.24 -4.99999999,-5 z"
       copytype="single_stretched"
       prop_scale="1"
       scale_y_rel="false"
       spacing="0"
       normal_offset="0"
       tang_offset="0"
       prop_units="false"
       vertical_pattern="false"
       fuse_tolerance="0" />
    <inkscape:path-effect
       effect="skeletal"
       id="path-effect5152"
       is_visible="true"
       pattern="m 0.52837571,-86.084817 c 0,-2.76 2.23999999,-5 4.99999999,-5 2.76,0 5.0000003,2.24 5.0000003,5 0,2.76 -2.2400003,5 -5.0000003,5 -2.76,0 -4.99999999,-2.24 -4.99999999,-5 z"
       copytype="single_stretched"
       prop_scale="1"
       scale_y_rel="false"
       spacing="0"
       normal_offset="0"
       tang_offset="0"
       prop_units="false"
       vertical_pattern="false"
       fuse_tolerance="0" />
    <inkscape:path-effect
       fuse_tolerance="0"
       vertical_pattern="false"
       prop_units="false"
       tang_offset="0"
       normal_offset="0"
       spacing="0"
       scale_y_rel="false"
       prop_scale="1"
       copytype="single_stretched"
       pattern="m 0.52837571,-86.084817 c 0,-2.76 2.23999999,-5 4.99999999,-5 2.76,0 5.0000003,2.24 5.0000003,5 0,2.76 -2.2400003,5 -5.0000003,5 -2.76,0 -4.99999999,-2.24 -4.99999999,-5 z"
       is_visible="true"
       id="path-effect5140"
       effect="skeletal" />
    <inkscape:path-effect
       fuse_tolerance="0"
       vertical_pattern="false"
       prop_units="false"
       tang_offset="0"
       normal_offset="0"
       spacing="0"
       scale_y_rel="false"
       prop_scale="1"
       copytype="single_stretched"
       pattern="m 0.52837571,-86.084817 c 0,-2.76 2.23999999,-5 4.99999999,-5 2.76,0 5.0000003,2.24 5.0000003,5 0,2.76 -2.2400003,5 -5.0000003,5 -2.76,0 -4.99999999,-2.24 -4.99999999,-5 z"
       is_visible="true"
       id="path-effect5136"
       effect="skeletal" />
    <inkscape:path-effect
       fuse_tolerance="0"
       vertical_pattern="false"
       prop_units="false"
       tang_offset="0"
       normal_offset="0"
       spacing="0"
       scale_y_rel="false"
       prop_scale="1"
       copytype="single_stretched"
       pattern="m 34.814076,-140.37052 c 0,-2.76 2.24,-5 5,-5 2.76,0 5,2.24 5,5 0,2.76 -2.24,5 -5,5 -2.76,0 -5,-2.24 -5,-5 z"
       is_visible="true"
       id="path-effect5132"
       effect="skeletal" />
    <inkscape:path-effect
       fuse_tolerance="0"
       vertical_pattern="false"
       prop_units="false"
       tang_offset="0"
       normal_offset="0"
       spacing="0"
       scale_y_rel="false"
       prop_scale="1"
       copytype="single_stretched"
       pattern="m 0.52837571,-132.08482 c 0,-2.76 2.23999999,-5 4.99999999,-5 2.76,0 5.0000003,2.24 5.0000003,5 0,2.76 -2.2400003,5 -5.0000003,5 -2.76,0 -4.99999999,-2.24 -4.99999999,-5 z"
       is_visible="true"
       id="path-effect5116"
       effect="skeletal" />
  </defs>
  <sodipodi:namedview
     id="base"
     pagecolor="#ffffff"
     bordercolor="#666666"
     borderopacity="1.0"
     inkscape:pageopacity="0.0"
     inkscape:pageshadow="2"
     inkscape:zoom="1"
     inkscape:cx="370.35742"
     inkscape:cy="960.17006"
     inkscape:document-units="px"
     inkscape:current-layer="layer1"
     showgrid="false"
     inkscape:window-width="1920"
     inkscape:window-height="955"
     inkscape:window-x="0"
     inkscape:window-y="1"
     inkscape:window-maximized="1" />
  <metadata
     id="metadata5193">
    <rdf:RDF>
      <cc:Work
         rdf:about="">
        <dc:format>image/svg+xml</dc:format>
        <dc:type
           rdf:resource="http://purl.org/dc/dcmitype/StillImage" />
        <dc:title></dc:title>
      </cc:Work>
    </rdf:RDF>
  </metadata>
  <g
     inkscape:label="Capa 1"
     inkscape:groupmode="layer"
     id="layer1">
    <g
       id="g5882"
       transform="matrix(0.30224113,0,0,0.30224113,15.01606,-2.782912)">
      <path
         sodipodi:nodetypes="scccccssssssssccccscccs"
         inkscape:connector-curvature="0"
         id="rect5164"
         d="m 420.24414,40.384766 c -12.20138,0.09689 -24.29465,1.799067 -35.83594,5.238281 -14.73818,4.386044 -28.3627,11.690861 -39.84961,21.318359 -13.39515,10.235083 -24.7741,22.519741 -34.01171,35.828124 -9.52514,13.71086 -16.88245,28.47324 -22.54297,43.33594 -1.07302,2.81872 -2.07362,5.64882 -3.03907,8.48437 l -263.02734,0 c -1.179365,0 -2.128906,0.94954 -2.128906,2.12891 l 0,551.15625 c 0,1.17937 0.949541,2.12891 2.128906,2.12891 l 696.83984,0 c 1.17937,0 2.12891,-0.94954 2.12891,-2.12891 l 0,-551.15625 c 0,-1.17937 -0.94954,-2.12891 -2.12891,-2.12891 l -22.44336,0 c -7.78571,-8.00969 -17.4978,-14.27121 -28.46484,-17.61523 -13.02082,-6.25115 -26.59929,-10.99925 -40.38086,-15.25781 -13.09359,-4.06286 -28.31318,-8.26616 -41.34766,-12.39258 -3.07146,-0.97432 -6.13574,-1.9757 -9.18359,-3.01563 C 566.63111,102.78537 556.61892,98.862396 547.12305,94.083984 534.46381,87.680744 522.75253,79.77513 512.85938,70.167969 487.76721,52.37418 458.19716,42.171125 428.70312,40.572266 c -2.82182,-0.146787 -5.64328,-0.209859 -8.45898,-0.1875 z"
         style="opacity:1;fill:none;fill-opacity:1;stroke:#000000;stroke-width:2.30900002;stroke-linejoin:round;stroke-miterlimit:4;stroke-dasharray:none;stroke-opacity:1" />
      <g
         id="text5160"
         style="font-style:normal;font-variant:normal;font-weight:normal;font-stretch:normal;font-size:80px;line-height:150%;font-family:'Vonique 64';-inkscape-font-specification:'Vonique 64, ';text-align:start;letter-spacing:0px;word-spacing:0px;text-anchor:start;fill:#000000;fill-opacity:1;stroke:none;stroke-width:1px;stroke-linecap:butt;stroke-linejoin:miter;stroke-opacity:1">
        <path
           inkscape:connector-curvature="0"
           id="path5816"
           d="m 193.93993,611.29584 c 0.026,18.65885 0.0521,37.31771 0.0781,55.97656 -1.44531,0 -2.89063,0 -4.33594,0 0,-12.85156 0,-25.70313 0,-38.55469 -7.10937,12.85156 -14.21875,25.70313 -21.32812,38.55469 -7.04427,-12.72135 -14.08854,-25.44271 -21.13281,-38.16406 0,12.72135 0,25.44271 0,38.16406 -1.41927,0 -2.83855,0 -4.25782,0 0,-18.69792 0,-37.39583 0,-56.09375 8.54167,15.3125 17.08333,30.625 25.625,45.9375 8.45053,-15.27343 16.90104,-30.54691 25.35159,-45.82031 z"
           style="font-size:80px;fill:#000000;fill-opacity:1;stroke:none;stroke-opacity:1" />
        <path
           inkscape:connector-curvature="0"
           id="path5818"
           d="m 249.52586,638.71771 c 0.0542,8.86965 -3.89089,17.69234 -10.77229,23.33879 -7.91087,6.88051 -20.63869,7.13518 -28.82243,0.587 -7.12614,-5.47658 -11.39573,-14.29572 -11.48453,-23.26271 -0.0336,-9.3874 -0.005,-18.77544 -0.0145,-28.16308 1.31511,0 2.63021,0 3.94532,0 0.0354,9.65914 -0.072,19.32124 0.056,28.97847 0.40776,9.45496 6.50875,18.93694 15.71497,21.90021 7.04731,2.20319 15.18109,0.0775 20.18593,-5.37407 5.2175,-5.14882 7.56486,-12.6018 7.24624,-19.82701 0,-8.5592 0,-17.1184 0,-25.6776 1.3151,0 2.63021,0 3.94531,0 0,9.16667 0,18.33333 0,27.5 z"
           style="font-size:80px;fill:#000000;fill-opacity:1;stroke:none;stroke-opacity:1" />
        <path
           inkscape:connector-curvature="0"
           id="path5820"
           d="m 304.87743,611.29584 c 0.026,18.65885 0.0521,37.31771 0.0781,55.97656 -1.44531,0 -2.89063,0 -4.33594,0 0,-12.85156 0,-25.70313 0,-38.55469 -7.10937,12.85156 -14.21875,25.70313 -21.32812,38.55469 -7.04427,-12.72135 -14.08854,-25.44271 -21.13281,-38.16406 0,12.72135 0,25.44271 0,38.16406 -1.41927,0 -2.83855,0 -4.25782,0 0,-18.69792 0,-37.39583 0,-56.09375 8.54167,15.3125 17.08333,30.625 25.625,45.9375 8.45053,-15.27343 16.90104,-30.54691 25.35159,-45.82031 z"
           style="font-size:80px;fill:#000000;fill-opacity:1;stroke:none" />
        <path
           inkscape:connector-curvature="0"
           id="path5822"
           d="m 366.16649,667.35052 c -1.65365,0 -3.30729,0 -4.96094,0 -8.16406,-15.46875 -16.32813,-30.9375 -24.49219,-46.40625 -8.11198,15.46875 -16.22395,30.9375 -24.33593,46.40625 -1.73177,0 -3.46355,0 -5.19532,0 9.85472,-18.70518 19.62153,-37.45666 29.53125,-56.13285 9.86838,18.68433 19.62838,37.4256 29.45313,56.13285 z"
           style="font-size:80px;fill:#000000;fill-opacity:1;stroke:none;stroke-opacity:1" />
        <path
           inkscape:connector-curvature="0"
           id="path5824"
           d="m 373.78368,667.46771 c -1.36719,0 -2.73438,0 -4.10157,0 0,-18.72396 0,-37.44791 0,-56.17187 1.36719,0 2.73438,0 4.10157,0 0,18.72396 0,37.44791 0,56.17187 z m 12.5,-20.50781 c 12.2526,12.2526 24.50521,24.50521 36.75781,36.75781 -1.92708,0 -3.85417,0 -5.78125,0 -12.2526,-12.2526 -24.50521,-24.50521 -36.75781,-36.75781 11.97917,-11.9401 23.95833,-23.88021 35.9375,-35.82031 1.9401,0 3.88021,0 5.82031,0 -11.99219,11.9401 -23.98437,23.88021 -35.97656,35.82031 z"
           style="font-size:80px;fill:#000000;fill-opacity:1;stroke:none" />
        <path
           inkscape:connector-curvature="0"
           id="path5826"
           d="m 467.80711,651.3349 c -10.65104,0 -21.30208,0 -31.95312,0 0,-1.36719 0,-2.73437 0,-4.10156 10.65104,0 21.30208,0 31.95312,0 0,1.36719 0,2.73437 0,4.10156 z m 0.15625,-35.9375 c -12.85156,0 -25.70312,0 -38.55468,0 0,15.91146 0,31.82291 0,47.73437 12.85156,0 25.70312,0 38.55468,0 0,1.38021 0,2.76042 0,4.14063 -14.27083,0 -28.54167,0 -42.8125,0 0,-18.6849 0,-37.36979 0,-56.05469 14.27083,0 28.54167,0 42.8125,0 0,1.39323 0,2.78646 0,4.17969 z"
           style="font-size:80px;fill:#000000;fill-opacity:1;stroke:none" />
        <path
           inkscape:connector-curvature="0"
           id="path5828"
           d="m 511.24461,631.56927 c 0.51241,7.90747 -4.65527,15.86211 -12.16655,18.46329 -1.78586,1.21418 -5.13655,0.23794 -6.05127,2.35431 0.80785,1.25162 2.14198,2.08595 3.13895,3.20397 4.01067,3.89386 8.02133,7.78771 12.032,11.68156 -2.01823,0 -4.03646,0 -6.05469,0 -6.67798,-6.51215 -13.4241,-12.95468 -20.03906,-19.53125 6.2595,0.0883 13.12256,0.54914 18.58222,-3.09037 8.56523,-5.7744 8.57519,-20.23015 0.0984,-26.08791 -5.50798,-3.75657 -12.46096,-3.31489 -18.80659,-3.14953 -1.75359,0.64094 -5.31372,-1.35196 -5.58781,1.15958 0.11166,7.28635 0.0197,14.59007 0.0497,21.88369 0,9.60525 0,19.21049 0,28.81574 -1.36719,0 -2.73438,0 -4.10157,0 0,-18.64583 0,-37.29167 0,-55.9375 9.00377,0.46396 18.36942,-1.32225 27.04353,1.88756 6.69082,2.68775 11.88108,9.37132 11.81909,16.72649 0.031,0.53951 0.045,1.08001 0.0436,1.62037 z"
           style="font-size:80px;fill:#000000;fill-opacity:1;stroke:none" />
        <path
           inkscape:connector-curvature="0"
           id="path5830"
           d="m 519.1743,660.82709 c 1.48006,-0.0614 2.81933,1.03635 3.31595,2.38719 0.4309,1.08878 0.23155,2.3921 -0.50806,3.30082 -1.03046,1.33399 -3.07037,1.83081 -4.55139,0.97204 -1.63375,-0.86229 -2.32316,-3.11436 -1.43928,-4.74005 0.60195,-1.15423 1.86635,-1.9676 3.18278,-1.92 z"
           style="font-size:80px;fill:#000000;fill-opacity:1;stroke:none" />
        <path
           inkscape:connector-curvature="0"
           id="path5832"
           d="m 577.65086,611.29584 c 0,18.65885 0,37.31771 0,55.97656 -15.55181,-15.32015 -31.00828,-30.7366 -46.52347,-46.09375 0,15.36458 0,30.72917 0,46.09375 -1.36719,0 -2.73438,0 -4.10157,0 0,-18.65885 0,-37.31771 0,-55.97656 15.47531,15.42334 31.02019,30.77664 46.52344,46.17187 0,-15.39062 0,-30.78125 0,-46.17187 1.3672,0 2.7344,0 4.1016,0 z"
           style="font-size:80px;fill:#000000;fill-opacity:1;stroke:none;stroke-opacity:1" />
        <path
           inkscape:connector-curvature="0"
           id="path5834"
           d="m 626.71336,651.3349 c -10.65104,0 -21.30208,0 -31.95312,0 0,-1.36719 0,-2.73437 0,-4.10156 10.65104,0 21.30208,0 31.95312,0 0,1.36719 0,2.73437 0,4.10156 z m 0.15625,-35.9375 c -12.85156,0 -25.70312,0 -38.55468,0 0,15.91146 0,31.82291 0,47.73437 12.85156,0 25.70312,0 38.55468,0 0,1.38021 0,2.76042 0,4.14063 -14.27083,0 -28.54167,0 -42.8125,0 0,-18.6849 0,-37.36979 0,-56.05469 14.27083,0 28.54167,0 42.8125,0 0,1.39323 0,2.78646 0,4.17969 z"
           style="font-size:80px;fill:#000000;fill-opacity:1;stroke:none" />
        <path
           inkscape:connector-curvature="0"
           id="path5836"
           d="m 671.20555,615.43646 c -6.35417,0 -12.70833,0 -19.0625,0 0,17.27865 0,34.55729 0,51.83594 -1.36719,0 -2.73437,0 -4.10156,0 0,-17.27865 0,-34.55729 0,-51.83594 -6.32813,0 -12.65625,0 -18.98438,0 0,-1.36719 0,-2.73437 0,-4.10156 14.04948,0 28.09896,0 42.14844,0 0,1.36719 0,2.73437 0,4.10156 z"
           style="font-size:80px;fill:#000000;fill-opacity:1;stroke:none" />
      </g>
      <g
         id="g5875">
        <path
           inkscape:connector-curvature="0"
           d="m 443.56697,368.36448 c 0.7175,-0.007 1.56098,6.96281 2.31917,19.48551 0.67257,11.10859 1.61989,32.06117 0.087,52.99373 0,0 0,10e-6 0,10e-6 -1.49809,20.57803 -5.90455,46.56224 -18.64801,70.86002 -9.79377,17.15691 -25.37819,31.59587 -44.5622,41.4554 -2.75311,1.4173 -5.56404,2.74512 -8.42848,3.98294 -16.38761,7.08164 -33.52483,10.79012 -49.96546,12.03653 -21.65187,2.20011 -42.2455,-1.35429 -59.67686,-7.25817 -21.90702,-7.39527 -39.67451,-18.45024 -52.53273,-28.26219 0,0 -1e-5,-1e-5 -1e-5,-1e-5 -22.82255,-16.20982 -34.85653,-27.81076 -34.48933,-28.31657 0.99024,-1.36402 14.35863,8.58167 37.97065,23.27602 0,0 1e-5,0 1e-5,0 13.04986,8.74627 30.66812,18.69871 51.68374,25.13178 16.6966,5.09096 36.1442,8.06221 56.12305,5.75446 15.53773,-1.38344 31.64918,-4.94555 46.90581,-11.53184 2.66847,-1.15198 5.2833,-2.38472 7.8406,-3.69816 17.606,-9.05887 31.94276,-21.94784 40.85365,-37.18073 12.25027,-22.2602 17.12942,-47.09424 19.44421,-66.95506 0,0 0,-10e-6 0,-10e-6 2.22298,-19.15896 2.78753,-42.28965 3.19929,-52.24775 0.51783,-12.52339 1.09779,-19.5184 1.87588,-19.52591 z"
           id="path5130"
           inkscape:original-d="m 443.56697,368.36448 c 0.4577,47.4283 2.7772,97.8976 -20.3806,141.034 -20.0747,34.7621 -60.7204,51.7718 -99.2781,54.9428 -39.357,4.2618 -78.37349,-10.5442 -110.00819,-33.2033 -12.3442,-8.2169 -24.2334,-17.0871 -36.23,-25.7963"
           inkscape:path-effect="#path-effect5132"
           style="fill:#0000ff;fill-opacity:1;fill-rule:evenodd;stroke:none;stroke-width:1px;stroke-linecap:butt;stroke-linejoin:miter;stroke-opacity:1" />
        <path
           inkscape:connector-curvature="0"
           d="m 279.65197,393.49908 c -0.0248,-0.0851 11.0044,-6.85056 32.51345,-10.79598 9.4826,-1.69858 22.2629,-2.59106 35.40993,1.12439 4.7409,2.65017 9.15955,6.3024 12.87421,10.8466 3.26824,4.12091 5.88856,8.81668 7.89321,13.88694 3.76102,9.54728 5.50764,19.87928 6.05719,30.73554 0.59478,14.69138 -1.48125,30.37674 -7.23049,45.51197 -1.96406,5.14129 -4.38107,10.20226 -7.26425,15.06384 -5.25302,8.85759 -11.82566,16.67136 -19.50609,23.0287 -11.00554,7.40108 -23.62936,10.73711 -35.34566,11.77666 -12.64759,1.10531 -25.20495,0.0605 -35.98074,-1.02838 -26.33273,-3.36929 -49.0786,-9.94347 -63.38458,-14.77228 -14.86909,-5.01888 -22.96502,-8.87334 -22.70827,-9.6438 0.31003,-0.93035 8.94181,1.31647 24.05148,4.89097 14.29827,3.38256 37.46532,8.6802 62.86305,11.05935 10.662,0.69343 22.7573,1.40908 34.23217,0.12777 10.47614,-1.15648 21.44757,-4.06178 30.31923,-10.28869 6.63929,-5.53864 12.34837,-12.44925 16.96708,-20.33412 2.53492,-4.3275 4.68238,-8.84848 6.45188,-13.44684 5.29677,-13.68037 7.35715,-28.04321 7.06921,-41.58473 -0.39612,-10.2096 -1.67851,-19.54246 -4.78336,-27.96603 -1.6315,-4.44694 -3.68786,-8.48847 -6.26711,-11.95954 -2.62096,-3.68153 -5.84929,-6.70546 -9.38312,-8.91455 -10.92957,-3.67664 -22.60434,-3.39776 -31.51619,-2.44054 -20.99128,2.17816 -32.75717,7.0942 -33.33223,5.12275 z"
           id="path5134"
           inkscape:original-d="m 279.65197,393.49908 c 21.3235,-6.2199 44.3421,-12.9461 66.3859,-6.1769 17.9156,10.5208 22.7649,32.9045 23.6291,52.1546 0.9149,29.2654 -9.233,60.3685 -32.2445,79.4851 -19.8102,13.5823 -45.0967,12.3533 -67.9389,10.4546 -29.50909,-3.2765 -58.38719,-10.8136 -86.50369,-20.1832"
           inkscape:path-effect="#path-effect5136"
           style="fill:#0000ff;fill-opacity:1;fill-rule:evenodd;stroke:none;stroke-width:1px;stroke-linecap:butt;stroke-linejoin:miter;stroke-opacity:1" />
        <path
           inkscape:connector-curvature="0"
           d="m 182.27278,505.59248 c 0.89642,1.15546 -7.93793,9.27374 -22.11934,22.35115 -13.97734,12.88923 -33.85652,31.28842 -52.98162,52.80324 -7.920832,8.91056 -15.028381,17.57218 -21.503462,26.10416 -9.86971,13.2887 -16.551651,24.43888 -21.151617,35.3212 -4.447473,10.52156 -5.941594,18.51977 -6.989028,23.60767 -0.164739,1.38175 -0.163308,2.11431 0.0018,2.86992 0.139892,0.64013 0.347457,1.03471 0.185144,1.24976 0.03715,-0.0492 -2.738614,0.25632 -3.106837,-4.19392 -0.503544,-5.20021 -0.170842,-14.19711 3.398115,-25.78929 3.671365,-11.9248 10.13884,-24.7113 20.01264,-38.64944 6.374364,-8.95214 13.575546,-18.01254 21.677826,-27.13133 19.72799,-22.20307 40.51363,-39.88214 55.90273,-51.61443 15.5015,-11.81798 25.88182,-17.94932 26.67363,-16.92869 z"
           id="path5138"
           inkscape:original-d="m 182.27278,505.59248 c -37.0837,28.7698 -72.5252,60.4963 -100.429304,98.4665 -13.1494,18.1354 -24.6141,38.8561 -25.7757,61.6838 0,1.5045 0.3693,3.1925 1.6469,4.1568"
           inkscape:path-effect="#path-effect5140"
           style="fill:#0000ff;fill-opacity:1;fill-rule:evenodd;stroke:none;stroke-width:1px;stroke-linecap:butt;stroke-linejoin:miter;stroke-opacity:1" />
        <path
           inkscape:connector-curvature="0"
           d="m 182.97988,507.71378 c -0.52439,3.09915 -25.33829,-3.60763 -63.55641,-0.24237 -17.94672,1.58938 -39.482762,5.9745 -58.898621,17.06834 -5.421413,3.16109 -10.476182,7.2242 -14.892829,12.04651 -2.943246,3.21358 -5.529389,6.68425 -7.719877,10.32477 -5.758109,9.6226 -8.712115,20.32382 -8.725867,30.4997 -0.816519,17.07446 2.8207,33.17089 7.189877,46.06497 6.636212,19.55756 18.616155,40.04505 20.227996,43.38673 0.284306,0.52238 0.519178,0.98331 0.702037,1.37925 0.455148,0.93943 0.599813,1.50329 0.40849,1.6579 -0.191339,0.15462 -0.712294,-0.10527 -1.54291,-0.7569 -0.3473,-0.28324 -0.750259,-0.63948 -1.208163,-1.06795 -4.017197,-4.13889 -16.591414,-19.66622 -25.681779,-41.94442 -5.410609,-13.23948 -9.946985,-30.14872 -9.545948,-48.83648 -0.219657,-11.9284 2.980026,-24.35346 9.629783,-35.49087 2.519003,-4.23909 5.502127,-8.26605 8.912741,-11.98545 5.11861,-5.58203 11.001203,-10.25542 17.345903,-13.8833 21.433698,-11.86231 44.392447,-15.92554 63.279457,-16.66809 19.30584,-0.76652 36.38771,1.55481 47.01232,3.54685 11.10666,2.08242 17.19446,4.1286 17.0638,4.90081 z"
           id="path5150"
           inkscape:original-d="m 182.97988,507.71378 c -41.4775,-7.0182 -87.064104,-8.7429 -124.905304,12.5232 -20.1255,11.6123 -33.8318,33.6693 -33.6135,57.1153 -1.111,32.6174 12.9845,63.8791 31.3228,90.1163 l 0.9551,1.2236 0.9757,1.2074"
           inkscape:path-effect="#path-effect5152"
           style="fill:#0000ff;fill-opacity:1;fill-rule:evenodd;stroke:none;stroke-width:1px;stroke-linecap:butt;stroke-linejoin:miter;stroke-opacity:1" />
        <path
           style="fill:#0000ff;fill-opacity:1;fill-rule:evenodd;stroke:none;stroke-width:1px;stroke-linecap:butt;stroke-linejoin:miter;stroke-opacity:1"
           inkscape:original-d="m 275.70061,337.95771 c 56.413,11.4178 116.1807,32.1287 173.1364,12.4951 32.78061,-15.3643 65.86611,-44.2109 104.55631,-33.2553 33.1386,6.8707 62.3716,25.1049 94.7227,34.4281 56.97771,-50.64694 106.52324,-181.04433 18.8555,-210.218 -51.2579,-24.5571 -113.8149,-26.2251 -156.3973,-67.604399 -46.58581,-33.0463 -115.99481,-41.9318 -162.19761,-3.3604 -52.5163,39.904099 -70.2031,108.527599 -74.7711,171.293199 -5.3626,53.9709 -0.078,109.1223 -11.70139,162.337 -15.3803,42.3778 -55.0868,68.1034 -81.3918,102.8485"
           id="path5791"
           d="m 275.70061,337.95771 c 0.0866,-0.42807 8.00741,0.72579 22.76662,3.67078 9.1999,1.83572 41.83254,9.01121 63.93302,11.87164 12.84989,1.66315 27.77122,2.87557 43.16296,2.03665 13.39646,-0.7141 27.84369,-3.05045 42.05761,-8.08417 4.71559,-2.25499 42.36837,-23.41169 49.77911,-26.82008 8.37716,-3.85876 17.56184,-7.19679 27.35954,-8.79006 9.57876,-1.56046 19.74457,-1.21996 29.57736,1.50263 16.57334,3.37093 32.19162,9.45699 48.35914,16.27239 14.27166,6.38863 29.37858,13.57278 44.56557,18.24059 14.43791,-13.32946 26.23974,-30.01759 36.15528,-48.6295 10.65805,-18.85502 19.32004,-39.67112 23.67974,-61.70612 1.94389,-9.83571 3.02661,-19.92243 2.61914,-29.95149 -0.37583,-9.0212 -1.91155,-18.04616 -5.23678,-26.32831 -3.13821,-7.85646 -7.94531,-15.13064 -14.16914,-20.90156 -6.97599,-6.48419 -15.76562,-11.18385 -25.1918,-14.34637 -12.56869,-6.01202 -25.91294,-10.64707 -39.69559,-14.92793 -12.93218,-4.00009 -28.06217,-8.16594 -41.41089,-12.38645 -3.42932,-1.08211 -6.86492,-2.2058 -10.29424,-3.38601 -10.30198,-3.54544 -20.42941,-7.56075 -30.19272,-12.46096 C 530.29293,96.22553 517.95963,87.881281 507.40191,77.615501 484.08395,61.069144 456.4778,51.547028 429.07422,50.137666 c -14.03603,-0.754931 -27.98893,0.658204 -41.04733,4.51509 -13.57361,4.014914 -26.15692,10.691115 -36.7184,19.4703 -12.66008,9.562861 -23.50456,21.140081 -32.37898,33.715654 -9.11397,12.92635 -16.23287,27.00213 -21.79704,41.26616 -11.98925,30.7213 -17.19871,63.15036 -19.54117,92.97414 -2.81585,26.85629 -3.10281,57.40032 -3.97178,81.21284 -1.13155,30.91463 -3.2964,56.66773 -8.97822,81.57302 -4.2161,11.27717 -10.08427,21.24465 -16.19888,29.71492 -6.98453,9.64271 -14.83502,18.20084 -21.6293,25.20018 -33.07395,34.10591 -8.96691,7.5065 -34.60879,34.65641 -7.66505,8.11583 -11.35445,12.74069 -11.69201,12.48513 -0.25137,-0.19031 2.87102,-5.25888 10.08416,-13.91177 12.01622,-14.41467 13.85935,-14.92067 33.20037,-36.07066 6.50994,-7.12592 14.02571,-15.75915 20.55519,-25.24849 5.68655,-8.23713 11.08775,-17.80046 14.81488,-28.40938 5.09352,-24.42887 6.7347,-49.56527 7.41878,-80.19689 0.53359,-23.74044 0.45201,-54.21623 3.03402,-81.69131 2.03442,-30.31647 7.10911,-63.52308 19.2687,-95.46519 5.66065,-14.86297 13.01825,-29.62468 22.54344,-43.33553 9.23785,-13.308628 20.6177,-25.594707 34.01289,-35.829739 11.4872,-9.627679 25.11147,-16.932471 39.84968,-21.318451 14.20498,-4.232902 29.24523,-5.831958 44.29492,-5.049019 29.49495,1.599079 59.0656,11.802209 84.15718,29.595839 9.89317,9.607302 21.60512,17.512336 34.26414,23.915592 9.22784,4.643634 18.9435,8.479798 28.96213,11.926378 3.33489,1.14726 6.69082,2.24708 10.05481,3.31423 13.03185,4.12572 28.25627,8.3309 41.34633,12.3928 13.80554,4.2663 27.40809,9.02229 40.45112,15.28057 10.35021,3.41858 20.14582,8.78355 28.20222,16.31667 7.33892,6.87601 12.92987,15.35213 16.53913,24.49936 3.76209,9.57795 5.48901,19.67872 5.8275,29.56888 0.38572,10.97038 -0.79935,21.80178 -2.91884,32.20041 -4.73253,23.24134 -13.85466,44.93565 -25.03601,64.39544 -11.84288,19.5609 -25.77155,37.2458 -42.46856,51.59189 -17.41973,-4.72862 -34.17928,-11.81516 -49.56657,-18.02691 -16.11709,-6.90065 -31.21177,-12.9871 -46.95413,-16.31631 -8.6951,-2.52381 -17.84675,-2.9396 -26.52178,-1.67009 -8.86633,1.30034 -17.46543,4.3386 -25.52982,7.89803 -6.42669,2.84167 -45.25752,23.83665 -50.345,26.17515 -15.1311,5.08198 -30.29038,7.2932 -44.23774,7.78822 -15.91262,0.54523 -31.09193,-1.02079 -44.08514,-3.04229 -24.00118,-3.73421 -53.16811,-11.42607 -63.81451,-14.14353 -14.55302,-3.71461 -22.29878,-5.68474 -22.2152,-6.0977 z"
           inkscape:connector-curvature="0"
           sodipodi:nodetypes="cccccccccc"
           inkscape:path-effect="#path-effect5793" />
      </g>
    </g>
    <path
       sodipodi:nodetypes="scccccssssssssccccscccs"
       inkscape:connector-curvature="0"
       id="path5938"
       d="m 381.53112,9.4230253 c -3.68776,0.029284 -7.34284,0.5437521 -10.83109,1.5832237 -4.45449,1.325643 -8.57238,3.533459 -12.04419,6.443285 -4.04857,3.093463 -7.48775,6.806392 -10.27974,10.828733 -2.87889,4.143986 -5.10257,8.605784 -6.81341,13.097903 -0.32431,0.851933 -0.62674,1.707306 -0.91853,2.564326 l -79.49769,0 c -0.35645,0 -0.64344,0.28699 -0.64344,0.643444 l 0,166.58209 c 0,0.35645 0.28699,0.64344 0.64344,0.64344 l 210.61367,0 c 0.35645,0 0.64344,-0.28699 0.64344,-0.64344 l 0,-166.58209 c 0,-0.356454 -0.28699,-0.643444 -0.64344,-0.643444 l -6.78331,0 c -2.35316,-2.420858 -5.28856,-4.313347 -8.60325,-5.324047 -3.93542,-1.889355 -8.0394,-3.324426 -12.20475,-4.611538 -3.95742,-1.227963 -8.55741,-2.498373 -12.49697,-3.745547 -0.92832,-0.29448 -1.85447,-0.597138 -2.77566,-0.911448 -3.12091,-1.064862 -6.14701,-2.250546 -9.01705,-3.694778 -3.82614,-1.935323 -7.36577,-4.324725 -10.35589,-7.228404 -7.58389,-5.378015 -16.52117,-8.4617975 -25.43548,-8.9450385 -0.85287,-0.044365 -1.70564,-0.063428 -2.55666,-0.05667 z"
       style="opacity:1;fill:none;fill-opacity:1;stroke:#000000;stroke-width:0.69787478;stroke-linejoin:round;stroke-miterlimit:4;stroke-dasharray:none;stroke-opacity:1" />
    <g
       id="g5940"
       style="font-style:normal;font-variant:normal;font-weight:normal;font-stretch:normal;font-size:80px;line-height:150%;font-family:'Vonique 64';-inkscape-font-specification:'Vonique 64, ';text-align:start;letter-spacing:0px;word-spacing:0px;text-anchor:start;fill:#0000ff;fill-opacity:1;stroke:none;stroke-width:1px;stroke-linecap:butt;stroke-linejoin:miter;stroke-opacity:1"
       transform="matrix(0.30224113,0,0,0.30224113,254.51606,-2.782912)">
      <path
         inkscape:connector-curvature="0"
         id="path5942"
         d="m 193.93993,611.29584 c 0.026,18.65885 0.0521,37.31771 0.0781,55.97656 -1.44531,0 -2.89063,0 -4.33594,0 0,-12.85156 0,-25.70313 0,-38.55469 -7.10937,12.85156 -14.21875,25.70313 -21.32812,38.55469 -7.04427,-12.72135 -14.08854,-25.44271 -21.13281,-38.16406 0,12.72135 0,25.44271 0,38.16406 -1.41927,0 -2.83855,0 -4.25782,0 0,-18.69792 0,-37.39583 0,-56.09375 8.54167,15.3125 17.08333,30.625 25.625,45.9375 8.45053,-15.27343 16.90104,-30.54691 25.35159,-45.82031 z"
         style="font-size:80px;fill:#0000ff;fill-opacity:1;stroke:none;stroke-opacity:1" />
      <path
         inkscape:connector-curvature="0"
         id="path5944"
         d="m 249.52586,638.71771 c 0.0542,8.86965 -3.89089,17.69234 -10.77229,23.33879 -7.91087,6.88051 -20.63869,7.13518 -28.82243,0.587 -7.12614,-5.47658 -11.39573,-14.29572 -11.48453,-23.26271 -0.0336,-9.3874 -0.005,-18.77544 -0.0145,-28.16308 1.31511,0 2.63021,0 3.94532,0 0.0354,9.65914 -0.072,19.32124 0.056,28.97847 0.40776,9.45496 6.50875,18.93694 15.71497,21.90021 7.04731,2.20319 15.18109,0.0775 20.18593,-5.37407 5.2175,-5.14882 7.56486,-12.6018 7.24624,-19.82701 0,-8.5592 0,-17.1184 0,-25.6776 1.3151,0 2.63021,0 3.94531,0 0,9.16667 0,18.33333 0,27.5 z"
         style="font-size:80px;fill:#0000ff;fill-opacity:1;stroke:none;stroke-opacity:1" />
      <path
         inkscape:connector-curvature="0"
         id="path5946"
         d="m 304.87743,611.29584 c 0.026,18.65885 0.0521,37.31771 0.0781,55.97656 -1.44531,0 -2.89063,0 -4.33594,0 0,-12.85156 0,-25.70313 0,-38.55469 -7.10937,12.85156 -14.21875,25.70313 -21.32812,38.55469 -7.04427,-12.72135 -14.08854,-25.44271 -21.13281,-38.16406 0,12.72135 0,25.44271 0,38.16406 -1.41927,0 -2.83855,0 -4.25782,0 0,-18.69792 0,-37.39583 0,-56.09375 8.54167,15.3125 17.08333,30.625 25.625,45.9375 8.45053,-15.27343 16.90104,-30.54691 25.35159,-45.82031 z"
         style="font-size:80px;fill:#0000ff;fill-opacity:1;stroke:none" />
      <path
         inkscape:connector-curvature="0"
         id="path5948"
         d="m 366.16649,667.35052 c -1.65365,0 -3.30729,0 -4.96094,0 -8.16406,-15.46875 -16.32813,-30.9375 -24.49219,-46.40625 -8.11198,15.46875 -16.22395,30.9375 -24.33593,46.40625 -1.73177,0 -3.46355,0 -5.19532,0 9.85472,-18.70518 19.62153,-37.45666 29.53125,-56.13285 9.86838,18.68433 19.62838,37.4256 29.45313,56.13285 z"
         style="font-size:80px;fill:#0000ff;fill-opacity:1;stroke:none;stroke-opacity:1" />
      <path
         inkscape:connector-curvature="0"
         id="path5950"
         d="m 373.78368,667.46771 c -1.36719,0 -2.73438,0 -4.10157,0 0,-18.72396 0,-37.44791 0,-56.17187 1.36719,0 2.73438,0 4.10157,0 0,18.72396 0,37.44791 0,56.17187 z m 12.5,-20.50781 c 12.2526,12.2526 24.50521,24.50521 36.75781,36.75781 -1.92708,0 -3.85417,0 -5.78125,0 -12.2526,-12.2526 -24.50521,-24.50521 -36.75781,-36.75781 11.97917,-11.9401 23.95833,-23.88021 35.9375,-35.82031 1.9401,0 3.88021,0 5.82031,0 -11.99219,11.9401 -23.98437,23.88021 -35.97656,35.82031 z"
         style="font-size:80px;fill:#0000ff;fill-opacity:1;stroke:none" />
      <path
         inkscape:connector-curvature="0"
         id="path5952"
         d="m 467.80711,651.3349 c -10.65104,0 -21.30208,0 -31.95312,0 0,-1.36719 0,-2.73437 0,-4.10156 10.65104,0 21.30208,0 31.95312,0 0,1.36719 0,2.73437 0,4.10156 z m 0.15625,-35.9375 c -12.85156,0 -25.70312,0 -38.55468,0 0,15.91146 0,31.82291 0,47.73437 12.85156,0 25.70312,0 38.55468,0 0,1.38021 0,2.76042 0,4.14063 -14.27083,0 -28.54167,0 -42.8125,0 0,-18.6849 0,-37.36979 0,-56.05469 14.27083,0 28.54167,0 42.8125,0 0,1.39323 0,2.78646 0,4.17969 z"
         style="font-size:80px;fill:#0000ff;fill-opacity:1;stroke:none" />
      <path
         inkscape:connector-curvature="0"
         id="path5954"
         d="m 511.24461,631.56927 c 0.51241,7.90747 -4.65527,15.86211 -12.16655,18.46329 -1.78586,1.21418 -5.13655,0.23794 -6.05127,2.35431 0.80785,1.25162 2.14198,2.08595 3.13895,3.20397 4.01067,3.89386 8.02133,7.78771 12.032,11.68156 -2.01823,0 -4.03646,0 -6.05469,0 -6.67798,-6.51215 -13.4241,-12.95468 -20.03906,-19.53125 6.2595,0.0883 13.12256,0.54914 18.58222,-3.09037 8.56523,-5.7744 8.57519,-20.23015 0.0984,-26.08791 -5.50798,-3.75657 -12.46096,-3.31489 -18.80659,-3.14953 -1.75359,0.64094 -5.31372,-1.35196 -5.58781,1.15958 0.11166,7.28635 0.0197,14.59007 0.0497,21.88369 0,9.60525 0,19.21049 0,28.81574 -1.36719,0 -2.73438,0 -4.10157,0 0,-18.64583 0,-37.29167 0,-55.9375 9.00377,0.46396 18.36942,-1.32225 27.04353,1.88756 6.69082,2.68775 11.88108,9.37132 11.81909,16.72649 0.031,0.53951 0.045,1.08001 0.0436,1.62037 z"
         style="font-size:80px;fill:#0000ff;fill-opacity:1;stroke:none" />
      <path
         inkscape:connector-curvature="0"
         id="path5956"
         d="m 519.1743,660.82709 c 1.48006,-0.0614 2.81933,1.03635 3.31595,2.38719 0.4309,1.08878 0.23155,2.3921 -0.50806,3.30082 -1.03046,1.33399 -3.07037,1.83081 -4.55139,0.97204 -1.63375,-0.86229 -2.32316,-3.11436 -1.43928,-4.74005 0.60195,-1.15423 1.86635,-1.9676 3.18278,-1.92 z"
         style="font-size:80px;fill:#0000ff;fill-opacity:1;stroke:none" />
      <path
         inkscape:connector-curvature="0"
         id="path5958"
         d="m 577.65086,611.29584 c 0,18.65885 0,37.31771 0,55.97656 -15.55181,-15.32015 -31.00828,-30.7366 -46.52347,-46.09375 0,15.36458 0,30.72917 0,46.09375 -1.36719,0 -2.73438,0 -4.10157,0 0,-18.65885 0,-37.31771 0,-55.97656 15.47531,15.42334 31.02019,30.77664 46.52344,46.17187 0,-15.39062 0,-30.78125 0,-46.17187 1.3672,0 2.7344,0 4.1016,0 z"
         style="font-size:80px;fill:#0000ff;fill-opacity:1;stroke:none;stroke-opacity:1" />
      <path
         inkscape:connector-curvature="0"
         id="path5960"
         d="m 626.71336,651.3349 c -10.65104,0 -21.30208,0 -31.95312,0 0,-1.36719 0,-2.73437 0,-4.10156 10.65104,0 21.30208,0 31.95312,0 0,1.36719 0,2.73437 0,4.10156 z m 0.15625,-35.9375 c -12.85156,0 -25.70312,0 -38.55468,0 0,15.91146 0,31.82291 0,47.73437 12.85156,0 25.70312,0 38.55468,0 0,1.38021 0,2.76042 0,4.14063 -14.27083,0 -28.54167,0 -42.8125,0 0,-18.6849 0,-37.36979 0,-56.05469 14.27083,0 28.54167,0 42.8125,0 0,1.39323 0,2.78646 0,4.17969 z"
         style="font-size:80px;fill:#0000ff;fill-opacity:1;stroke:none" />
      <path
         inkscape:connector-curvature="0"
         id="path5962"
         d="m 671.20555,615.43646 c -6.35417,0 -12.70833,0 -19.0625,0 0,17.27865 0,34.55729 0,51.83594 -1.36719,0 -2.73437,0 -4.10156,0 0,-17.27865 0,-34.55729 0,-51.83594 -6.32813,0 -12.65625,0 -18.98438,0 0,-1.36719 0,-2.73437 0,-4.10156 14.04948,0 28.09896,0 42.14844,0 0,1.36719 0,2.73437 0,4.10156 z"
         style="font-size:80px;fill:#0000ff;fill-opacity:1;stroke:none" />
    </g>
    <g
       id="g5964"
       transform="matrix(0.30224113,0,0,0.30224113,254.51606,-2.782912)">
      <path
         inkscape:connector-curvature="0"
         d="m 443.56697,368.36448 c 0.7175,-0.007 1.56098,6.96281 2.31917,19.48551 0.67257,11.10859 1.61989,32.06117 0.087,52.99373 0,0 0,10e-6 0,10e-6 -1.49809,20.57803 -5.90455,46.56224 -18.64801,70.86002 -9.79377,17.15691 -25.37819,31.59587 -44.5622,41.4554 -2.75311,1.4173 -5.56404,2.74512 -8.42848,3.98294 -16.38761,7.08164 -33.52483,10.79012 -49.96546,12.03653 -21.65187,2.20011 -42.2455,-1.35429 -59.67686,-7.25817 -21.90702,-7.39527 -39.67451,-18.45024 -52.53273,-28.26219 0,0 -1e-5,-1e-5 -1e-5,-1e-5 -22.82255,-16.20982 -34.85653,-27.81076 -34.48933,-28.31657 0.99024,-1.36402 14.35863,8.58167 37.97065,23.27602 0,0 1e-5,0 1e-5,0 13.04986,8.74627 30.66812,18.69871 51.68374,25.13178 16.6966,5.09096 36.1442,8.06221 56.12305,5.75446 15.53773,-1.38344 31.64918,-4.94555 46.90581,-11.53184 2.66847,-1.15198 5.2833,-2.38472 7.8406,-3.69816 17.606,-9.05887 31.94276,-21.94784 40.85365,-37.18073 12.25027,-22.2602 17.12942,-47.09424 19.44421,-66.95506 0,0 0,-10e-6 0,-10e-6 2.22298,-19.15896 2.78753,-42.28965 3.19929,-52.24775 0.51783,-12.52339 1.09779,-19.5184 1.87588,-19.52591 z"
         id="path5966"
         inkscape:original-d="m 443.56697,368.36448 c 0.4577,47.4283 2.7772,97.8976 -20.3806,141.034 -20.0747,34.7621 -60.7204,51.7718 -99.2781,54.9428 -39.357,4.2618 -78.37349,-10.5442 -110.00819,-33.2033 -12.3442,-8.2169 -24.2334,-17.0871 -36.23,-25.7963"
         inkscape:path-effect="#path-effect5132"
         style="fill:#0000ff;fill-opacity:1;fill-rule:evenodd;stroke:none;stroke-width:1px;stroke-linecap:butt;stroke-linejoin:miter;stroke-opacity:1" />
      <path
         inkscape:connector-curvature="0"
         d="m 279.65197,393.49908 c -0.0248,-0.0851 11.0044,-6.85056 32.51345,-10.79598 9.4826,-1.69858 22.2629,-2.59106 35.40993,1.12439 4.7409,2.65017 9.15955,6.3024 12.87421,10.8466 3.26824,4.12091 5.88856,8.81668 7.89321,13.88694 3.76102,9.54728 5.50764,19.87928 6.05719,30.73554 0.59478,14.69138 -1.48125,30.37674 -7.23049,45.51197 -1.96406,5.14129 -4.38107,10.20226 -7.26425,15.06384 -5.25302,8.85759 -11.82566,16.67136 -19.50609,23.0287 -11.00554,7.40108 -23.62936,10.73711 -35.34566,11.77666 -12.64759,1.10531 -25.20495,0.0605 -35.98074,-1.02838 -26.33273,-3.36929 -49.0786,-9.94347 -63.38458,-14.77228 -14.86909,-5.01888 -22.96502,-8.87334 -22.70827,-9.6438 0.31003,-0.93035 8.94181,1.31647 24.05148,4.89097 14.29827,3.38256 37.46532,8.6802 62.86305,11.05935 10.662,0.69343 22.7573,1.40908 34.23217,0.12777 10.47614,-1.15648 21.44757,-4.06178 30.31923,-10.28869 6.63929,-5.53864 12.34837,-12.44925 16.96708,-20.33412 2.53492,-4.3275 4.68238,-8.84848 6.45188,-13.44684 5.29677,-13.68037 7.35715,-28.04321 7.06921,-41.58473 -0.39612,-10.2096 -1.67851,-19.54246 -4.78336,-27.96603 -1.6315,-4.44694 -3.68786,-8.48847 -6.26711,-11.95954 -2.62096,-3.68153 -5.84929,-6.70546 -9.38312,-8.91455 -10.92957,-3.67664 -22.60434,-3.39776 -31.51619,-2.44054 -20.99128,2.17816 -32.75717,7.0942 -33.33223,5.12275 z"
         id="path5968"
         inkscape:original-d="m 279.65197,393.49908 c 21.3235,-6.2199 44.3421,-12.9461 66.3859,-6.1769 17.9156,10.5208 22.7649,32.9045 23.6291,52.1546 0.9149,29.2654 -9.233,60.3685 -32.2445,79.4851 -19.8102,13.5823 -45.0967,12.3533 -67.9389,10.4546 -29.50909,-3.2765 -58.38719,-10.8136 -86.50369,-20.1832"
         inkscape:path-effect="#path-effect5136"
         style="fill:#0000ff;fill-opacity:1;fill-rule:evenodd;stroke:none;stroke-width:1px;stroke-linecap:butt;stroke-linejoin:miter;stroke-opacity:1" />
      <path
         inkscape:connector-curvature="0"
         d="m 182.27278,505.59248 c 0.89642,1.15546 -7.93793,9.27374 -22.11934,22.35115 -13.97734,12.88923 -33.85652,31.28842 -52.98162,52.80324 -7.920832,8.91056 -15.028381,17.57218 -21.503462,26.10416 -9.86971,13.2887 -16.551651,24.43888 -21.151617,35.3212 -4.447473,10.52156 -5.941594,18.51977 -6.989028,23.60767 -0.164739,1.38175 -0.163308,2.11431 0.0018,2.86992 0.139892,0.64013 0.347457,1.03471 0.185144,1.24976 0.03715,-0.0492 -2.738614,0.25632 -3.106837,-4.19392 -0.503544,-5.20021 -0.170842,-14.19711 3.398115,-25.78929 3.671365,-11.9248 10.13884,-24.7113 20.01264,-38.64944 6.374364,-8.95214 13.575546,-18.01254 21.677826,-27.13133 19.72799,-22.20307 40.51363,-39.88214 55.90273,-51.61443 15.5015,-11.81798 25.88182,-17.94932 26.67363,-16.92869 z"
         id="path5970"
         inkscape:original-d="m 182.27278,505.59248 c -37.0837,28.7698 -72.5252,60.4963 -100.429304,98.4665 -13.1494,18.1354 -24.6141,38.8561 -25.7757,61.6838 0,1.5045 0.3693,3.1925 1.6469,4.1568"
         inkscape:path-effect="#path-effect5140"
         style="fill:#0000ff;fill-opacity:1;fill-rule:evenodd;stroke:none;stroke-width:1px;stroke-linecap:butt;stroke-linejoin:miter;stroke-opacity:1" />
      <path
         inkscape:connector-curvature="0"
         d="m 182.97988,507.71378 c -0.52439,3.09915 -25.33829,-3.60763 -63.55641,-0.24237 -17.94672,1.58938 -39.482762,5.9745 -58.898621,17.06834 -5.421413,3.16109 -10.476182,7.2242 -14.892829,12.04651 -2.943246,3.21358 -5.529389,6.68425 -7.719877,10.32477 -5.758109,9.6226 -8.712115,20.32382 -8.725867,30.4997 -0.816519,17.07446 2.8207,33.17089 7.189877,46.06497 6.636212,19.55756 18.616155,40.04505 20.227996,43.38673 0.284306,0.52238 0.519178,0.98331 0.702037,1.37925 0.455148,0.93943 0.599813,1.50329 0.40849,1.6579 -0.191339,0.15462 -0.712294,-0.10527 -1.54291,-0.7569 -0.3473,-0.28324 -0.750259,-0.63948 -1.208163,-1.06795 -4.017197,-4.13889 -16.591414,-19.66622 -25.681779,-41.94442 -5.410609,-13.23948 -9.946985,-30.14872 -9.545948,-48.83648 -0.219657,-11.9284 2.980026,-24.35346 9.629783,-35.49087 2.519003,-4.23909 5.502127,-8.26605 8.912741,-11.98545 5.11861,-5.58203 11.001203,-10.25542 17.345903,-13.8833 21.433698,-11.86231 44.392447,-15.92554 63.279457,-16.66809 19.30584,-0.76652 36.38771,1.55481 47.01232,3.54685 11.10666,2.08242 17.19446,4.1286 17.0638,4.90081 z"
         id="path5972"
         inkscape:original-d="m 182.97988,507.71378 c -41.4775,-7.0182 -87.064104,-8.7429 -124.905304,12.5232 -20.1255,11.6123 -33.8318,33.6693 -33.6135,57.1153 -1.111,32.6174 12.9845,63.8791 31.3228,90.1163 l 0.9551,1.2236 0.9757,1.2074"
         inkscape:path-effect="#path-effect5152"
         style="fill:#0000ff;fill-opacity:1;fill-rule:evenodd;stroke:none;stroke-width:1px;stroke-linecap:butt;stroke-linejoin:miter;stroke-opacity:1" />
      <path
         style="fill:#0000ff;fill-opacity:1;fill-rule:evenodd;stroke:none;stroke-width:1px;stroke-linecap:butt;stroke-linejoin:miter;stroke-opacity:1"
         inkscape:original-d="m 275.70061,337.95771 c 56.413,11.4178 116.1807,32.1287 173.1364,12.4951 32.78061,-15.3643 65.86611,-44.2109 104.55631,-33.2553 33.1386,6.8707 62.3716,25.1049 94.7227,34.4281 56.97771,-50.64694 106.52324,-181.04433 18.8555,-210.218 -51.2579,-24.5571 -113.8149,-26.2251 -156.3973,-67.604399 -46.58581,-33.0463 -115.99481,-41.9318 -162.19761,-3.3604 -52.5163,39.904099 -70.2031,108.527599 -74.7711,171.293199 -5.3626,53.9709 -0.078,109.1223 -11.70139,162.337 -15.3803,42.3778 -55.0868,68.1034 -81.3918,102.8485"
         id="path5974"
         d="m 275.70061,337.95771 c 0.0866,-0.42807 8.00741,0.72579 22.76662,3.67078 9.1999,1.83572 41.83254,9.01121 63.93302,11.87164 12.84989,1.66315 27.77122,2.87557 43.16296,2.03665 13.39646,-0.7141 27.84369,-3.05045 42.05761,-8.08417 4.71559,-2.25499 42.36837,-23.41169 49.77911,-26.82008 8.37716,-3.85876 17.56184,-7.19679 27.35954,-8.79006 9.57876,-1.56046 19.74457,-1.21996 29.57736,1.50263 16.57334,3.37093 32.19162,9.45699 48.35914,16.27239 14.27166,6.38863 29.37858,13.57278 44.56557,18.24059 14.43791,-13.32946 26.23974,-30.01759 36.15528,-48.6295 10.65805,-18.85502 19.32004,-39.67112 23.67974,-61.70612 1.94389,-9.83571 3.02661,-19.92243 2.61914,-29.95149 -0.37583,-9.0212 -1.91155,-18.04616 -5.23678,-26.32831 -3.13821,-7.85646 -7.94531,-15.13064 -14.16914,-20.90156 -6.97599,-6.48419 -15.76562,-11.18385 -25.1918,-14.34637 -12.56869,-6.01202 -25.91294,-10.64707 -39.69559,-14.92793 -12.93218,-4.00009 -28.06217,-8.16594 -41.41089,-12.38645 -3.42932,-1.08211 -6.86492,-2.2058 -10.29424,-3.38601 -10.30198,-3.54544 -20.42941,-7.56075 -30.19272,-12.46096 C 530.29293,96.22553 517.95963,87.881281 507.40191,77.615501 484.08395,61.069144 456.4778,51.547028 429.07422,50.137666 c -14.03603,-0.754931 -27.98893,0.658204 -41.04733,4.51509 -13.57361,4.014914 -26.15692,10.691115 -36.7184,19.4703 -12.66008,9.562861 -23.50456,21.140081 -32.37898,33.715654 -9.11397,12.92635 -16.23287,27.00213 -21.79704,41.26616 -11.98925,30.7213 -17.19871,63.15036 -19.54117,92.97414 -2.81585,26.85629 -3.10281,57.40032 -3.97178,81.21284 -1.13155,30.91463 -3.2964,56.66773 -8.97822,81.57302 -4.2161,11.27717 -10.08427,21.24465 -16.19888,29.71492 -6.98453,9.64271 -14.83502,18.20084 -21.6293,25.20018 -33.07395,34.10591 -8.96691,7.5065 -34.60879,34.65641 -7.66505,8.11583 -11.35445,12.74069 -11.69201,12.48513 -0.25137,-0.19031 2.87102,-5.25888 10.08416,-13.91177 12.01622,-14.41467 13.85935,-14.92067 33.20037,-36.07066 6.50994,-7.12592 14.02571,-15.75915 20.55519,-25.24849 5.68655,-8.23713 11.08775,-17.80046 14.81488,-28.40938 5.09352,-24.42887 6.7347,-49.56527 7.41878,-80.19689 0.53359,-23.74044 0.45201,-54.21623 3.03402,-81.69131 2.03442,-30.31647 7.10911,-63.52308 19.2687,-95.46519 5.66065,-14.86297 13.01825,-29.62468 22.54344,-43.33553 9.23785,-13.308628 20.6177,-25.594707 34.01289,-35.829739 11.4872,-9.627679 25.11147,-16.932471 39.84968,-21.318451 14.20498,-4.232902 29.24523,-5.831958 44.29492,-5.049019 29.49495,1.599079 59.0656,11.802209 84.15718,29.595839 9.89317,9.607302 21.60512,17.512336 34.26414,23.915592 9.22784,4.643634 18.9435,8.479798 28.96213,11.926378 3.33489,1.14726 6.69082,2.24708 10.05481,3.31423 13.03185,4.12572 28.25627,8.3309 41.34633,12.3928 13.80554,4.2663 27.40809,9.02229 40.45112,15.28057 10.35021,3.41858 20.14582,8.78355 28.20222,16.31667 7.33892,6.87601 12.92987,15.35213 16.53913,24.49936 3.76209,9.57795 5.48901,19.67872 5.8275,29.56888 0.38572,10.97038 -0.79935,21.80178 -2.91884,32.20041 -4.73253,23.24134 -13.85466,44.93565 -25.03601,64.39544 -11.84288,19.5609 -25.77155,37.2458 -42.46856,51.59189 -17.41973,-4.72862 -34.17928,-11.81516 -49.56657,-18.02691 -16.11709,-6.90065 -31.21177,-12.9871 -46.95413,-16.31631 -8.6951,-2.52381 -17.84675,-2.9396 -26.52178,-1.67009 -8.86633,1.30034 -17.46543,4.3386 -25.52982,7.89803 -6.42669,2.84167 -45.25752,23.83665 -50.345,26.17515 -15.1311,5.08198 -30.29038,7.2932 -44.23774,7.78822 -15.91262,0.54523 -31.09193,-1.02079 -44.08514,-3.04229 -24.00118,-3.73421 -53.16811,-11.42607 -63.81451,-14.14353 -14.55302,-3.71461 -22.29878,-5.68474 -22.2152,-6.0977 z"
         inkscape:connector-curvature="0"
         sodipodi:nodetypes="cccccccccc"
         inkscape:path-effect="#path-effect5793" />
    </g>
    <path
       style="opacity:1;fill:none;fill-opacity:1;stroke:#000000;stroke-width:0.69787478;stroke-linejoin:round;stroke-miterlimit:4;stroke-dasharray:none;stroke-opacity:1"
       d="m 621.03112,9.4230253 c -3.68776,0.029284 -7.34284,0.5437521 -10.83109,1.5832237 -4.45449,1.325643 -8.57238,3.533459 -12.04419,6.443285 -4.04857,3.093463 -7.48775,6.806392 -10.27974,10.828733 -2.87889,4.143986 -5.10257,8.605784 -6.81341,13.097903 -0.32431,0.851933 -0.62674,1.707306 -0.91853,2.564326 l -79.49769,0 c -0.35645,0 -0.64344,0.28699 -0.64344,0.643444 l 0,166.58209 c 0,0.35645 0.28699,0.64344 0.64344,0.64344 l 210.61367,0 c 0.35645,0 0.64344,-0.28699 0.64344,-0.64344 l 0,-166.58209 c 0,-0.356454 -0.28699,-0.643444 -0.64344,-0.643444 l -6.78331,0 c -2.35316,-2.420858 -5.28856,-4.313347 -8.60325,-5.324047 -3.93542,-1.889355 -8.0394,-3.324426 -12.20475,-4.611538 -3.95742,-1.227963 -8.55741,-2.498373 -12.49697,-3.745547 -0.92832,-0.29448 -1.85447,-0.597138 -2.77566,-0.911448 -3.12091,-1.064862 -6.14701,-2.250546 -9.01705,-3.694778 -3.82614,-1.935323 -7.36577,-4.324725 -10.35589,-7.228404 -7.58389,-5.378015 -16.52117,-8.4617975 -25.43548,-8.9450385 -0.85287,-0.044365 -1.70564,-0.063428 -2.55666,-0.05667 z"
       id="path5978"
       inkscape:connector-curvature="0"
       sodipodi:nodetypes="scccccssssssssccccscccs" />
    <g
       style="font-style:normal;font-variant:normal;font-weight:normal;font-stretch:normal;font-size:80px;line-height:150%;font-family:'Vonique 64';-inkscape-font-specification:'Vonique 64, ';text-align:start;letter-spacing:0px;word-spacing:0px;text-anchor:start;fill:#000000;fill-opacity:1;stroke:none;stroke-width:1px;stroke-linecap:butt;stroke-linejoin:miter;stroke-opacity:1"
       id="g5980"
       transform="matrix(0.30224113,0,0,0.30224113,494.01606,-2.782912)">
      <path
         style="font-size:80px;fill:#000000;fill-opacity:1;stroke:none;stroke-opacity:1"
         d="m 193.93993,611.29584 c 0.026,18.65885 0.0521,37.31771 0.0781,55.97656 -1.44531,0 -2.89063,0 -4.33594,0 0,-12.85156 0,-25.70313 0,-38.55469 -7.10937,12.85156 -14.21875,25.70313 -21.32812,38.55469 -7.04427,-12.72135 -14.08854,-25.44271 -21.13281,-38.16406 0,12.72135 0,25.44271 0,38.16406 -1.41927,0 -2.83855,0 -4.25782,0 0,-18.69792 0,-37.39583 0,-56.09375 8.54167,15.3125 17.08333,30.625 25.625,45.9375 8.45053,-15.27343 16.90104,-30.54691 25.35159,-45.82031 z"
         id="path5982"
         inkscape:connector-curvature="0" />
      <path
         style="font-size:80px;fill:#000000;fill-opacity:1;stroke:none;stroke-opacity:1"
         d="m 249.52586,638.71771 c 0.0542,8.86965 -3.89089,17.69234 -10.77229,23.33879 -7.91087,6.88051 -20.63869,7.13518 -28.82243,0.587 -7.12614,-5.47658 -11.39573,-14.29572 -11.48453,-23.26271 -0.0336,-9.3874 -0.005,-18.77544 -0.0145,-28.16308 1.31511,0 2.63021,0 3.94532,0 0.0354,9.65914 -0.072,19.32124 0.056,28.97847 0.40776,9.45496 6.50875,18.93694 15.71497,21.90021 7.04731,2.20319 15.18109,0.0775 20.18593,-5.37407 5.2175,-5.14882 7.56486,-12.6018 7.24624,-19.82701 0,-8.5592 0,-17.1184 0,-25.6776 1.3151,0 2.63021,0 3.94531,0 0,9.16667 0,18.33333 0,27.5 z"
         id="path5984"
         inkscape:connector-curvature="0" />
      <path
         style="font-size:80px;fill:#000000;fill-opacity:1;stroke:none"
         d="m 304.87743,611.29584 c 0.026,18.65885 0.0521,37.31771 0.0781,55.97656 -1.44531,0 -2.89063,0 -4.33594,0 0,-12.85156 0,-25.70313 0,-38.55469 -7.10937,12.85156 -14.21875,25.70313 -21.32812,38.55469 -7.04427,-12.72135 -14.08854,-25.44271 -21.13281,-38.16406 0,12.72135 0,25.44271 0,38.16406 -1.41927,0 -2.83855,0 -4.25782,0 0,-18.69792 0,-37.39583 0,-56.09375 8.54167,15.3125 17.08333,30.625 25.625,45.9375 8.45053,-15.27343 16.90104,-30.54691 25.35159,-45.82031 z"
         id="path5986"
         inkscape:connector-curvature="0" />
      <path
         style="font-size:80px;fill:#000000;fill-opacity:1;stroke:none;stroke-opacity:1"
         d="m 366.16649,667.35052 c -1.65365,0 -3.30729,0 -4.96094,0 -8.16406,-15.46875 -16.32813,-30.9375 -24.49219,-46.40625 -8.11198,15.46875 -16.22395,30.9375 -24.33593,46.40625 -1.73177,0 -3.46355,0 -5.19532,0 9.85472,-18.70518 19.62153,-37.45666 29.53125,-56.13285 9.86838,18.68433 19.62838,37.4256 29.45313,56.13285 z"
         id="path5988"
         inkscape:connector-curvature="0" />
      <path
         style="font-size:80px;fill:#000000;fill-opacity:1;stroke:none"
         d="m 373.78368,667.46771 c -1.36719,0 -2.73438,0 -4.10157,0 0,-18.72396 0,-37.44791 0,-56.17187 1.36719,0 2.73438,0 4.10157,0 0,18.72396 0,37.44791 0,56.17187 z m 12.5,-20.50781 c 12.2526,12.2526 24.50521,24.50521 36.75781,36.75781 -1.92708,0 -3.85417,0 -5.78125,0 -12.2526,-12.2526 -24.50521,-24.50521 -36.75781,-36.75781 11.97917,-11.9401 23.95833,-23.88021 35.9375,-35.82031 1.9401,0 3.88021,0 5.82031,0 -11.99219,11.9401 -23.98437,23.88021 -35.97656,35.82031 z"
         id="path5990"
         inkscape:connector-curvature="0" />
      <path
         style="font-size:80px;fill:#000000;fill-opacity:1;stroke:none"
         d="m 467.80711,651.3349 c -10.65104,0 -21.30208,0 -31.95312,0 0,-1.36719 0,-2.73437 0,-4.10156 10.65104,0 21.30208,0 31.95312,0 0,1.36719 0,2.73437 0,4.10156 z m 0.15625,-35.9375 c -12.85156,0 -25.70312,0 -38.55468,0 0,15.91146 0,31.82291 0,47.73437 12.85156,0 25.70312,0 38.55468,0 0,1.38021 0,2.76042 0,4.14063 -14.27083,0 -28.54167,0 -42.8125,0 0,-18.6849 0,-37.36979 0,-56.05469 14.27083,0 28.54167,0 42.8125,0 0,1.39323 0,2.78646 0,4.17969 z"
         id="path5992"
         inkscape:connector-curvature="0" />
      <path
         style="font-size:80px;fill:#000000;fill-opacity:1;stroke:none"
         d="m 511.24461,631.56927 c 0.51241,7.90747 -4.65527,15.86211 -12.16655,18.46329 -1.78586,1.21418 -5.13655,0.23794 -6.05127,2.35431 0.80785,1.25162 2.14198,2.08595 3.13895,3.20397 4.01067,3.89386 8.02133,7.78771 12.032,11.68156 -2.01823,0 -4.03646,0 -6.05469,0 -6.67798,-6.51215 -13.4241,-12.95468 -20.03906,-19.53125 6.2595,0.0883 13.12256,0.54914 18.58222,-3.09037 8.56523,-5.7744 8.57519,-20.23015 0.0984,-26.08791 -5.50798,-3.75657 -12.46096,-3.31489 -18.80659,-3.14953 -1.75359,0.64094 -5.31372,-1.35196 -5.58781,1.15958 0.11166,7.28635 0.0197,14.59007 0.0497,21.88369 0,9.60525 0,19.21049 0,28.81574 -1.36719,0 -2.73438,0 -4.10157,0 0,-18.64583 0,-37.29167 0,-55.9375 9.00377,0.46396 18.36942,-1.32225 27.04353,1.88756 6.69082,2.68775 11.88108,9.37132 11.81909,16.72649 0.031,0.53951 0.045,1.08001 0.0436,1.62037 z"
         id="path5994"
         inkscape:connector-curvature="0" />
      <path
         style="font-size:80px;fill:#000000;fill-opacity:1;stroke:none"
         d="m 519.1743,660.82709 c 1.48006,-0.0614 2.81933,1.03635 3.31595,2.38719 0.4309,1.08878 0.23155,2.3921 -0.50806,3.30082 -1.03046,1.33399 -3.07037,1.83081 -4.55139,0.97204 -1.63375,-0.86229 -2.32316,-3.11436 -1.43928,-4.74005 0.60195,-1.15423 1.86635,-1.9676 3.18278,-1.92 z"
         id="path5996"
         inkscape:connector-curvature="0" />
      <path
         style="font-size:80px;fill:#000000;fill-opacity:1;stroke:none;stroke-opacity:1"
         d="m 577.65086,611.29584 c 0,18.65885 0,37.31771 0,55.97656 -15.55181,-15.32015 -31.00828,-30.7366 -46.52347,-46.09375 0,15.36458 0,30.72917 0,46.09375 -1.36719,0 -2.73438,0 -4.10157,0 0,-18.65885 0,-37.31771 0,-55.97656 15.47531,15.42334 31.02019,30.77664 46.52344,46.17187 0,-15.39062 0,-30.78125 0,-46.17187 1.3672,0 2.7344,0 4.1016,0 z"
         id="path5998"
         inkscape:connector-curvature="0" />
      <path
         style="font-size:80px;fill:#000000;fill-opacity:1;stroke:none"
         d="m 626.71336,651.3349 c -10.65104,0 -21.30208,0 -31.95312,0 0,-1.36719 0,-2.73437 0,-4.10156 10.65104,0 21.30208,0 31.95312,0 0,1.36719 0,2.73437 0,4.10156 z m 0.15625,-35.9375 c -12.85156,0 -25.70312,0 -38.55468,0 0,15.91146 0,31.82291 0,47.73437 12.85156,0 25.70312,0 38.55468,0 0,1.38021 0,2.76042 0,4.14063 -14.27083,0 -28.54167,0 -42.8125,0 0,-18.6849 0,-37.36979 0,-56.05469 14.27083,0 28.54167,0 42.8125,0 0,1.39323 0,2.78646 0,4.17969 z"
         id="path6000"
         inkscape:connector-curvature="0" />
      <path
         style="font-size:80px;fill:#000000;fill-opacity:1;stroke:none"
         d="m 671.20555,615.43646 c -6.35417,0 -12.70833,0 -19.0625,0 0,17.27865 0,34.55729 0,51.83594 -1.36719,0 -2.73437,0 -4.10156,0 0,-17.27865 0,-34.55729 0,-51.83594 -6.32813,0 -12.65625,0 -18.98438,0 0,-1.36719 0,-2.73437 0,-4.10156 14.04948,0 28.09896,0 42.14844,0 0,1.36719 0,2.73437 0,4.10156 z"
         id="path6002"
         inkscape:connector-curvature="0" />
    </g>
    <g
       id="g6004"
       transform="matrix(0.30224113,0,0,0.30224113,494.01606,-2.782912)">
      <path
         style="fill:#000000;fill-opacity:1;fill-rule:evenodd;stroke:none;stroke-width:1px;stroke-linecap:butt;stroke-linejoin:miter;stroke-opacity:1"
         inkscape:path-effect="#path-effect5132"
         inkscape:original-d="m 443.56697,368.36448 c 0.4577,47.4283 2.7772,97.8976 -20.3806,141.034 -20.0747,34.7621 -60.7204,51.7718 -99.2781,54.9428 -39.357,4.2618 -78.37349,-10.5442 -110.00819,-33.2033 -12.3442,-8.2169 -24.2334,-17.0871 -36.23,-25.7963"
         id="path6006"
         d="m 443.56697,368.36448 c 0.7175,-0.007 1.56098,6.96281 2.31917,19.48551 0.67257,11.10859 1.61989,32.06117 0.087,52.99373 0,0 0,10e-6 0,10e-6 -1.49809,20.57803 -5.90455,46.56224 -18.64801,70.86002 -9.79377,17.15691 -25.37819,31.59587 -44.5622,41.4554 -2.75311,1.4173 -5.56404,2.74512 -8.42848,3.98294 -16.38761,7.08164 -33.52483,10.79012 -49.96546,12.03653 -21.65187,2.20011 -42.2455,-1.35429 -59.67686,-7.25817 -21.90702,-7.39527 -39.67451,-18.45024 -52.53273,-28.26219 0,0 -1e-5,-1e-5 -1e-5,-1e-5 -22.82255,-16.20982 -34.85653,-27.81076 -34.48933,-28.31657 0.99024,-1.36402 14.35863,8.58167 37.97065,23.27602 0,0 1e-5,0 1e-5,0 13.04986,8.74627 30.66812,18.69871 51.68374,25.13178 16.6966,5.09096 36.1442,8.06221 56.12305,5.75446 15.53773,-1.38344 31.64918,-4.94555 46.90581,-11.53184 2.66847,-1.15198 5.2833,-2.38472 7.8406,-3.69816 17.606,-9.05887 31.94276,-21.94784 40.85365,-37.18073 12.25027,-22.2602 17.12942,-47.09424 19.44421,-66.95506 0,0 0,-10e-6 0,-10e-6 2.22298,-19.15896 2.78753,-42.28965 3.19929,-52.24775 0.51783,-12.52339 1.09779,-19.5184 1.87588,-19.52591 z"
         inkscape:connector-curvature="0" />
      <path
         style="fill:#000000;fill-opacity:1;fill-rule:evenodd;stroke:none;stroke-width:1px;stroke-linecap:butt;stroke-linejoin:miter;stroke-opacity:1"
         inkscape:path-effect="#path-effect5136"
         inkscape:original-d="m 279.65197,393.49908 c 21.3235,-6.2199 44.3421,-12.9461 66.3859,-6.1769 17.9156,10.5208 22.7649,32.9045 23.6291,52.1546 0.9149,29.2654 -9.233,60.3685 -32.2445,79.4851 -19.8102,13.5823 -45.0967,12.3533 -67.9389,10.4546 -29.50909,-3.2765 -58.38719,-10.8136 -86.50369,-20.1832"
         id="path6008"
         d="m 279.65197,393.49908 c -0.0248,-0.0851 11.0044,-6.85056 32.51345,-10.79598 9.4826,-1.69858 22.2629,-2.59106 35.40993,1.12439 4.7409,2.65017 9.15955,6.3024 12.87421,10.8466 3.26824,4.12091 5.88856,8.81668 7.89321,13.88694 3.76102,9.54728 5.50764,19.87928 6.05719,30.73554 0.59478,14.69138 -1.48125,30.37674 -7.23049,45.51197 -1.96406,5.14129 -4.38107,10.20226 -7.26425,15.06384 -5.25302,8.85759 -11.82566,16.67136 -19.50609,23.0287 -11.00554,7.40108 -23.62936,10.73711 -35.34566,11.77666 -12.64759,1.10531 -25.20495,0.0605 -35.98074,-1.02838 -26.33273,-3.36929 -49.0786,-9.94347 -63.38458,-14.77228 -14.86909,-5.01888 -22.96502,-8.87334 -22.70827,-9.6438 0.31003,-0.93035 8.94181,1.31647 24.05148,4.89097 14.29827,3.38256 37.46532,8.6802 62.86305,11.05935 10.662,0.69343 22.7573,1.40908 34.23217,0.12777 10.47614,-1.15648 21.44757,-4.06178 30.31923,-10.28869 6.63929,-5.53864 12.34837,-12.44925 16.96708,-20.33412 2.53492,-4.3275 4.68238,-8.84848 6.45188,-13.44684 5.29677,-13.68037 7.35715,-28.04321 7.06921,-41.58473 -0.39612,-10.2096 -1.67851,-19.54246 -4.78336,-27.96603 -1.6315,-4.44694 -3.68786,-8.48847 -6.26711,-11.95954 -2.62096,-3.68153 -5.84929,-6.70546 -9.38312,-8.91455 -10.92957,-3.67664 -22.60434,-3.39776 -31.51619,-2.44054 -20.99128,2.17816 -32.75717,7.0942 -33.33223,5.12275 z"
         inkscape:connector-curvature="0" />
      <path
         style="fill:#000000;fill-opacity:1;fill-rule:evenodd;stroke:none;stroke-width:1px;stroke-linecap:butt;stroke-linejoin:miter;stroke-opacity:1"
         inkscape:path-effect="#path-effect5140"
         inkscape:original-d="m 182.27278,505.59248 c -37.0837,28.7698 -72.5252,60.4963 -100.429304,98.4665 -13.1494,18.1354 -24.6141,38.8561 -25.7757,61.6838 0,1.5045 0.3693,3.1925 1.6469,4.1568"
         id="path6010"
         d="m 182.27278,505.59248 c 0.89642,1.15546 -7.93793,9.27374 -22.11934,22.35115 -13.97734,12.88923 -33.85652,31.28842 -52.98162,52.80324 -7.920832,8.91056 -15.028381,17.57218 -21.503462,26.10416 -9.86971,13.2887 -16.551651,24.43888 -21.151617,35.3212 -4.447473,10.52156 -5.941594,18.51977 -6.989028,23.60767 -0.164739,1.38175 -0.163308,2.11431 0.0018,2.86992 0.139892,0.64013 0.347457,1.03471 0.185144,1.24976 0.03715,-0.0492 -2.738614,0.25632 -3.106837,-4.19392 -0.503544,-5.20021 -0.170842,-14.19711 3.398115,-25.78929 3.671365,-11.9248 10.13884,-24.7113 20.01264,-38.64944 6.374364,-8.95214 13.575546,-18.01254 21.677826,-27.13133 19.72799,-22.20307 40.51363,-39.88214 55.90273,-51.61443 15.5015,-11.81798 25.88182,-17.94932 26.67363,-16.92869 z"
         inkscape:connector-curvature="0" />
      <path
         style="fill:#0000ff;fill-opacity:1;fill-rule:evenodd;stroke:none;stroke-width:1px;stroke-linecap:butt;stroke-linejoin:miter;stroke-opacity:1"
         inkscape:path-effect="#path-effect5152"
         inkscape:original-d="m 182.97988,507.71378 c -41.4775,-7.0182 -87.064104,-8.7429 -124.905304,12.5232 -20.1255,11.6123 -33.8318,33.6693 -33.6135,57.1153 -1.111,32.6174 12.9845,63.8791 31.3228,90.1163 l 0.9551,1.2236 0.9757,1.2074"
         id="path6012"
         d="m 182.97988,507.71378 c -0.52439,3.09915 -25.33829,-3.60763 -63.55641,-0.24237 -17.94672,1.58938 -39.482762,5.9745 -58.898621,17.06834 -5.421413,3.16109 -10.476182,7.2242 -14.892829,12.04651 -2.943246,3.21358 -5.529389,6.68425 -7.719877,10.32477 -5.758109,9.6226 -8.712115,20.32382 -8.725867,30.4997 -0.816519,17.07446 2.8207,33.17089 7.189877,46.06497 6.636212,19.55756 18.616155,40.04505 20.227996,43.38673 0.284306,0.52238 0.519178,0.98331 0.702037,1.37925 0.455148,0.93943 0.599813,1.50329 0.40849,1.6579 -0.191339,0.15462 -0.712294,-0.10527 -1.54291,-0.7569 -0.3473,-0.28324 -0.750259,-0.63948 -1.208163,-1.06795 -4.017197,-4.13889 -16.591414,-19.66622 -25.681779,-41.94442 -5.410609,-13.23948 -9.946985,-30.14872 -9.545948,-48.83648 -0.219657,-11.9284 2.980026,-24.35346 9.629783,-35.49087 2.519003,-4.23909 5.502127,-8.26605 8.912741,-11.98545 5.11861,-5.58203 11.001203,-10.25542 17.345903,-13.8833 21.433698,-11.86231 44.392447,-15.92554 63.279457,-16.66809 19.30584,-0.76652 36.38771,1.55481 47.01232,3.54685 11.10666,2.08242 17.19446,4.1286 17.0638,4.90081 z"
         inkscape:connector-curvature="0" />
      <path
         inkscape:path-effect="#path-effect5793"
         sodipodi:nodetypes="cccccccccc"
         inkscape:connector-curvature="0"
         d="m 275.70061,337.95771 c 0.0866,-0.42807 8.00741,0.72579 22.76662,3.67078 9.1999,1.83572 41.83254,9.01121 63.93302,11.87164 12.84989,1.66315 27.77122,2.87557 43.16296,2.03665 13.39646,-0.7141 27.84369,-3.05045 42.05761,-8.08417 4.71559,-2.25499 42.36837,-23.41169 49.77911,-26.82008 8.37716,-3.85876 17.56184,-7.19679 27.35954,-8.79006 9.57876,-1.56046 19.74457,-1.21996 29.57736,1.50263 16.57334,3.37093 32.19162,9.45699 48.35914,16.27239 14.27166,6.38863 29.37858,13.57278 44.56557,18.24059 14.43791,-13.32946 26.23974,-30.01759 36.15528,-48.6295 10.65805,-18.85502 19.32004,-39.67112 23.67974,-61.70612 1.94389,-9.83571 3.02661,-19.92243 2.61914,-29.95149 -0.37583,-9.0212 -1.91155,-18.04616 -5.23678,-26.32831 -3.13821,-7.85646 -7.94531,-15.13064 -14.16914,-20.90156 -6.97599,-6.48419 -15.76562,-11.18385 -25.1918,-14.34637 -12.56869,-6.01202 -25.91294,-10.64707 -39.69559,-14.92793 -12.93218,-4.00009 -28.06217,-8.16594 -41.41089,-12.38645 -3.42932,-1.08211 -6.86492,-2.2058 -10.29424,-3.38601 -10.30198,-3.54544 -20.42941,-7.56075 -30.19272,-12.46096 C 530.29293,96.22553 517.95963,87.881281 507.40191,77.615501 484.08395,61.069144 456.4778,51.547028 429.07422,50.137666 c -14.03603,-0.754931 -27.98893,0.658204 -41.04733,4.51509 -13.57361,4.014914 -26.15692,10.691115 -36.7184,19.4703 -12.66008,9.562861 -23.50456,21.140081 -32.37898,33.715654 -9.11397,12.92635 -16.23287,27.00213 -21.79704,41.26616 -11.98925,30.7213 -17.19871,63.15036 -19.54117,92.97414 -2.81585,26.85629 -3.10281,57.40032 -3.97178,81.21284 -1.13155,30.91463 -3.2964,56.66773 -8.97822,81.57302 -4.2161,11.27717 -10.08427,21.24465 -16.19888,29.71492 -6.98453,9.64271 -14.83502,18.20084 -21.6293,25.20018 -33.07395,34.10591 -8.96691,7.5065 -34.60879,34.65641 -7.66505,8.11583 -11.35445,12.74069 -11.69201,12.48513 -0.25137,-0.19031 2.87102,-5.25888 10.08416,-13.91177 12.01622,-14.41467 13.85935,-14.92067 33.20037,-36.07066 6.50994,-7.12592 14.02571,-15.75915 20.55519,-25.24849 5.68655,-8.23713 11.08775,-17.80046 14.81488,-28.40938 5.09352,-24.42887 6.7347,-49.56527 7.41878,-80.19689 0.53359,-23.74044 0.45201,-54.21623 3.03402,-81.69131 2.03442,-30.31647 7.10911,-63.52308 19.2687,-95.46519 5.66065,-14.86297 13.01825,-29.62468 22.54344,-43.33553 9.23785,-13.308628 20.6177,-25.594707 34.01289,-35.829739 11.4872,-9.627679 25.11147,-16.932471 39.84968,-21.318451 14.20498,-4.232902 29.24523,-5.831958 44.29492,-5.049019 29.49495,1.599079 59.0656,11.802209 84.15718,29.595839 9.89317,9.607302 21.60512,17.512336 34.26414,23.915592 9.22784,4.643634 18.9435,8.479798 28.96213,11.926378 3.33489,1.14726 6.69082,2.24708 10.05481,3.31423 13.03185,4.12572 28.25627,8.3309 41.34633,12.3928 13.80554,4.2663 27.40809,9.02229 40.45112,15.28057 10.35021,3.41858 20.14582,8.78355 28.20222,16.31667 7.33892,6.87601 12.92987,15.35213 16.53913,24.49936 3.76209,9.57795 5.48901,19.67872 5.8275,29.56888 0.38572,10.97038 -0.79935,21.80178 -2.91884,32.20041 -4.73253,23.24134 -13.85466,44.93565 -25.03601,64.39544 -11.84288,19.5609 -25.77155,37.2458 -42.46856,51.59189 -17.41973,-4.72862 -34.17928,-11.81516 -49.56657,-18.02691 -16.11709,-6.90065 -31.21177,-12.9871 -46.95413,-16.31631 -8.6951,-2.52381 -17.84675,-2.9396 -26.52178,-1.67009 -8.86633,1.30034 -17.46543,4.3386 -25.52982,7.89803 -6.42669,2.84167 -45.25752,23.83665 -50.345,26.17515 -15.1311,5.08198 -30.29038,7.2932 -44.23774,7.78822 -15.91262,0.54523 -31.09193,-1.02079 -44.08514,-3.04229 -24.00118,-3.73421 -53.16811,-11.42607 -63.81451,-14.14353 -14.55302,-3.71461 -22.29878,-5.68474 -22.2152,-6.0977 z"
         id="path6014"
         inkscape:original-d="m 275.70061,337.95771 c 56.413,11.4178 116.1807,32.1287 173.1364,12.4951 32.78061,-15.3643 65.86611,-44.2109 104.55631,-33.2553 33.1386,6.8707 62.3716,25.1049 94.7227,34.4281 56.97771,-50.64694 106.52324,-181.04433 18.8555,-210.218 -51.2579,-24.5571 -113.8149,-26.2251 -156.3973,-67.604399 -46.58581,-33.0463 -115.99481,-41.9318 -162.19761,-3.3604 -52.5163,39.904099 -70.2031,108.527599 -74.7711,171.293199 -5.3626,53.9709 -0.078,109.1223 -11.70139,162.337 -15.3803,42.3778 -55.0868,68.1034 -81.3918,102.8485"
         style="fill:#0000ff;fill-opacity:1;fill-rule:evenodd;stroke:none;stroke-width:1px;stroke-linecap:butt;stroke-linejoin:miter;stroke-opacity:1" />
    </g>
  </g>
</svg>
