  0
SECTION
  2
HEADER
  9
$ACADVER
  1
AC1014
  9
$HANDSEED
  5
FFFF
  9
$MEASUREMENT
 70
     1
  0
ENDSEC
  0
SECTION
  2
TABLES
  0
TABLE
  2
VPORT
  5
8
330
0
100
AcDbSymbolTable
 70
     4
  0
VPORT
  5
2E
330
8
100
AcDbSymbolTableRecord
100
AcDbViewportTableRecord
  2
*ACTIVE
 70
     0
 10
0.0
 20
0.0
 11
1.0
 21
1.0
 12
210.0
 22
148.5
 13
0.0
 23
0.0
 14
10.0
 24
10.0
 15
10.0
 25
10.0
 16
0.0
 26
0.0
 36
1.0
 17
0.0
 27
0.0
 37
0.0
 40
341.0
 41
1.24
 42
50.0
 43
0.0
 44
0.0
 50
0.0
 51
0.0
 71
     0
 72
   100
 73
     1
 74
     3
 75
     0
 76
     0
 77
     0
 78
     0
  0
ENDTAB
  0
TABLE
  2
LTYPE
  5
5
330
0
100
AcDbSymbolTable
 70
     1
  0
LTYPE
  5
14
330
5
100
AcDbSymbolTableRecord
100
AcDbLinetypeTableRecord
  2
BYBLOCK
 70
     0
  3

 72
    65
 73
     0
 40
0.0
  0
LTYPE
  5
15
330
5
100
AcDbSymbolTableRecord
100
AcDbLinetypeTableRecord
  2
BYLAYER
 70
     0
  3

 72
    65
 73
     0
 40
0.0
  0
LTYPE
  5
16
330
5
100
AcDbSymbolTableRecord
100
AcDbLinetypeTableRecord
  2
CONTINUOUS
 70
     0
  3
Solid line
 72
    65
 73
     0
 40
0.0
  0
ENDTAB
  0
TABLE
  2
LAYER
  5
2
100
AcDbSymbolTable
 70
2
  0
LAYER
  5
50
100
AcDbSymbolTableRecord
100
AcDbLayerTableRecord
  2
0
 70
0
  6
CONTINUOUS
  0
LAYER
  5
51
100
AcDbSymbolTableRecord
100
AcDbLayerTableRecord
  2
Capa_1
 70
0
  6
CONTINUOUS
  0
ENDTAB
  0
TABLE
  2
STYLE
  5
3
330
0
100
AcDbSymbolTable
 70
     1
  0
STYLE
  5
11
330
3
100
AcDbSymbolTableRecord
100
AcDbTextStyleTableRecord
  2
STANDARD
 70
     0
 40
0.0
 41
1.0
 50
0.0
 71
     0
 42
2.5
  3
txt
  4

  0
ENDTAB
  0
TABLE
  2
VIEW
  5
6
330
0
100
AcDbSymbolTable
 70
     0
  0
ENDTAB
  0
TABLE
  2
UCS
  5
7
330
0
100
AcDbSymbolTable
 70
     0
  0
ENDTAB
  0
TABLE
  2
APPID
  5
9
330
0
100
AcDbSymbolTable
 70
     2
  0
APPID
  5
12
330
9
100
AcDbSymbolTableRecord
100
AcDbRegAppTableRecord
  2
ACAD
 70
     0
  0
ENDTAB
  0
TABLE
  2
DIMSTYLE
  5
A
330
0
100
AcDbSymbolTable
 70
     1
  0
DIMSTYLE
105
27
330
A
100
AcDbSymbolTableRecord
100
AcDbDimStyleTableRecord
  2
ISO-25
 70
     0
  3

  4

  5

  6

  7

 40
1.0
 41
2.5
 42
0.625
 43
3.75
 44
1.25
 45
0.0
 46
0.0
 47
0.0
 48
0.0
140
2.5
141
2.5
142
0.0
143
0.03937007874016
144
1.0
145
0.0
146
1.0
147
0.625
 71
     0
 72
     0
 73
     0
 74
     0
 75
     0
 76
     0
 77
     1
 78
     8
170
     0
171
     3
172
     1
173
     0
174
     0
175
     0
176
     0
177
     0
178
     0
270
     2
271
     2
272
     2
273
     2
274
     3
340
11
275
     0
280
     0
281
     0
282
     0
283
     0
284
     8
285
     0
286
     0
287
     3
288
     0
  0
ENDTAB
  0
TABLE
  2
BLOCK_RECORD
  5
1
330
0
100
AcDbSymbolTable
 70
     1
  0
BLOCK_RECORD
  5
1F
330
1
100
AcDbSymbolTableRecord
100
AcDbBlockTableRecord
  2
*MODEL_SPACE
  0
BLOCK_RECORD
  5
1B
330
1
100
AcDbSymbolTableRecord
100
AcDbBlockTableRecord
  2
*PAPER_SPACE
  0
ENDTAB
  0
ENDSEC
  0
SECTION
  2
BLOCKS
  0
BLOCK
  5
20
330
1F
100
AcDbEntity
  8
0
100
AcDbBlockBegin
  2
*MODEL_SPACE
 70
     0
 10
0.0
 20
0.0
 30
0.0
  3
*MODEL_SPACE
  1

  0
ENDBLK
  5
21
330
1F
100
AcDbEntity
  8
0
100
AcDbBlockEnd
  0
BLOCK
  5
1C
330
1B
100
AcDbEntity
 67
     1
  8
0
100
AcDbBlockBegin
  2
*PAPER_SPACE
  1

  0
ENDBLK
  5
1D
330
1B
100
AcDbEntity
 67
     1
  8
0
100
AcDbBlockEnd
  0
ENDSEC
  0
SECTION
  2
ENTITIES
  0
SPLINE
  5
100
100
AcDbEntity
  8
Capa_1
 62
7
100
AcDbSpline
 70
8
 71
3
 72
8
 73
4
 74
0
 40
0
 40
0
 40
0
 40
0
 40
1
 40
1
 40
1
 40
1
 10
35.586307
 20
61.330010
 30
0.0
 10
34.535506
 20
61.321745
 30
0.0
 10
33.330039
 20
61.122415
 30
0.0
 10
32.336086
 20
60.829058
 30
0.0
  0
SPLINE
  5
101
100
AcDbEntity
  8
Capa_1
 62
7
100
AcDbSpline
 70
8
 71
3
 72
8
 73
4
 74
0
 40
0
 40
0
 40
0
 40
0
 40
1
 40
1
 40
1
 40
1
 10
32.336086
 20
60.829058
 30
0.0
 10
31.066812
 20
60.454938
 30
0.0
 10
29.515354
 20
59.416797
 30
0.0
 10
28.526086
 20
58.595593
 30
0.0
  0
SPLINE
  5
102
100
AcDbEntity
  8
Capa_1
 62
7
100
AcDbSpline
 70
8
 71
3
 72
8
 73
4
 74
0
 40
0
 40
0
 40
0
 40
0
 40
1
 40
1
 40
1
 40
1
 10
28.526086
 20
58.595593
 30
0.0
 10
27.487971
 20
57.672036
 30
0.0
 10
27.011614
 20
56.911731
 30
0.0
 10
26.247294
 20
55.972633
 30
0.0
  0
SPLINE
  5
103
100
AcDbEntity
  8
Capa_1
 62
7
100
AcDbSpline
 70
8
 71
3
 72
8
 73
4
 74
0
 40
0
 40
0
 40
0
 40
0
 40
1
 40
1
 40
1
 40
1
 10
26.247294
 20
55.972633
 30
0.0
 10
25.751800
 20
55.272320
 30
0.0
 10
24.718036
 20
53.471752
 30
0.0
 10
24.230546
 20
52.203998
 30
0.0
  0
SPLINE
  5
104
100
AcDbEntity
  8
Capa_1
 62
7
100
AcDbSpline
 70
8
 71
3
 72
8
 73
4
 74
0
 40
0
 40
0
 40
0
 40
0
 40
1
 40
1
 40
1
 40
1
 10
24.230546
 20
52.203998
 30
0.0
 10
24.138135
 20
51.963567
 30
0.0
 10
24.121577
 20
52.095724
 30
0.0
 10
23.859846
 20
51.372026
 30
0.0
  0
SPLINE
  5
105
100
AcDbEntity
  8
Capa_1
 62
7
100
AcDbSpline
 70
8
 71
3
 72
8
 73
4
 74
0
 40
0
 40
0
 40
0
 40
0
 40
1
 40
1
 40
1
 40
1
 10
1.283553
 20
51.372026
 30
0.0
 10
1.181984
 20
51.372026
 30
0.0
 10
1.100209
 20
51.291032
 30
0.0
 10
1.100209
 20
51.190435
 30
0.0
  0
LWPOLYLINE
  5
106
100
AcDbEntity
  8
Capa_1
 62
7
100
AcDbPolyline
 90
2
 70
1
 10
23.859846
 20
51.372026
 30
0.0
 10
1.283553
 20
51.372026
 30
0.0
  0
SPLINE
  5
107
100
AcDbEntity
  8
Capa_1
 62
7
100
AcDbSpline
 70
8
 71
3
 72
8
 73
4
 74
0
 40
0
 40
0
 40
0
 40
0
 40
1
 40
1
 40
1
 40
1
 10
1.100209
 20
4.178041
 30
0.0
 10
1.100209
 20
4.077446
 30
0.0
 10
1.181984
 20
3.996454
 30
0.0
 10
1.283553
 20
3.996454
 30
0.0
  0
LWPOLYLINE
  5
108
100
AcDbEntity
  8
Capa_1
 62
7
100
AcDbPolyline
 90
2
 70
1
 10
1.100209
 20
51.190435
 30
0.0
 10
1.100209
 20
4.178041
 30
0.0
  0
SPLINE
  5
109
100
AcDbEntity
  8
Capa_1
 62
7
100
AcDbSpline
 70
8
 71
3
 72
8
 73
4
 74
0
 40
0
 40
0
 40
0
 40
0
 40
1
 40
1
 40
1
 40
1
 10
61.296430
 20
3.996454
 30
0.0
 10
61.397999
 20
3.996454
 30
0.0
 10
61.479775
 20
4.077446
 30
0.0
 10
61.479775
 20
4.178041
 30
0.0
  0
LWPOLYLINE
  5
10a
100
AcDbEntity
  8
Capa_1
 62
7
100
AcDbPolyline
 90
2
 70
1
 10
1.283553
 20
3.996454
 30
0.0
 10
61.296430
 20
3.996454
 30
0.0
  0
SPLINE
  5
10b
100
AcDbEntity
  8
Capa_1
 62
7
100
AcDbSpline
 70
8
 71
3
 72
8
 73
4
 74
0
 40
0
 40
0
 40
0
 40
0
 40
1
 40
1
 40
1
 40
1
 10
61.479775
 20
51.190435
 30
0.0
 10
61.479775
 20
51.291032
 30
0.0
 10
61.397979
 20
51.370216
 30
0.0
 10
61.296430
 20
51.372026
 30
0.0
  0
LWPOLYLINE
  5
10c
100
AcDbEntity
  8
Capa_1
 62
7
100
AcDbPolyline
 90
2
 70
1
 10
61.479775
 20
4.178041
 30
0.0
 10
61.479775
 20
51.190435
 30
0.0
  0
SPLINE
  5
10d
100
AcDbEntity
  8
Capa_1
 62
7
100
AcDbSpline
 70
8
 71
3
 72
8
 73
4
 74
0
 40
0
 40
0
 40
0
 40
0
 40
1
 40
1
 40
1
 40
1
 10
59.097063
 20
51.411213
 30
0.0
 10
58.426549
 20
52.094422
 30
0.0
 10
57.021457
 20
52.874565
 30
0.0
 10
57.021457
 20
52.874565
 30
0.0
  0
SPLINE
  5
10e
100
AcDbEntity
  8
Capa_1
 62
7
100
AcDbSpline
 70
8
 71
3
 72
8
 73
4
 74
0
 40
0
 40
0
 40
0
 40
0
 40
1
 40
1
 40
1
 40
1
 10
57.021457
 20
52.874565
 30
0.0
 10
55.900087
 20
53.407774
 30
0.0
 10
54.875056
 20
53.884959
 30
0.0
 10
53.688167
 20
54.248205
 30
0.0
  0
SPLINE
  5
10f
100
AcDbEntity
  8
Capa_1
 62
7
100
AcDbSpline
 70
8
 71
3
 72
8
 73
4
 74
0
 40
0
 40
0
 40
0
 40
0
 40
1
 40
1
 40
1
 40
1
 10
53.688167
 20
54.248205
 30
0.0
 10
52.560529
 20
54.594758
 30
0.0
 10
51.883986
 20
54.656335
 30
0.0
 10
50.761435
 20
55.008309
 30
0.0
  0
SPLINE
  5
110
100
AcDbEntity
  8
Capa_1
 62
7
100
AcDbSpline
 70
8
 71
3
 72
8
 73
4
 74
0
 40
0
 40
0
 40
0
 40
0
 40
1
 40
1
 40
1
 40
1
 10
50.761435
 20
55.008309
 30
0.0
 10
50.496917
 20
55.091417
 30
0.0
 10
49.381930
 20
55.275817
 30
0.0
 10
49.119441
 20
55.364521
 30
0.0
  0
SPLINE
  5
111
100
AcDbEntity
  8
Capa_1
 62
7
100
AcDbSpline
 70
8
 71
3
 72
8
 73
4
 74
0
 40
0
 40
0
 40
0
 40
0
 40
1
 40
1
 40
1
 40
1
 10
49.119441
 20
55.364521
 30
0.0
 10
48.230162
 20
55.665044
 30
0.0
 10
45.724322
 20
56.456998
 30
0.0
 10
44.906527
 20
56.864586
 30
0.0
  0
SPLINE
  5
112
100
AcDbEntity
  8
Capa_1
 62
7
100
AcDbSpline
 70
8
 71
3
 72
8
 73
4
 74
0
 40
0
 40
0
 40
0
 40
0
 40
1
 40
1
 40
1
 40
1
 10
44.906527
 20
56.864586
 30
0.0
 10
43.816294
 20
57.410768
 30
0.0
 10
43.017111
 20
58.054668
 30
0.0
 10
42.675255
 20
58.296680
 30
0.0
  0
SPLINE
  5
113
100
AcDbEntity
  8
Capa_1
 62
7
100
AcDbSpline
 70
8
 71
3
 72
8
 73
4
 74
0
 40
0
 40
0
 40
0
 40
0
 40
1
 40
1
 40
1
 40
1
 10
42.675255
 20
58.296680
 30
0.0
 10
41.607467
 20
59.182855
 30
0.0
 10
39.689863
 20
61.069363
 30
0.0
 10
37.149793
 20
61.205742
 30
0.0
  0
SPLINE
  5
114
100
AcDbEntity
  8
Capa_1
 62
7
100
AcDbSpline
 70
8
 71
3
 72
8
 73
4
 74
0
 40
0
 40
0
 40
0
 40
0
 40
1
 40
1
 40
1
 40
1
 10
37.149793
 20
61.205742
 30
0.0
 10
36.906774
 20
61.218263
 30
0.0
 10
35.828801
 20
61.331917
 30
0.0
 10
35.586307
 20
61.330010
 30
0.0
  0
LWPOLYLINE
  5
115
100
AcDbEntity
  8
Capa_1
 62
7
100
AcDbPolyline
 90
2
 70
1
 10
61.296430
 20
51.372026
 30
0.0
 10
59.097063
 20
51.411213
 30
0.0
  0
SPLINE
  5
116
100
AcDbEntity
  8
Capa_1
 62
5
100
AcDbSpline
 70
8
 71
3
 72
8
 73
4
 74
0
 40
0
 40
0
 40
0
 40
0
 40
1
 40
1
 40
1
 40
1
 10
14.932408
 20
21.060753
 30
0.0
 10
18.688704
 20
17.769522
 30
0.0
 10
20.166719
 20
16.973893
 30
0.0
 10
23.303585
 20
16.267002
 30
0.0
  0
SPLINE
  5
117
100
AcDbEntity
  8
Capa_1
 62
5
100
AcDbSpline
 70
8
 71
3
 72
8
 73
4
 74
0
 40
0
 40
0
 40
0
 40
0
 40
1
 40
1
 40
1
 40
1
 10
23.303585
 20
16.267002
 30
0.0
 10
25.882083
 20
15.685938
 30
0.0
 10
28.793657
 20
15.803243
 30
0.0
 10
31.209702
 20
16.875163
 30
0.0
  0
SPLINE
  5
118
100
AcDbEntity
  8
Capa_1
 62
5
100
AcDbSpline
 70
8
 71
3
 72
8
 73
4
 74
0
 40
0
 40
0
 40
0
 40
0
 40
1
 40
1
 40
1
 40
1
 10
31.209702
 20
16.875163
 30
0.0
 10
33.491971
 20
17.887728
 30
0.0
 10
35.582842
 20
19.768169
 30
0.0
 10
36.647390
 20
22.026658
 30
0.0
  0
SPLINE
  5
119
100
AcDbEntity
  8
Capa_1
 62
5
100
AcDbSpline
 70
8
 71
3
 72
8
 73
4
 74
0
 40
0
 40
0
 40
0
 40
0
 40
1
 40
1
 40
1
 40
1
 10
36.647390
 20
22.026658
 30
0.0
 10
38.206843
 20
25.335110
 30
0.0
 10
37.398652
 20
32.973587
 30
0.0
 10
37.398652
 20
32.973587
 30
0.0
  0
SPLINE
  5
11a
100
AcDbEntity
  8
Capa_1
 62
5
100
AcDbSpline
 70
8
 71
3
 72
8
 73
4
 74
0
 40
0
 40
0
 40
0
 40
0
 40
1
 40
1
 40
1
 40
1
 10
15.111278
 20
20.917657
 30
0.0
 10
15.111278
 20
20.917657
 30
0.0
 10
23.983958
 20
17.437042
 30
0.0
 10
27.882694
 20
19.236265
 30
0.0
  0
SPLINE
  5
11b
100
AcDbEntity
  8
Capa_1
 62
5
100
AcDbSpline
 70
8
 71
3
 72
8
 73
4
 74
0
 40
0
 40
0
 40
0
 40
0
 40
1
 40
1
 40
1
 40
1
 10
27.882694
 20
19.236265
 30
0.0
 10
29.753706
 20
20.099715
 30
0.0
 10
30.896842
 20
22.392602
 30
0.0
 10
31.245476
 20
24.423535
 30
0.0
  0
SPLINE
  5
11c
100
AcDbEntity
  8
Capa_1
 62
5
100
AcDbSpline
 70
8
 71
3
 72
8
 73
4
 74
0
 40
0
 40
0
 40
0
 40
0
 40
1
 40
1
 40
1
 40
1
 10
31.245476
 20
24.423535
 30
0.0
 10
31.643805
 20
26.743940
 30
0.0
 10
31.503018
 20
29.906218
 30
0.0
 10
29.599858
 20
31.292197
 30
0.0
  0
SPLINE
  5
11d
100
AcDbEntity
  8
Capa_1
 62
5
100
AcDbSpline
 70
8
 71
3
 72
8
 73
4
 74
0
 40
0
 40
0
 40
0
 40
0
 40
1
 40
1
 40
1
 40
1
 10
29.599858
 20
31.292197
 30
0.0
 10
27.965972
 20
32.482077
 30
0.0
 10
23.554006
 20
30.827132
 30
0.0
 10
23.554006
 20
30.827132
 30
0.0
  0
LWPOLYLINE
  5
11e
100
AcDbEntity
  8
Capa_1
 62
7
100
AcDbPolyline
 90
2
 70
1
 10
35.586307
 20
61.330010
 30
0.0
 10
35.586307
 20
61.330010
 30
0.0
  0
SPLINE
  5
11f
100
AcDbEntity
  8
Capa_1
 62
5
100
AcDbSpline
 70
8
 71
3
 72
8
 73
4
 74
0
 40
0
 40
0
 40
0
 40
0
 40
1
 40
1
 40
1
 40
1
 10
14.860859
 20
20.917657
 30
0.0
 10
14.860859
 20
20.917657
 30
0.0
 10
7.595351
 20
15.037552
 30
0.0
 10
5.309127
 20
11.079732
 30
0.0
  0
SPLINE
  5
120
100
AcDbEntity
  8
Capa_1
 62
5
100
AcDbSpline
 70
8
 71
3
 72
8
 73
4
 74
0
 40
0
 40
0
 40
0
 40
0
 40
1
 40
1
 40
1
 40
1
 10
5.309127
 20
11.079732
 30
0.0
 10
4.676617
 20
9.984758
 30
0.0
 10
4.092802
 20
7.394980
 30
0.0
 10
4.092802
 20
7.394980
 30
0.0
  0
SPLINE
  5
121
100
AcDbEntity
  8
Capa_1
 62
5
100
AcDbSpline
 70
8
 71
3
 72
8
 73
4
 74
0
 40
0
 40
0
 40
0
 40
0
 40
1
 40
1
 40
1
 40
1
 10
4.092802
 20
7.502303
 30
0.0
 10
4.092802
 20
7.502303
 30
0.0
 10
2.366403
 20
10.529817
 30
0.0
 10
1.910571
 20
12.224507
 30
0.0
  0
SPLINE
  5
122
100
AcDbEntity
  8
Capa_1
 62
5
100
AcDbSpline
 70
8
 71
3
 72
8
 73
4
 74
0
 40
0
 40
0
 40
0
 40
0
 40
1
 40
1
 40
1
 40
1
 10
1.910571
 20
12.224507
 30
0.0
 10
1.537597
 20
13.611153
 30
0.0
 10
1.058929
 20
15.169104
 30
0.0
 10
1.552828
 20
16.517421
 30
0.0
  0
SPLINE
  5
123
100
AcDbEntity
  8
Capa_1
 62
5
100
AcDbSpline
 70
8
 71
3
 72
8
 73
4
 74
0
 40
0
 40
0
 40
0
 40
0
 40
1
 40
1
 40
1
 40
1
 10
1.552828
 20
16.517421
 30
0.0
 10
2.277897
 20
18.496820
 30
0.0
 10
4.080299
 20
20.174719
 30
0.0
 10
6.024612
 20
20.989206
 30
0.0
  0
SPLINE
  5
124
100
AcDbEntity
  8
Capa_1
 62
5
100
AcDbSpline
 70
8
 71
3
 72
8
 73
4
 74
0
 40
0
 40
0
 40
0
 40
0
 40
1
 40
1
 40
1
 40
1
 10
6.024612
 20
20.989206
 30
0.0
 10
8.774375
 20
22.141102
 30
0.0
 10
14.968180
 20
21.060753
 30
0.0
 10
14.968180
 20
21.060753
 30
0.0
  0
SPLINE
  5
125
100
AcDbEntity
  8
Capa_1
 62
5
100
AcDbSpline
 70
8
 71
3
 72
8
 73
4
 74
0
 40
0
 40
0
 40
0
 40
0
 40
1
 40
1
 40
1
 40
1
 10
14.968180
 20
21.060753
 30
0.0
 10
14.968180
 20
21.060753
 30
0.0
 10
20.218563
 20
25.725911
 30
0.0
 10
21.657970
 20
28.823771
 30
0.0
  0
SPLINE
  5
126
100
AcDbEntity
  8
Capa_1
 62
5
100
AcDbSpline
 70
8
 71
3
 72
8
 73
4
 74
0
 40
0
 40
0
 40
0
 40
0
 40
1
 40
1
 40
1
 40
1
 10
21.657970
 20
28.823771
 30
0.0
 10
22.675722
 20
31.014157
 30
0.0
 10
22.510526
 20
33.581084
 30
0.0
 10
22.802748
 20
35.978627
 30
0.0
  0
SPLINE
  5
127
100
AcDbEntity
  8
Capa_1
 62
5
100
AcDbSpline
 70
8
 71
3
 72
8
 73
4
 74
0
 40
0
 40
0
 40
0
 40
0
 40
1
 40
1
 40
1
 40
1
 10
22.802748
 20
35.978627
 30
0.0
 10
23.422426
 20
41.062821
 30
0.0
 10
22.246228
 20
46.511809
 30
0.0
 10
24.090621
 20
51.290015
 30
0.0
  0
SPLINE
  5
128
100
AcDbEntity
  8
Capa_1
 62
5
100
AcDbSpline
 70
8
 71
3
 72
8
 73
4
 74
0
 40
0
 40
0
 40
0
 40
0
 40
1
 40
1
 40
1
 40
1
 10
24.090621
 20
51.290015
 30
0.0
 10
25.377210
 20
54.623136
 30
0.0
 10
27.510347
 20
58.012777
 30
0.0
 10
30.601538
 20
59.804293
 30
0.0
  0
SPLINE
  5
129
100
AcDbEntity
  8
Capa_1
 62
5
100
AcDbSpline
 70
8
 71
3
 72
8
 73
4
 74
0
 40
0
 40
0
 40
0
 40
0
 40
1
 40
1
 40
1
 40
1
 10
30.601538
 20
59.804293
 30
0.0
 10
32.787341
 20
61.071087
 30
0.0
 10
35.644347
 20
61.337617
 30
0.0
 10
38.114136
 20
60.805973
 30
0.0
  0
SPLINE
  5
12a
100
AcDbEntity
  8
Capa_1
 62
5
100
AcDbSpline
 70
8
 71
3
 72
8
 73
4
 74
0
 40
0
 40
0
 40
0
 40
0
 40
1
 40
1
 40
1
 40
1
 10
38.114136
 20
60.805973
 30
0.0
 10
40.585576
 20
60.273972
 30
0.0
 10
42.295523
 20
57.936156
 30
0.0
 10
44.553507
 20
56.799255
 30
0.0
  0
SPLINE
  5
12b
100
AcDbEntity
  8
Capa_1
 62
5
100
AcDbSpline
 70
8
 71
3
 72
8
 73
4
 74
0
 40
0
 40
0
 40
0
 40
0
 40
1
 40
1
 40
1
 40
1
 10
44.553507
 20
56.799255
 30
0.0
 10
49.248881
 20
54.435116
 30
0.0
 10
55.450954
 20
54.667529
 30
0.0
 10
59.220960
 20
51.003822
 30
0.0
  0
SPLINE
  5
12c
100
AcDbEntity
  8
Capa_1
 62
5
100
AcDbSpline
 70
8
 71
3
 72
8
 73
4
 74
0
 40
0
 40
0
 40
0
 40
0
 40
1
 40
1
 40
1
 40
1
 10
59.220960
 20
51.003822
 30
0.0
 10
60.132758
 20
50.117734
 30
0.0
 10
60.570380
 20
48.760119
 30
0.0
 10
60.723477
 20
47.497942
 30
0.0
  0
SPLINE
  5
12d
100
AcDbEntity
  8
Capa_1
 62
5
100
AcDbSpline
 70
8
 71
3
 72
8
 73
4
 74
0
 40
0
 40
0
 40
0
 40
0
 40
1
 40
1
 40
1
 40
1
 10
60.723477
 20
47.497942
 30
0.0
 10
61.005810
 20
45.170339
 30
0.0
 10
60.477600
 20
42.723241
 30
0.0
 10
59.578702
 20
40.557733
 30
0.0
  0
SPLINE
  5
12e
100
AcDbEntity
  8
Capa_1
 62
5
100
AcDbSpline
 70
8
 71
3
 72
8
 73
4
 74
0
 40
0
 40
0
 40
0
 40
0
 40
1
 40
1
 40
1
 40
1
 10
59.578702
 20
40.557733
 30
0.0
 10
58.576379
 20
38.143068
 30
0.0
 10
54.999596
 20
34.189914
 30
0.0
 10
54.999596
 20
34.189914
 30
0.0
  0
SPLINE
  5
12f
100
AcDbEntity
  8
Capa_1
 62
5
100
AcDbSpline
 70
8
 71
3
 72
8
 73
4
 74
0
 40
0
 40
0
 40
0
 40
0
 40
1
 40
1
 40
1
 40
1
 10
54.999596
 20
34.189914
 30
0.0
 10
54.999596
 20
34.189914
 30
0.0
 10
48.772137
 20
37.879205
 30
0.0
 10
45.340540
 20
37.767340
 30
0.0
  0
SPLINE
  5
130
100
AcDbEntity
  8
Capa_1
 62
5
100
AcDbSpline
 70
8
 71
3
 72
8
 73
4
 74
0
 40
0
 40
0
 40
0
 40
0
 40
1
 40
1
 40
1
 40
1
 10
45.340540
 20
37.767340
 30
0.0
 10
42.416856
 20
37.672031
 30
0.0
 10
40.152638
 20
34.947124
 30
0.0
 10
37.327103
 20
34.189914
 30
0.0
  0
SPLINE
  5
131
100
AcDbEntity
  8
Capa_1
 62
5
100
AcDbSpline
 70
8
 71
3
 72
8
 73
4
 74
0
 40
0
 40
0
 40
0
 40
0
 40
1
 40
1
 40
1
 40
1
 10
37.327103
 20
34.189914
 30
0.0
 10
36.215362
 20
33.891980
 30
0.0
 10
35.043499
 20
33.808479
 30
0.0
 10
33.892772
 20
33.832169
 30
0.0
  0
SPLINE
  5
132
100
AcDbEntity
  8
Capa_1
 62
5
100
AcDbSpline
 70
8
 71
3
 72
8
 73
4
 74
0
 40
0
 40
0
 40
0
 40
0
 40
1
 40
1
 40
1
 40
1
 10
33.892772
 20
33.832169
 30
0.0
 10
30.591455
 20
33.900134
 30
0.0
 10
24.090621
 20
35.263140
 30
0.0
 10
24.090621
 20
35.263140
 30
0.0
  0
SPLINE
  5
133
100
AcDbEntity
  8
Capa_1
 62
7
100
AcDbSpline
 70
8
 71
3
 72
8
 73
4
 74
0
 40
0
 40
0
 40
0
 40
0
 40
1
 40
1
 40
1
 40
1
 10
16.985793
 20
12.688829
 30
0.0
 10
16.966198
 20
11.884129
 30
0.0
 10
16.949230
 20
11.075009
 30
0.0
 10
17.039980
 20
10.273947
 30
0.0
  0
SPLINE
  5
134
100
AcDbEntity
  8
Capa_1
 62
7
100
AcDbSpline
 70
8
 71
3
 72
8
 73
4
 74
0
 40
0
 40
0
 40
0
 40
0
 40
1
 40
1
 40
1
 40
1
 10
17.039980
 20
10.273947
 30
0.0
 10
17.115091
 20
9.692738
 30
0.0
 10
17.462919
 20
9.154848
 30
0.0
 10
17.917353
 20
8.814923
 30
0.0
  0
SPLINE
  5
135
100
AcDbEntity
  8
Capa_1
 62
7
100
AcDbSpline
 70
8
 71
3
 72
8
 73
4
 74
0
 40
0
 40
0
 40
0
 40
0
 40
1
 40
1
 40
1
 40
1
 10
17.917353
 20
8.814923
 30
0.0
 10
18.291523
 20
8.535037
 30
0.0
 10
18.802127
 20
8.429441
 30
0.0
 10
19.273804
 20
8.461225
 30
0.0
  0
SPLINE
  5
136
100
AcDbEntity
  8
Capa_1
 62
7
100
AcDbSpline
 70
8
 71
3
 72
8
 73
4
 74
0
 40
0
 40
0
 40
0
 40
0
 40
1
 40
1
 40
1
 40
1
 10
19.273804
 20
8.461225
 30
0.0
 10
19.698512
 20
8.504156
 30
0.0
 10
20.064505
 20
8.762133
 30
0.0
 10
20.362074
 20
9.047050
 30
0.0
  0
SPLINE
  5
137
100
AcDbEntity
  8
Capa_1
 62
7
100
AcDbSpline
 70
8
 71
3
 72
8
 73
4
 74
0
 40
0
 40
0
 40
0
 40
0
 40
1
 40
1
 40
1
 40
1
 10
20.362074
 20
9.047050
 30
0.0
 10
20.626740
 20
9.300463
 30
0.0
 10
20.810518
 20
9.643259
 30
0.0
 10
20.924661
 20
9.991451
 30
0.0
  0
SPLINE
  5
138
100
AcDbEntity
  8
Capa_1
 62
7
100
AcDbSpline
 70
8
 71
3
 72
8
 73
4
 74
0
 40
0
 40
0
 40
0
 40
0
 40
1
 40
1
 40
1
 40
1
 10
20.924661
 20
9.991451
 30
0.0
 10
21.040987
 20
10.346297
 30
0.0
 10
21.012109
 20
10.734804
 30
0.0
 10
21.032376
 20
11.106544
 30
0.0
  0
SPLINE
  5
139
100
AcDbEntity
  8
Capa_1
 62
7
100
AcDbSpline
 70
8
 71
3
 72
8
 73
4
 74
0
 40
0
 40
0
 40
0
 40
0
 40
1
 40
1
 40
1
 40
1
 10
21.032376
 20
11.106544
 30
0.0
 10
21.036330
 20
11.647539
 30
0.0
 10
21.035833
 20
12.188562
 30
0.0
 10
21.032686
 20
12.729559
 30
0.0
  0
LWPOLYLINE
  5
13a
100
AcDbEntity
  8
Capa_1
 62
5
100
AcDbPolyline
 90
3
 70
0
 10
23.554006
 20
30.827132
 30
0.0
 10
23.554006
 20
30.827132
 30
0.0
 10
23.589781
 20
30.827132
 30
0.0
  0
LWPOLYLINE
  5
13b
100
AcDbEntity
  8
Capa_1
 62
7
100
AcDbPolyline
 90
5
 70
0
 10
12.320384
 20
8.381006
 30
0.0
 10
12.371427
 20
12.158068
 30
0.0
 10
14.259958
 20
8.789336
 30
0.0
 10
16.276093
 20
12.336714
 30
0.0
 10
16.276093
 20
8.432049
 30
0.0
  0
LWPOLYLINE
  5
13c
100
AcDbEntity
  8
Capa_1
 62
7
100
AcDbPolyline
 90
5
 70
0
 10
21.763042
 20
8.304445
 30
0.0
 10
21.814084
 20
12.081507
 30
0.0
 10
23.702615
 20
8.712775
 30
0.0
 10
25.718751
 20
12.260153
 30
0.0
 10
25.718751
 20
8.355487
 30
0.0
  0
LWPOLYLINE
  5
13d
100
AcDbEntity
  8
Capa_1
 62
7
100
AcDbPolyline
 90
3
 70
0
 10
26.331247
 20
8.355485
 30
0.0
 10
28.628110
 20
12.642962
 30
0.0
 10
30.950491
 20
8.278923
 30
0.0
  0
LWPOLYLINE
  5
13e
100
AcDbEntity
  8
Capa_1
 62
7
100
AcDbPolyline
 90
4
 70
0
 10
31.588508
 20
13.051293
 30
0.0
 10
31.588508
 20
8.278923
 30
0.0
 10
31.665069
 20
8.278923
 30
0.0
 10
31.588508
 20
8.278923
 30
0.0
  0
LWPOLYLINE
  5
13f
100
AcDbEntity
  8
Capa_1
 62
7
100
AcDbPolyline
 90
3
 70
0
 10
35.671820
 20
13.025774
 30
0.0
 10
32.609337
 20
10.014330
 30
0.0
 10
35.722860
 20
6.875285
 30
0.0
  0
LWPOLYLINE
  5
140
100
AcDbEntity
  8
Capa_1
 62
7
100
AcDbPolyline
 90
4
 70
0
 10
39.780651
 20
12.872649
 30
0.0
 10
36.360877
 20
12.898162
 30
0.0
 10
36.360877
 20
8.406519
 30
0.0
 10
39.780651
 20
8.406519
 30
0.0
  0
LWPOLYLINE
  5
141
100
AcDbEntity
  8
Capa_1
 62
7
100
AcDbPolyline
 90
2
 70
0
 10
37.100980
 20
9.810165
 30
0.0
 10
39.806173
 20
9.835678
 30
0.0
  0
SPLINE
  5
142
100
AcDbEntity
  8
Capa_1
 62
7
100
AcDbSpline
 70
8
 71
3
 72
8
 73
4
 74
0
 40
0
 40
0
 40
0
 40
0
 40
1
 40
1
 40
1
 40
1
 10
40.393147
 20
12.872649
 30
0.0
 10
40.393147
 20
12.872649
 30
0.0
 10
41.438320
 20
12.934464
 30
0.0
 10
41.949910
 20
12.847136
 30
0.0
  0
SPLINE
  5
143
100
AcDbEntity
  8
Capa_1
 62
7
100
AcDbSpline
 70
8
 71
3
 72
8
 73
4
 74
0
 40
0
 40
0
 40
0
 40
0
 40
1
 40
1
 40
1
 40
1
 10
41.949910
 20
12.847136
 30
0.0
 10
42.162051
 20
12.810924
 30
0.0
 10
42.343111
 20
12.774890
 30
0.0
 10
42.562406
 20
12.642971
 30
0.0
  0
SPLINE
  5
144
100
AcDbEntity
  8
Capa_1
 62
7
100
AcDbSpline
 70
8
 71
3
 72
8
 73
4
 74
0
 40
0
 40
0
 40
0
 40
0
 40
1
 40
1
 40
1
 40
1
 10
42.562406
 20
12.642971
 30
0.0
 10
42.742887
 20
12.534400
 30
0.0
 10
42.989275
 20
12.384495
 30
0.0
 10
43.123861
 20
12.183598
 30
0.0
  0
SPLINE
  5
145
100
AcDbEntity
  8
Capa_1
 62
7
100
AcDbSpline
 70
8
 71
3
 72
8
 73
4
 74
0
 40
0
 40
0
 40
0
 40
0
 40
1
 40
1
 40
1
 40
1
 10
43.123861
 20
12.183598
 30
0.0
 10
43.237690
 20
12.013683
 30
0.0
 10
43.272406
 20
11.798915
 30
0.0
 10
43.302508
 20
11.596623
 30
0.0
  0
SPLINE
  5
146
100
AcDbEntity
  8
Capa_1
 62
7
100
AcDbSpline
 70
8
 71
3
 72
8
 73
4
 74
0
 40
0
 40
0
 40
0
 40
0
 40
1
 40
1
 40
1
 40
1
 10
43.302508
 20
11.596623
 30
0.0
 10
43.336315
 20
11.369437
 30
0.0
 10
43.342493
 20
11.133742
 30
0.0
 10
43.302508
 20
10.907564
 30
0.0
  0
SPLINE
  5
147
100
AcDbEntity
  8
Capa_1
 62
7
100
AcDbSpline
 70
8
 71
3
 72
8
 73
4
 74
0
 40
0
 40
0
 40
0
 40
0
 40
1
 40
1
 40
1
 40
1
 10
43.302508
 20
10.907564
 30
0.0
 10
43.265548
 20
10.698505
 30
0.0
 10
43.209225
 20
10.480804
 30
0.0
 10
43.084141
 20
10.309267
 30
0.0
  0
SPLINE
  5
148
100
AcDbEntity
  8
Capa_1
 62
7
100
AcDbSpline
 70
8
 71
3
 72
8
 73
4
 74
0
 40
0
 40
0
 40
0
 40
0
 40
1
 40
1
 40
1
 40
1
 10
43.084141
 20
10.309267
 30
0.0
 10
42.973414
 20
10.157417
 30
0.0
 10
42.807964
 20
10.045519
 30
0.0
 10
42.638970
 20
9.963299
 30
0.0
  0
SPLINE
  5
149
100
AcDbEntity
  8
Capa_1
 62
7
100
AcDbSpline
 70
8
 71
3
 72
8
 73
4
 74
0
 40
0
 40
0
 40
0
 40
0
 40
1
 40
1
 40
1
 40
1
 10
42.638970
 20
9.963299
 30
0.0
 10
42.418190
 20
9.855882
 30
0.0
 10
41.924389
 20
9.784652
 30
0.0
 10
41.924389
 20
9.784652
 30
0.0
  0
LWPOLYLINE
  5
14a
100
AcDbEntity
  8
Capa_1
 62
7
100
AcDbPolyline
 90
2
 70
0
 10
40.393147
 20
8.355485
 30
0.0
 10
40.393147
 20
12.872649
 30
0.0
  0
LWPOLYLINE
  5
14b
100
AcDbEntity
  8
Capa_1
 62
7
100
AcDbPolyline
 90
3
 70
0
 10
41.924389
 20
9.784652
 30
0.0
 10
41.490537
 20
9.759111
 30
0.0
 10
42.945218
 20
8.329955
 30
0.0
  0
LWPOLYLINE
  5
14c
100
AcDbEntity
  8
Capa_1
 62
7
100
AcDbPolyline
 90
4
 70
0
 10
53.332141
 20
12.898170
 30
0.0
 10
49.912367
 20
12.923683
 30
0.0
 10
49.912367
 20
8.432040
 30
0.0
 10
53.332141
 20
8.432040
 30
0.0
  0
LWPOLYLINE
  5
14d
100
AcDbEntity
  8
Capa_1
 62
7
100
AcDbPolyline
 90
2
 70
0
 10
50.652469
 20
9.835687
 30
0.0
 10
53.357663
 20
9.861199
 30
0.0
  0
SPLINE
  5
14e
100
AcDbEntity
  8
Capa_1
 62
7
100
AcDbSpline
 70
8
 71
3
 72
8
 73
4
 74
0
 40
0
 40
0
 40
0
 40
0
 40
1
 40
1
 40
1
 40
1
 10
55.325595
 20
12.974731
 30
0.0
 10
55.325595
 20
8.278923
 30
0.0
 10
55.325595
 20
8.278923
 30
0.0
 10
55.325595
 20
8.278923
 30
0.0
  0
LWPOLYLINE
  5
14f
100
AcDbEntity
  8
Capa_1
 62
7
100
AcDbPolyline
 90
3
 70
0
 10
53.615216
 20
12.872649
 30
0.0
 10
56.984308
 20
12.872649
 30
0.0
 10
56.984308
 20
12.820720
 30
0.0
  0
LWPOLYLINE
  5
150
100
AcDbEntity
  8
Capa_1
 62
7
100
AcDbPolyline
 90
4
 70
0
 10
45.012394
 20
8.329966
 30
0.0
 10
45.063436
 20
12.566401
 30
0.0
 10
49.019142
 20
8.687254
 30
0.0
 10
48.993629
 20
13.000253
 30
0.0
  0
SPLINE
  5
151
100
AcDbEntity
  8
Capa_1
 62
7
100
AcDbSpline
 70
8
 71
3
 72
8
 73
4
 74
0
 40
0
 40
0
 40
0
 40
0
 40
1
 40
1
 40
1
 40
1
 10
100.396234
 20
61.330010
 30
0.0
 10
99.345433
 20
61.321745
 30
0.0
 10
98.139966
 20
61.122415
 30
0.0
 10
97.146013
 20
60.829058
 30
0.0
  0
SPLINE
  5
152
100
AcDbEntity
  8
Capa_1
 62
7
100
AcDbSpline
 70
8
 71
3
 72
8
 73
4
 74
0
 40
0
 40
0
 40
0
 40
0
 40
1
 40
1
 40
1
 40
1
 10
97.146013
 20
60.829058
 30
0.0
 10
95.876738
 20
60.454938
 30
0.0
 10
94.325281
 20
59.416797
 30
0.0
 10
93.336013
 20
58.595593
 30
0.0
  0
SPLINE
  5
153
100
AcDbEntity
  8
Capa_1
 62
7
100
AcDbSpline
 70
8
 71
3
 72
8
 73
4
 74
0
 40
0
 40
0
 40
0
 40
0
 40
1
 40
1
 40
1
 40
1
 10
93.336013
 20
58.595593
 30
0.0
 10
92.297898
 20
57.672036
 30
0.0
 10
91.821541
 20
56.911731
 30
0.0
 10
91.057221
 20
55.972633
 30
0.0
  0
SPLINE
  5
154
100
AcDbEntity
  8
Capa_1
 62
7
100
AcDbSpline
 70
8
 71
3
 72
8
 73
4
 74
0
 40
0
 40
0
 40
0
 40
0
 40
1
 40
1
 40
1
 40
1
 10
91.057221
 20
55.972633
 30
0.0
 10
90.561726
 20
55.272320
 30
0.0
 10
89.527963
 20
53.471752
 30
0.0
 10
89.040472
 20
52.203998
 30
0.0
  0
SPLINE
  5
155
100
AcDbEntity
  8
Capa_1
 62
7
100
AcDbSpline
 70
8
 71
3
 72
8
 73
4
 74
0
 40
0
 40
0
 40
0
 40
0
 40
1
 40
1
 40
1
 40
1
 10
89.040472
 20
52.203998
 30
0.0
 10
88.948061
 20
51.963567
 30
0.0
 10
88.931503
 20
52.095724
 30
0.0
 10
88.669773
 20
51.372026
 30
0.0
  0
LWPOLYLINE
  5
156
100
AcDbEntity
  8
Capa_1
 62
7
100
AcDbPolyline
 90
2
 70
1
 10
44.195730
 20
8.559653
 30
0.0
 10
44.195730
 20
8.559653
 30
0.0
  0
SPLINE
  5
157
100
AcDbEntity
  8
Capa_1
 62
7
100
AcDbSpline
 70
8
 71
3
 72
8
 73
4
 74
0
 40
0
 40
0
 40
0
 40
0
 40
1
 40
1
 40
1
 40
1
 10
66.093480
 20
51.372026
 30
0.0
 10
65.991911
 20
51.372026
 30
0.0
 10
65.910135
 20
51.291032
 30
0.0
 10
65.910135
 20
51.190435
 30
0.0
  0
LWPOLYLINE
  5
158
100
AcDbEntity
  8
Capa_1
 62
7
100
AcDbPolyline
 90
2
 70
1
 10
88.669773
 20
51.372026
 30
0.0
 10
66.093480
 20
51.372026
 30
0.0
  0
SPLINE
  5
159
100
AcDbEntity
  8
Capa_1
 62
7
100
AcDbSpline
 70
8
 71
3
 72
8
 73
4
 74
0
 40
0
 40
0
 40
0
 40
0
 40
1
 40
1
 40
1
 40
1
 10
65.910135
 20
4.178041
 30
0.0
 10
65.910135
 20
4.077446
 30
0.0
 10
65.991911
 20
3.996454
 30
0.0
 10
66.093480
 20
3.996454
 30
0.0
  0
LWPOLYLINE
  5
15a
100
AcDbEntity
  8
Capa_1
 62
7
100
AcDbPolyline
 90
2
 70
1
 10
65.910135
 20
51.190435
 30
0.0
 10
65.910135
 20
4.178041
 30
0.0
  0
SPLINE
  5
15b
100
AcDbEntity
  8
Capa_1
 62
7
100
AcDbSpline
 70
8
 71
3
 72
8
 73
4
 74
0
 40
0
 40
0
 40
0
 40
0
 40
1
 40
1
 40
1
 40
1
 10
126.106356
 20
3.996454
 30
0.0
 10
126.207925
 20
3.996454
 30
0.0
 10
126.289702
 20
4.077446
 30
0.0
 10
126.289702
 20
4.178041
 30
0.0
  0
LWPOLYLINE
  5
15c
100
AcDbEntity
  8
Capa_1
 62
7
100
AcDbPolyline
 90
2
 70
1
 10
66.093480
 20
3.996454
 30
0.0
 10
126.106356
 20
3.996454
 30
0.0
  0
SPLINE
  5
15d
100
AcDbEntity
  8
Capa_1
 62
7
100
AcDbSpline
 70
8
 71
3
 72
8
 73
4
 74
0
 40
0
 40
0
 40
0
 40
0
 40
1
 40
1
 40
1
 40
1
 10
126.289702
 20
51.190435
 30
0.0
 10
126.289702
 20
51.291032
 30
0.0
 10
126.207906
 20
51.370216
 30
0.0
 10
126.106356
 20
51.372026
 30
0.0
  0
LWPOLYLINE
  5
15e
100
AcDbEntity
  8
Capa_1
 62
7
100
AcDbPolyline
 90
2
 70
1
 10
126.289702
 20
4.178041
 30
0.0
 10
126.289702
 20
51.190435
 30
0.0
  0
SPLINE
  5
15f
100
AcDbEntity
  8
Capa_1
 62
7
100
AcDbSpline
 70
8
 71
3
 72
8
 73
4
 74
0
 40
0
 40
0
 40
0
 40
0
 40
1
 40
1
 40
1
 40
1
 10
123.906990
 20
51.411213
 30
0.0
 10
123.236475
 20
52.094422
 30
0.0
 10
121.831384
 20
52.874565
 30
0.0
 10
121.831384
 20
52.874565
 30
0.0
  0
SPLINE
  5
160
100
AcDbEntity
  8
Capa_1
 62
7
100
AcDbSpline
 70
8
 71
3
 72
8
 73
4
 74
0
 40
0
 40
0
 40
0
 40
0
 40
1
 40
1
 40
1
 40
1
 10
121.831384
 20
52.874565
 30
0.0
 10
120.710013
 20
53.407774
 30
0.0
 10
119.684982
 20
53.884959
 30
0.0
 10
118.498094
 20
54.248205
 30
0.0
  0
SPLINE
  5
161
100
AcDbEntity
  8
Capa_1
 62
7
100
AcDbSpline
 70
8
 71
3
 72
8
 73
4
 74
0
 40
0
 40
0
 40
0
 40
0
 40
1
 40
1
 40
1
 40
1
 10
118.498094
 20
54.248205
 30
0.0
 10
117.370455
 20
54.594758
 30
0.0
 10
116.693912
 20
54.656335
 30
0.0
 10
115.571362
 20
55.008309
 30
0.0
  0
SPLINE
  5
162
100
AcDbEntity
  8
Capa_1
 62
7
100
AcDbSpline
 70
8
 71
3
 72
8
 73
4
 74
0
 40
0
 40
0
 40
0
 40
0
 40
1
 40
1
 40
1
 40
1
 10
115.571362
 20
55.008309
 30
0.0
 10
115.306844
 20
55.091417
 30
0.0
 10
114.191857
 20
55.275817
 30
0.0
 10
113.929368
 20
55.364521
 30
0.0
  0
SPLINE
  5
163
100
AcDbEntity
  8
Capa_1
 62
7
100
AcDbSpline
 70
8
 71
3
 72
8
 73
4
 74
0
 40
0
 40
0
 40
0
 40
0
 40
1
 40
1
 40
1
 40
1
 10
113.929368
 20
55.364521
 30
0.0
 10
113.040088
 20
55.665044
 30
0.0
 10
110.534248
 20
56.456998
 30
0.0
 10
109.716453
 20
56.864586
 30
0.0
  0
SPLINE
  5
164
100
AcDbEntity
  8
Capa_1
 62
7
100
AcDbSpline
 70
8
 71
3
 72
8
 73
4
 74
0
 40
0
 40
0
 40
0
 40
0
 40
1
 40
1
 40
1
 40
1
 10
109.716453
 20
56.864586
 30
0.0
 10
108.626220
 20
57.410768
 30
0.0
 10
107.827037
 20
58.054668
 30
0.0
 10
107.485182
 20
58.296680
 30
0.0
  0
SPLINE
  5
165
100
AcDbEntity
  8
Capa_1
 62
7
100
AcDbSpline
 70
8
 71
3
 72
8
 73
4
 74
0
 40
0
 40
0
 40
0
 40
0
 40
1
 40
1
 40
1
 40
1
 10
107.485182
 20
58.296680
 30
0.0
 10
106.417394
 20
59.182855
 30
0.0
 10
104.499790
 20
61.069363
 30
0.0
 10
101.959719
 20
61.205742
 30
0.0
  0
SPLINE
  5
166
100
AcDbEntity
  8
Capa_1
 62
7
100
AcDbSpline
 70
8
 71
3
 72
8
 73
4
 74
0
 40
0
 40
0
 40
0
 40
0
 40
1
 40
1
 40
1
 40
1
 10
101.959719
 20
61.205742
 30
0.0
 10
101.716701
 20
61.218263
 30
0.0
 10
100.638727
 20
61.331917
 30
0.0
 10
100.396234
 20
61.330010
 30
0.0
  0
LWPOLYLINE
  5
167
100
AcDbEntity
  8
Capa_1
 62
7
100
AcDbPolyline
 90
2
 70
1
 10
126.106356
 20
51.372026
 30
0.0
 10
123.906990
 20
51.411213
 30
0.0
  0
SPLINE
  5
168
100
AcDbEntity
  8
Capa_1
 62
5
100
AcDbSpline
 70
8
 71
3
 72
8
 73
4
 74
0
 40
0
 40
0
 40
0
 40
0
 40
1
 40
1
 40
1
 40
1
 10
79.742335
 20
21.060753
 30
0.0
 10
83.498631
 20
17.769522
 30
0.0
 10
84.976645
 20
16.973893
 30
0.0
 10
88.113512
 20
16.267002
 30
0.0
  0
SPLINE
  5
169
100
AcDbEntity
  8
Capa_1
 62
5
100
AcDbSpline
 70
8
 71
3
 72
8
 73
4
 74
0
 40
0
 40
0
 40
0
 40
0
 40
1
 40
1
 40
1
 40
1
 10
88.113512
 20
16.267002
 30
0.0
 10
90.692010
 20
15.685938
 30
0.0
 10
93.603583
 20
15.803243
 30
0.0
 10
96.019628
 20
16.875163
 30
0.0
  0
SPLINE
  5
16a
100
AcDbEntity
  8
Capa_1
 62
5
100
AcDbSpline
 70
8
 71
3
 72
8
 73
4
 74
0
 40
0
 40
0
 40
0
 40
0
 40
1
 40
1
 40
1
 40
1
 10
96.019628
 20
16.875163
 30
0.0
 10
98.301897
 20
17.887728
 30
0.0
 10
100.392769
 20
19.768169
 30
0.0
 10
101.457317
 20
22.026658
 30
0.0
  0
SPLINE
  5
16b
100
AcDbEntity
  8
Capa_1
 62
5
100
AcDbSpline
 70
8
 71
3
 72
8
 73
4
 74
0
 40
0
 40
0
 40
0
 40
0
 40
1
 40
1
 40
1
 40
1
 10
101.457317
 20
22.026658
 30
0.0
 10
103.016770
 20
25.335110
 30
0.0
 10
102.208578
 20
32.973587
 30
0.0
 10
102.208578
 20
32.973587
 30
0.0
  0
SPLINE
  5
16c
100
AcDbEntity
  8
Capa_1
 62
5
100
AcDbSpline
 70
8
 71
3
 72
8
 73
4
 74
0
 40
0
 40
0
 40
0
 40
0
 40
1
 40
1
 40
1
 40
1
 10
79.921204
 20
20.917657
 30
0.0
 10
79.921204
 20
20.917657
 30
0.0
 10
88.793884
 20
17.437042
 30
0.0
 10
92.692621
 20
19.236265
 30
0.0
  0
SPLINE
  5
16d
100
AcDbEntity
  8
Capa_1
 62
5
100
AcDbSpline
 70
8
 71
3
 72
8
 73
4
 74
0
 40
0
 40
0
 40
0
 40
0
 40
1
 40
1
 40
1
 40
1
 10
92.692621
 20
19.236265
 30
0.0
 10
94.563633
 20
20.099715
 30
0.0
 10
95.706768
 20
22.392602
 30
0.0
 10
96.055403
 20
24.423535
 30
0.0
  0
SPLINE
  5
16e
100
AcDbEntity
  8
Capa_1
 62
5
100
AcDbSpline
 70
8
 71
3
 72
8
 73
4
 74
0
 40
0
 40
0
 40
0
 40
0
 40
1
 40
1
 40
1
 40
1
 10
96.055403
 20
24.423535
 30
0.0
 10
96.453731
 20
26.743940
 30
0.0
 10
96.312945
 20
29.906218
 30
0.0
 10
94.409785
 20
31.292197
 30
0.0
  0
SPLINE
  5
16f
100
AcDbEntity
  8
Capa_1
 62
5
100
AcDbSpline
 70
8
 71
3
 72
8
 73
4
 74
0
 40
0
 40
0
 40
0
 40
0
 40
1
 40
1
 40
1
 40
1
 10
94.409785
 20
31.292197
 30
0.0
 10
92.775899
 20
32.482077
 30
0.0
 10
88.363933
 20
30.827132
 30
0.0
 10
88.363933
 20
30.827132
 30
0.0
  0
LWPOLYLINE
  5
170
100
AcDbEntity
  8
Capa_1
 62
7
100
AcDbPolyline
 90
2
 70
1
 10
100.396234
 20
61.330010
 30
0.0
 10
100.396234
 20
61.330010
 30
0.0
  0
SPLINE
  5
171
100
AcDbEntity
  8
Capa_1
 62
5
100
AcDbSpline
 70
8
 71
3
 72
8
 73
4
 74
0
 40
0
 40
0
 40
0
 40
0
 40
1
 40
1
 40
1
 40
1
 10
79.670786
 20
20.917657
 30
0.0
 10
79.670786
 20
20.917657
 30
0.0
 10
72.405278
 20
15.037552
 30
0.0
 10
70.119053
 20
11.079732
 30
0.0
  0
SPLINE
  5
172
100
AcDbEntity
  8
Capa_1
 62
5
100
AcDbSpline
 70
8
 71
3
 72
8
 73
4
 74
0
 40
0
 40
0
 40
0
 40
0
 40
1
 40
1
 40
1
 40
1
 10
70.119053
 20
11.079732
 30
0.0
 10
69.486544
 20
9.984758
 30
0.0
 10
68.902728
 20
7.394980
 30
0.0
 10
68.902728
 20
7.394980
 30
0.0
  0
SPLINE
  5
173
100
AcDbEntity
  8
Capa_1
 62
5
100
AcDbSpline
 70
8
 71
3
 72
8
 73
4
 74
0
 40
0
 40
0
 40
0
 40
0
 40
1
 40
1
 40
1
 40
1
 10
68.902728
 20
7.502303
 30
0.0
 10
68.902728
 20
7.502303
 30
0.0
 10
67.176330
 20
10.529817
 30
0.0
 10
66.720497
 20
12.224507
 30
0.0
  0
SPLINE
  5
174
100
AcDbEntity
  8
Capa_1
 62
5
100
AcDbSpline
 70
8
 71
3
 72
8
 73
4
 74
0
 40
0
 40
0
 40
0
 40
0
 40
1
 40
1
 40
1
 40
1
 10
66.720497
 20
12.224507
 30
0.0
 10
66.347523
 20
13.611153
 30
0.0
 10
65.868855
 20
15.169104
 30
0.0
 10
66.362755
 20
16.517421
 30
0.0
  0
SPLINE
  5
175
100
AcDbEntity
  8
Capa_1
 62
5
100
AcDbSpline
 70
8
 71
3
 72
8
 73
4
 74
0
 40
0
 40
0
 40
0
 40
0
 40
1
 40
1
 40
1
 40
1
 10
66.362755
 20
16.517421
 30
0.0
 10
67.087824
 20
18.496820
 30
0.0
 10
68.890225
 20
20.174719
 30
0.0
 10
70.834539
 20
20.989206
 30
0.0
  0
SPLINE
  5
176
100
AcDbEntity
  8
Capa_1
 62
5
100
AcDbSpline
 70
8
 71
3
 72
8
 73
4
 74
0
 40
0
 40
0
 40
0
 40
0
 40
1
 40
1
 40
1
 40
1
 10
70.834539
 20
20.989206
 30
0.0
 10
73.584301
 20
22.141102
 30
0.0
 10
79.778106
 20
21.060753
 30
0.0
 10
79.778106
 20
21.060753
 30
0.0
  0
SPLINE
  5
177
100
AcDbEntity
  8
Capa_1
 62
5
100
AcDbSpline
 70
8
 71
3
 72
8
 73
4
 74
0
 40
0
 40
0
 40
0
 40
0
 40
1
 40
1
 40
1
 40
1
 10
79.778106
 20
21.060753
 30
0.0
 10
79.778106
 20
21.060753
 30
0.0
 10
85.028490
 20
25.725911
 30
0.0
 10
86.467896
 20
28.823771
 30
0.0
  0
SPLINE
  5
178
100
AcDbEntity
  8
Capa_1
 62
5
100
AcDbSpline
 70
8
 71
3
 72
8
 73
4
 74
0
 40
0
 40
0
 40
0
 40
0
 40
1
 40
1
 40
1
 40
1
 10
86.467896
 20
28.823771
 30
0.0
 10
87.485649
 20
31.014157
 30
0.0
 10
87.320453
 20
33.581084
 30
0.0
 10
87.612674
 20
35.978627
 30
0.0
  0
SPLINE
  5
179
100
AcDbEntity
  8
Capa_1
 62
5
100
AcDbSpline
 70
8
 71
3
 72
8
 73
4
 74
0
 40
0
 40
0
 40
0
 40
0
 40
1
 40
1
 40
1
 40
1
 10
87.612674
 20
35.978627
 30
0.0
 10
88.232353
 20
41.062821
 30
0.0
 10
87.056155
 20
46.511809
 30
0.0
 10
88.900548
 20
51.290015
 30
0.0
  0
SPLINE
  5
17a
100
AcDbEntity
  8
Capa_1
 62
5
100
AcDbSpline
 70
8
 71
3
 72
8
 73
4
 74
0
 40
0
 40
0
 40
0
 40
0
 40
1
 40
1
 40
1
 40
1
 10
88.900548
 20
51.290015
 30
0.0
 10
90.187137
 20
54.623136
 30
0.0
 10
92.320274
 20
58.012777
 30
0.0
 10
95.411465
 20
59.804293
 30
0.0
  0
SPLINE
  5
17b
100
AcDbEntity
  8
Capa_1
 62
5
100
AcDbSpline
 70
8
 71
3
 72
8
 73
4
 74
0
 40
0
 40
0
 40
0
 40
0
 40
1
 40
1
 40
1
 40
1
 10
95.411465
 20
59.804293
 30
0.0
 10
97.597268
 20
61.071087
 30
0.0
 10
100.454274
 20
61.337617
 30
0.0
 10
102.924062
 20
60.805973
 30
0.0
  0
SPLINE
  5
17c
100
AcDbEntity
  8
Capa_1
 62
5
100
AcDbSpline
 70
8
 71
3
 72
8
 73
4
 74
0
 40
0
 40
0
 40
0
 40
0
 40
1
 40
1
 40
1
 40
1
 10
102.924062
 20
60.805973
 30
0.0
 10
105.395502
 20
60.273972
 30
0.0
 10
107.105450
 20
57.936156
 30
0.0
 10
109.363434
 20
56.799255
 30
0.0
  0
SPLINE
  5
17d
100
AcDbEntity
  8
Capa_1
 62
5
100
AcDbSpline
 70
8
 71
3
 72
8
 73
4
 74
0
 40
0
 40
0
 40
0
 40
0
 40
1
 40
1
 40
1
 40
1
 10
109.363434
 20
56.799255
 30
0.0
 10
114.058807
 20
54.435116
 30
0.0
 10
120.260880
 20
54.667529
 30
0.0
 10
124.030887
 20
51.003822
 30
0.0
  0
SPLINE
  5
17e
100
AcDbEntity
  8
Capa_1
 62
5
100
AcDbSpline
 70
8
 71
3
 72
8
 73
4
 74
0
 40
0
 40
0
 40
0
 40
0
 40
1
 40
1
 40
1
 40
1
 10
124.030887
 20
51.003822
 30
0.0
 10
124.942685
 20
50.117734
 30
0.0
 10
125.380307
 20
48.760119
 30
0.0
 10
125.533404
 20
47.497942
 30
0.0
  0
SPLINE
  5
17f
100
AcDbEntity
  8
Capa_1
 62
5
100
AcDbSpline
 70
8
 71
3
 72
8
 73
4
 74
0
 40
0
 40
0
 40
0
 40
0
 40
1
 40
1
 40
1
 40
1
 10
125.533404
 20
47.497942
 30
0.0
 10
125.815736
 20
45.170339
 30
0.0
 10
125.287526
 20
42.723241
 30
0.0
 10
124.388629
 20
40.557733
 30
0.0
  0
SPLINE
  5
180
100
AcDbEntity
  8
Capa_1
 62
5
100
AcDbSpline
 70
8
 71
3
 72
8
 73
4
 74
0
 40
0
 40
0
 40
0
 40
0
 40
1
 40
1
 40
1
 40
1
 10
124.388629
 20
40.557733
 30
0.0
 10
123.386305
 20
38.143068
 30
0.0
 10
119.809522
 20
34.189914
 30
0.0
 10
119.809522
 20
34.189914
 30
0.0
  0
SPLINE
  5
181
100
AcDbEntity
  8
Capa_1
 62
5
100
AcDbSpline
 70
8
 71
3
 72
8
 73
4
 74
0
 40
0
 40
0
 40
0
 40
0
 40
1
 40
1
 40
1
 40
1
 10
119.809522
 20
34.189914
 30
0.0
 10
119.809522
 20
34.189914
 30
0.0
 10
113.582063
 20
37.879205
 30
0.0
 10
110.150467
 20
37.767340
 30
0.0
  0
SPLINE
  5
182
100
AcDbEntity
  8
Capa_1
 62
5
100
AcDbSpline
 70
8
 71
3
 72
8
 73
4
 74
0
 40
0
 40
0
 40
0
 40
0
 40
1
 40
1
 40
1
 40
1
 10
110.150467
 20
37.767340
 30
0.0
 10
107.226783
 20
37.672031
 30
0.0
 10
104.962565
 20
34.947124
 30
0.0
 10
102.137029
 20
34.189914
 30
0.0
  0
SPLINE
  5
183
100
AcDbEntity
  8
Capa_1
 62
5
100
AcDbSpline
 70
8
 71
3
 72
8
 73
4
 74
0
 40
0
 40
0
 40
0
 40
0
 40
1
 40
1
 40
1
 40
1
 10
102.137029
 20
34.189914
 30
0.0
 10
101.025288
 20
33.891980
 30
0.0
 10
99.853425
 20
33.808479
 30
0.0
 10
98.702698
 20
33.832169
 30
0.0
  0
SPLINE
  5
184
100
AcDbEntity
  8
Capa_1
 62
5
100
AcDbSpline
 70
8
 71
3
 72
8
 73
4
 74
0
 40
0
 40
0
 40
0
 40
0
 40
1
 40
1
 40
1
 40
1
 10
98.702698
 20
33.832169
 30
0.0
 10
95.401381
 20
33.900134
 30
0.0
 10
88.900548
 20
35.263140
 30
0.0
 10
88.900548
 20
35.263140
 30
0.0
  0
SPLINE
  5
185
100
AcDbEntity
  8
Capa_1
 62
5
100
AcDbSpline
 70
8
 71
3
 72
8
 73
4
 74
0
 40
0
 40
0
 40
0
 40
0
 40
1
 40
1
 40
1
 40
1
 10
81.795720
 20
12.688829
 30
0.0
 10
81.776125
 20
11.884129
 30
0.0
 10
81.759157
 20
11.075009
 30
0.0
 10
81.849907
 20
10.273947
 30
0.0
  0
SPLINE
  5
186
100
AcDbEntity
  8
Capa_1
 62
5
100
AcDbSpline
 70
8
 71
3
 72
8
 73
4
 74
0
 40
0
 40
0
 40
0
 40
0
 40
1
 40
1
 40
1
 40
1
 10
81.849907
 20
10.273947
 30
0.0
 10
81.925017
 20
9.692738
 30
0.0
 10
82.272845
 20
9.154848
 30
0.0
 10
82.727279
 20
8.814923
 30
0.0
  0
SPLINE
  5
187
100
AcDbEntity
  8
Capa_1
 62
5
100
AcDbSpline
 70
8
 71
3
 72
8
 73
4
 74
0
 40
0
 40
0
 40
0
 40
0
 40
1
 40
1
 40
1
 40
1
 10
82.727279
 20
8.814923
 30
0.0
 10
83.101450
 20
8.535037
 30
0.0
 10
83.612053
 20
8.429441
 30
0.0
 10
84.083730
 20
8.461225
 30
0.0
  0
SPLINE
  5
188
100
AcDbEntity
  8
Capa_1
 62
5
100
AcDbSpline
 70
8
 71
3
 72
8
 73
4
 74
0
 40
0
 40
0
 40
0
 40
0
 40
1
 40
1
 40
1
 40
1
 10
84.083730
 20
8.461225
 30
0.0
 10
84.508438
 20
8.504156
 30
0.0
 10
84.874432
 20
8.762133
 30
0.0
 10
85.172001
 20
9.047050
 30
0.0
  0
SPLINE
  5
189
100
AcDbEntity
  8
Capa_1
 62
5
100
AcDbSpline
 70
8
 71
3
 72
8
 73
4
 74
0
 40
0
 40
0
 40
0
 40
0
 40
1
 40
1
 40
1
 40
1
 10
85.172001
 20
9.047050
 30
0.0
 10
85.436667
 20
9.300463
 30
0.0
 10
85.620445
 20
9.643259
 30
0.0
 10
85.734588
 20
9.991451
 30
0.0
  0
SPLINE
  5
18a
100
AcDbEntity
  8
Capa_1
 62
5
100
AcDbSpline
 70
8
 71
3
 72
8
 73
4
 74
0
 40
0
 40
0
 40
0
 40
0
 40
1
 40
1
 40
1
 40
1
 10
85.734588
 20
9.991451
 30
0.0
 10
85.850913
 20
10.346297
 30
0.0
 10
85.822036
 20
10.734804
 30
0.0
 10
85.842303
 20
11.106544
 30
0.0
  0
SPLINE
  5
18b
100
AcDbEntity
  8
Capa_1
 62
5
100
AcDbSpline
 70
8
 71
3
 72
8
 73
4
 74
0
 40
0
 40
0
 40
0
 40
0
 40
1
 40
1
 40
1
 40
1
 10
85.842303
 20
11.106544
 30
0.0
 10
85.846256
 20
11.647539
 30
0.0
 10
85.845760
 20
12.188562
 30
0.0
 10
85.842613
 20
12.729559
 30
0.0
  0
LWPOLYLINE
  5
18c
100
AcDbEntity
  8
Capa_1
 62
5
100
AcDbPolyline
 90
3
 70
0
 10
88.363933
 20
30.827132
 30
0.0
 10
88.363933
 20
30.827132
 30
0.0
 10
88.399707
 20
30.827132
 30
0.0
  0
LWPOLYLINE
  5
18d
100
AcDbEntity
  8
Capa_1
 62
5
100
AcDbPolyline
 90
5
 70
0
 10
77.130311
 20
8.381006
 30
0.0
 10
77.181353
 20
12.158068
 30
0.0
 10
79.069885
 20
8.789336
 30
0.0
 10
81.086020
 20
12.336714
 30
0.0
 10
81.086020
 20
8.432049
 30
0.0
  0
LWPOLYLINE
  5
18e
100
AcDbEntity
  8
Capa_1
 62
5
100
AcDbPolyline
 90
5
 70
0
 10
86.572968
 20
8.304445
 30
0.0
 10
86.624010
 20
12.081507
 30
0.0
 10
88.512542
 20
8.712775
 30
0.0
 10
90.528678
 20
12.260153
 30
0.0
 10
90.528678
 20
8.355487
 30
0.0
  0
LWPOLYLINE
  5
18f
100
AcDbEntity
  8
Capa_1
 62
5
100
AcDbPolyline
 90
3
 70
0
 10
91.141173
 20
8.355485
 30
0.0
 10
93.438036
 20
12.642962
 30
0.0
 10
95.760417
 20
8.278923
 30
0.0
  0
LWPOLYLINE
  5
190
100
AcDbEntity
  8
Capa_1
 62
5
100
AcDbPolyline
 90
4
 70
0
 10
96.398434
 20
13.051293
 30
0.0
 10
96.398434
 20
8.278923
 30
0.0
 10
96.474996
 20
8.278923
 30
0.0
 10
96.398434
 20
8.278923
 30
0.0
  0
LWPOLYLINE
  5
191
100
AcDbEntity
  8
Capa_1
 62
5
100
AcDbPolyline
 90
3
 70
0
 10
100.481747
 20
13.025774
 30
0.0
 10
97.419263
 20
10.014330
 30
0.0
 10
100.532787
 20
6.875285
 30
0.0
  0
LWPOLYLINE
  5
192
100
AcDbEntity
  8
Capa_1
 62
5
100
AcDbPolyline
 90
4
 70
0
 10
104.590578
 20
12.872649
 30
0.0
 10
101.170804
 20
12.898162
 30
0.0
 10
101.170804
 20
8.406519
 30
0.0
 10
104.590578
 20
8.406519
 30
0.0
  0
LWPOLYLINE
  5
193
100
AcDbEntity
  8
Capa_1
 62
5
100
AcDbPolyline
 90
2
 70
0
 10
101.910906
 20
9.810165
 30
0.0
 10
104.616099
 20
9.835678
 30
0.0
  0
SPLINE
  5
194
100
AcDbEntity
  8
Capa_1
 62
5
100
AcDbSpline
 70
8
 71
3
 72
8
 73
4
 74
0
 40
0
 40
0
 40
0
 40
0
 40
1
 40
1
 40
1
 40
1
 10
105.203074
 20
12.872649
 30
0.0
 10
105.203074
 20
12.872649
 30
0.0
 10
106.248247
 20
12.934464
 30
0.0
 10
106.759837
 20
12.847136
 30
0.0
  0
SPLINE
  5
195
100
AcDbEntity
  8
Capa_1
 62
5
100
AcDbSpline
 70
8
 71
3
 72
8
 73
4
 74
0
 40
0
 40
0
 40
0
 40
0
 40
1
 40
1
 40
1
 40
1
 10
106.759837
 20
12.847136
 30
0.0
 10
106.971977
 20
12.810924
 30
0.0
 10
107.153037
 20
12.774890
 30
0.0
 10
107.372332
 20
12.642971
 30
0.0
  0
SPLINE
  5
196
100
AcDbEntity
  8
Capa_1
 62
5
100
AcDbSpline
 70
8
 71
3
 72
8
 73
4
 74
0
 40
0
 40
0
 40
0
 40
0
 40
1
 40
1
 40
1
 40
1
 10
107.372332
 20
12.642971
 30
0.0
 10
107.552813
 20
12.534400
 30
0.0
 10
107.799202
 20
12.384495
 30
0.0
 10
107.933788
 20
12.183598
 30
0.0
  0
SPLINE
  5
197
100
AcDbEntity
  8
Capa_1
 62
5
100
AcDbSpline
 70
8
 71
3
 72
8
 73
4
 74
0
 40
0
 40
0
 40
0
 40
0
 40
1
 40
1
 40
1
 40
1
 10
107.933788
 20
12.183598
 30
0.0
 10
108.047617
 20
12.013683
 30
0.0
 10
108.082333
 20
11.798915
 30
0.0
 10
108.112435
 20
11.596623
 30
0.0
  0
SPLINE
  5
198
100
AcDbEntity
  8
Capa_1
 62
5
100
AcDbSpline
 70
8
 71
3
 72
8
 73
4
 74
0
 40
0
 40
0
 40
0
 40
0
 40
1
 40
1
 40
1
 40
1
 10
108.112435
 20
11.596623
 30
0.0
 10
108.146242
 20
11.369437
 30
0.0
 10
108.152420
 20
11.133742
 30
0.0
 10
108.112435
 20
10.907564
 30
0.0
  0
SPLINE
  5
199
100
AcDbEntity
  8
Capa_1
 62
5
100
AcDbSpline
 70
8
 71
3
 72
8
 73
4
 74
0
 40
0
 40
0
 40
0
 40
0
 40
1
 40
1
 40
1
 40
1
 10
108.112435
 20
10.907564
 30
0.0
 10
108.075475
 20
10.698505
 30
0.0
 10
108.019152
 20
10.480804
 30
0.0
 10
107.894068
 20
10.309267
 30
0.0
  0
SPLINE
  5
19a
100
AcDbEntity
  8
Capa_1
 62
5
100
AcDbSpline
 70
8
 71
3
 72
8
 73
4
 74
0
 40
0
 40
0
 40
0
 40
0
 40
1
 40
1
 40
1
 40
1
 10
107.894068
 20
10.309267
 30
0.0
 10
107.783341
 20
10.157417
 30
0.0
 10
107.617891
 20
10.045519
 30
0.0
 10
107.448896
 20
9.963299
 30
0.0
  0
SPLINE
  5
19b
100
AcDbEntity
  8
Capa_1
 62
5
100
AcDbSpline
 70
8
 71
3
 72
8
 73
4
 74
0
 40
0
 40
0
 40
0
 40
0
 40
1
 40
1
 40
1
 40
1
 10
107.448896
 20
9.963299
 30
0.0
 10
107.228117
 20
9.855882
 30
0.0
 10
106.734315
 20
9.784652
 30
0.0
 10
106.734315
 20
9.784652
 30
0.0
  0
LWPOLYLINE
  5
19c
100
AcDbEntity
  8
Capa_1
 62
5
100
AcDbPolyline
 90
2
 70
0
 10
105.203074
 20
8.355485
 30
0.0
 10
105.203074
 20
12.872649
 30
0.0
  0
LWPOLYLINE
  5
19d
100
AcDbEntity
  8
Capa_1
 62
5
100
AcDbPolyline
 90
3
 70
0
 10
106.734315
 20
9.784652
 30
0.0
 10
106.300464
 20
9.759111
 30
0.0
 10
107.755144
 20
8.329955
 30
0.0
  0
LWPOLYLINE
  5
19e
100
AcDbEntity
  8
Capa_1
 62
5
100
AcDbPolyline
 90
4
 70
0
 10
118.142068
 20
12.898170
 30
0.0
 10
114.722294
 20
12.923683
 30
0.0
 10
114.722294
 20
8.432040
 30
0.0
 10
118.142068
 20
8.432040
 30
0.0
  0
LWPOLYLINE
  5
19f
100
AcDbEntity
  8
Capa_1
 62
5
100
AcDbPolyline
 90
2
 70
0
 10
115.462396
 20
9.835687
 30
0.0
 10
118.167589
 20
9.861199
 30
0.0
  0
SPLINE
  5
1a0
100
AcDbEntity
  8
Capa_1
 62
5
100
AcDbSpline
 70
8
 71
3
 72
8
 73
4
 74
0
 40
0
 40
0
 40
0
 40
0
 40
1
 40
1
 40
1
 40
1
 10
120.135522
 20
12.974731
 30
0.0
 10
120.135522
 20
8.278923
 30
0.0
 10
120.135522
 20
8.278923
 30
0.0
 10
120.135522
 20
8.278923
 30
0.0
  0
LWPOLYLINE
  5
1a1
100
AcDbEntity
  8
Capa_1
 62
5
100
AcDbPolyline
 90
3
 70
0
 10
118.425142
 20
12.872649
 30
0.0
 10
121.794235
 20
12.872649
 30
0.0
 10
121.794235
 20
12.820720
 30
0.0
  0
LWPOLYLINE
  5
1a2
100
AcDbEntity
  8
Capa_1
 62
5
100
AcDbPolyline
 90
4
 70
0
 10
109.822320
 20
8.329966
 30
0.0
 10
109.873363
 20
12.566401
 30
0.0
 10
113.829069
 20
8.687254
 30
0.0
 10
113.803556
 20
13.000253
 30
0.0
  0
SPLINE
  5
1a3
100
AcDbEntity
  8
Capa_1
 62
7
100
AcDbSpline
 70
8
 71
3
 72
8
 73
4
 74
0
 40
0
 40
0
 40
0
 40
0
 40
1
 40
1
 40
1
 40
1
 10
165.206148
 20
61.330010
 30
0.0
 10
164.155347
 20
61.321745
 30
0.0
 10
162.949880
 20
61.122415
 30
0.0
 10
161.955928
 20
60.829058
 30
0.0
  0
SPLINE
  5
1a4
100
AcDbEntity
  8
Capa_1
 62
7
100
AcDbSpline
 70
8
 71
3
 72
8
 73
4
 74
0
 40
0
 40
0
 40
0
 40
0
 40
1
 40
1
 40
1
 40
1
 10
161.955928
 20
60.829058
 30
0.0
 10
160.686653
 20
60.454938
 30
0.0
 10
159.135196
 20
59.416797
 30
0.0
 10
158.145928
 20
58.595593
 30
0.0
  0
SPLINE
  5
1a5
100
AcDbEntity
  8
Capa_1
 62
7
100
AcDbSpline
 70
8
 71
3
 72
8
 73
4
 74
0
 40
0
 40
0
 40
0
 40
0
 40
1
 40
1
 40
1
 40
1
 10
158.145928
 20
58.595593
 30
0.0
 10
157.107813
 20
57.672036
 30
0.0
 10
156.631455
 20
56.911731
 30
0.0
 10
155.867136
 20
55.972633
 30
0.0
  0
SPLINE
  5
1a6
100
AcDbEntity
  8
Capa_1
 62
7
100
AcDbSpline
 70
8
 71
3
 72
8
 73
4
 74
0
 40
0
 40
0
 40
0
 40
0
 40
1
 40
1
 40
1
 40
1
 10
155.867136
 20
55.972633
 30
0.0
 10
155.371641
 20
55.272320
 30
0.0
 10
154.337878
 20
53.471752
 30
0.0
 10
153.850387
 20
52.203998
 30
0.0
  0
SPLINE
  5
1a7
100
AcDbEntity
  8
Capa_1
 62
7
100
AcDbSpline
 70
8
 71
3
 72
8
 73
4
 74
0
 40
0
 40
0
 40
0
 40
0
 40
1
 40
1
 40
1
 40
1
 10
153.850387
 20
52.203998
 30
0.0
 10
153.757976
 20
51.963567
 30
0.0
 10
153.741418
 20
52.095724
 30
0.0
 10
153.479688
 20
51.372026
 30
0.0
  0
LWPOLYLINE
  5
1a8
100
AcDbEntity
  8
Capa_1
 62
7
100
AcDbPolyline
 90
2
 70
1
 10
109.005657
 20
8.559653
 30
0.0
 10
109.005657
 20
8.559653
 30
0.0
  0
SPLINE
  5
1a9
100
AcDbEntity
  8
Capa_1
 62
7
100
AcDbSpline
 70
8
 71
3
 72
8
 73
4
 74
0
 40
0
 40
0
 40
0
 40
0
 40
1
 40
1
 40
1
 40
1
 10
130.903394
 20
51.372026
 30
0.0
 10
130.801825
 20
51.372026
 30
0.0
 10
130.720050
 20
51.291032
 30
0.0
 10
130.720050
 20
51.190435
 30
0.0
  0
LWPOLYLINE
  5
1aa
100
AcDbEntity
  8
Capa_1
 62
7
100
AcDbPolyline
 90
2
 70
1
 10
153.479688
 20
51.372026
 30
0.0
 10
130.903394
 20
51.372026
 30
0.0
  0
SPLINE
  5
1ab
100
AcDbEntity
  8
Capa_1
 62
7
100
AcDbSpline
 70
8
 71
3
 72
8
 73
4
 74
0
 40
0
 40
0
 40
0
 40
0
 40
1
 40
1
 40
1
 40
1
 10
130.720050
 20
4.178041
 30
0.0
 10
130.720050
 20
4.077446
 30
0.0
 10
130.801825
 20
3.996454
 30
0.0
 10
130.903394
 20
3.996454
 30
0.0
  0
LWPOLYLINE
  5
1ac
100
AcDbEntity
  8
Capa_1
 62
7
100
AcDbPolyline
 90
2
 70
1
 10
130.720050
 20
51.190435
 30
0.0
 10
130.720050
 20
4.178041
 30
0.0
  0
SPLINE
  5
1ad
100
AcDbEntity
  8
Capa_1
 62
7
100
AcDbSpline
 70
8
 71
3
 72
8
 73
4
 74
0
 40
0
 40
0
 40
0
 40
0
 40
1
 40
1
 40
1
 40
1
 10
190.916271
 20
3.996454
 30
0.0
 10
191.017840
 20
3.996454
 30
0.0
 10
191.099617
 20
4.077446
 30
0.0
 10
191.099617
 20
4.178041
 30
0.0
  0
LWPOLYLINE
  5
1ae
100
AcDbEntity
  8
Capa_1
 62
7
100
AcDbPolyline
 90
2
 70
1
 10
130.903394
 20
3.996454
 30
0.0
 10
190.916271
 20
3.996454
 30
0.0
  0
SPLINE
  5
1af
100
AcDbEntity
  8
Capa_1
 62
7
100
AcDbSpline
 70
8
 71
3
 72
8
 73
4
 74
0
 40
0
 40
0
 40
0
 40
0
 40
1
 40
1
 40
1
 40
1
 10
191.099617
 20
51.190435
 30
0.0
 10
191.099617
 20
51.291032
 30
0.0
 10
191.017820
 20
51.370216
 30
0.0
 10
190.916271
 20
51.372026
 30
0.0
  0
LWPOLYLINE
  5
1b0
100
AcDbEntity
  8
Capa_1
 62
7
100
AcDbPolyline
 90
2
 70
1
 10
191.099617
 20
4.178041
 30
0.0
 10
191.099617
 20
51.190435
 30
0.0
  0
SPLINE
  5
1b1
100
AcDbEntity
  8
Capa_1
 62
7
100
AcDbSpline
 70
8
 71
3
 72
8
 73
4
 74
0
 40
0
 40
0
 40
0
 40
0
 40
1
 40
1
 40
1
 40
1
 10
188.716905
 20
51.411213
 30
0.0
 10
188.046390
 20
52.094422
 30
0.0
 10
186.641299
 20
52.874565
 30
0.0
 10
186.641299
 20
52.874565
 30
0.0
  0
SPLINE
  5
1b2
100
AcDbEntity
  8
Capa_1
 62
7
100
AcDbSpline
 70
8
 71
3
 72
8
 73
4
 74
0
 40
0
 40
0
 40
0
 40
0
 40
1
 40
1
 40
1
 40
1
 10
186.641299
 20
52.874565
 30
0.0
 10
185.519928
 20
53.407774
 30
0.0
 10
184.494897
 20
53.884959
 30
0.0
 10
183.308009
 20
54.248205
 30
0.0
  0
SPLINE
  5
1b3
100
AcDbEntity
  8
Capa_1
 62
7
100
AcDbSpline
 70
8
 71
3
 72
8
 73
4
 74
0
 40
0
 40
0
 40
0
 40
0
 40
1
 40
1
 40
1
 40
1
 10
183.308009
 20
54.248205
 30
0.0
 10
182.180370
 20
54.594758
 30
0.0
 10
181.503827
 20
54.656335
 30
0.0
 10
180.381277
 20
55.008309
 30
0.0
  0
SPLINE
  5
1b4
100
AcDbEntity
  8
Capa_1
 62
7
100
AcDbSpline
 70
8
 71
3
 72
8
 73
4
 74
0
 40
0
 40
0
 40
0
 40
0
 40
1
 40
1
 40
1
 40
1
 10
180.381277
 20
55.008309
 30
0.0
 10
180.116758
 20
55.091417
 30
0.0
 10
179.001772
 20
55.275817
 30
0.0
 10
178.739282
 20
55.364521
 30
0.0
  0
SPLINE
  5
1b5
100
AcDbEntity
  8
Capa_1
 62
7
100
AcDbSpline
 70
8
 71
3
 72
8
 73
4
 74
0
 40
0
 40
0
 40
0
 40
0
 40
1
 40
1
 40
1
 40
1
 10
178.739282
 20
55.364521
 30
0.0
 10
177.850003
 20
55.665044
 30
0.0
 10
175.344163
 20
56.456998
 30
0.0
 10
174.526368
 20
56.864586
 30
0.0
  0
SPLINE
  5
1b6
100
AcDbEntity
  8
Capa_1
 62
7
100
AcDbSpline
 70
8
 71
3
 72
8
 73
4
 74
0
 40
0
 40
0
 40
0
 40
0
 40
1
 40
1
 40
1
 40
1
 10
174.526368
 20
56.864586
 30
0.0
 10
173.436135
 20
57.410768
 30
0.0
 10
172.636952
 20
58.054668
 30
0.0
 10
172.295096
 20
58.296680
 30
0.0
  0
SPLINE
  5
1b7
100
AcDbEntity
  8
Capa_1
 62
7
100
AcDbSpline
 70
8
 71
3
 72
8
 73
4
 74
0
 40
0
 40
0
 40
0
 40
0
 40
1
 40
1
 40
1
 40
1
 10
172.295096
 20
58.296680
 30
0.0
 10
171.227309
 20
59.182855
 30
0.0
 10
169.309705
 20
61.069363
 30
0.0
 10
166.769634
 20
61.205742
 30
0.0
  0
SPLINE
  5
1b8
100
AcDbEntity
  8
Capa_1
 62
7
100
AcDbSpline
 70
8
 71
3
 72
8
 73
4
 74
0
 40
0
 40
0
 40
0
 40
0
 40
1
 40
1
 40
1
 40
1
 10
166.769634
 20
61.205742
 30
0.0
 10
166.526615
 20
61.218263
 30
0.0
 10
165.448642
 20
61.331917
 30
0.0
 10
165.206148
 20
61.330010
 30
0.0
  0
LWPOLYLINE
  5
1b9
100
AcDbEntity
  8
Capa_1
 62
7
100
AcDbPolyline
 90
2
 70
1
 10
190.916271
 20
51.372026
 30
0.0
 10
188.716905
 20
51.411213
 30
0.0
  0
SPLINE
  5
1ba
100
AcDbEntity
  8
Capa_1
 62
7
100
AcDbSpline
 70
8
 71
3
 72
8
 73
4
 74
0
 40
0
 40
0
 40
0
 40
0
 40
1
 40
1
 40
1
 40
1
 10
144.552249
 20
21.060753
 30
0.0
 10
148.308545
 20
17.769522
 30
0.0
 10
149.786560
 20
16.973893
 30
0.0
 10
152.923426
 20
16.267002
 30
0.0
  0
SPLINE
  5
1bb
100
AcDbEntity
  8
Capa_1
 62
7
100
AcDbSpline
 70
8
 71
3
 72
8
 73
4
 74
0
 40
0
 40
0
 40
0
 40
0
 40
1
 40
1
 40
1
 40
1
 10
152.923426
 20
16.267002
 30
0.0
 10
155.501924
 20
15.685938
 30
0.0
 10
158.413498
 20
15.803243
 30
0.0
 10
160.829543
 20
16.875163
 30
0.0
  0
SPLINE
  5
1bc
100
AcDbEntity
  8
Capa_1
 62
7
100
AcDbSpline
 70
8
 71
3
 72
8
 73
4
 74
0
 40
0
 40
0
 40
0
 40
0
 40
1
 40
1
 40
1
 40
1
 10
160.829543
 20
16.875163
 30
0.0
 10
163.111812
 20
17.887728
 30
0.0
 10
165.202684
 20
19.768169
 30
0.0
 10
166.267232
 20
22.026658
 30
0.0
  0
SPLINE
  5
1bd
100
AcDbEntity
  8
Capa_1
 62
7
100
AcDbSpline
 70
8
 71
3
 72
8
 73
4
 74
0
 40
0
 40
0
 40
0
 40
0
 40
1
 40
1
 40
1
 40
1
 10
166.267232
 20
22.026658
 30
0.0
 10
167.826684
 20
25.335110
 30
0.0
 10
167.018493
 20
32.973587
 30
0.0
 10
167.018493
 20
32.973587
 30
0.0
  0
SPLINE
  5
1be
100
AcDbEntity
  8
Capa_1
 62
7
100
AcDbSpline
 70
8
 71
3
 72
8
 73
4
 74
0
 40
0
 40
0
 40
0
 40
0
 40
1
 40
1
 40
1
 40
1
 10
144.731119
 20
20.917657
 30
0.0
 10
144.731119
 20
20.917657
 30
0.0
 10
153.603799
 20
17.437042
 30
0.0
 10
157.502535
 20
19.236265
 30
0.0
  0
SPLINE
  5
1bf
100
AcDbEntity
  8
Capa_1
 62
7
100
AcDbSpline
 70
8
 71
3
 72
8
 73
4
 74
0
 40
0
 40
0
 40
0
 40
0
 40
1
 40
1
 40
1
 40
1
 10
157.502535
 20
19.236265
 30
0.0
 10
159.373547
 20
20.099715
 30
0.0
 10
160.516683
 20
22.392602
 30
0.0
 10
160.865318
 20
24.423535
 30
0.0
  0
SPLINE
  5
1c0
100
AcDbEntity
  8
Capa_1
 62
7
100
AcDbSpline
 70
8
 71
3
 72
8
 73
4
 74
0
 40
0
 40
0
 40
0
 40
0
 40
1
 40
1
 40
1
 40
1
 10
160.865318
 20
24.423535
 30
0.0
 10
161.263646
 20
26.743940
 30
0.0
 10
161.122860
 20
29.906218
 30
0.0
 10
159.219700
 20
31.292197
 30
0.0
  0
SPLINE
  5
1c1
100
AcDbEntity
  8
Capa_1
 62
7
100
AcDbSpline
 70
8
 71
3
 72
8
 73
4
 74
0
 40
0
 40
0
 40
0
 40
0
 40
1
 40
1
 40
1
 40
1
 10
159.219700
 20
31.292197
 30
0.0
 10
157.585814
 20
32.482077
 30
0.0
 10
153.173848
 20
30.827132
 30
0.0
 10
153.173848
 20
30.827132
 30
0.0
  0
LWPOLYLINE
  5
1c2
100
AcDbEntity
  8
Capa_1
 62
7
100
AcDbPolyline
 90
2
 70
1
 10
165.206148
 20
61.330010
 30
0.0
 10
165.206148
 20
61.330010
 30
0.0
  0
SPLINE
  5
1c3
100
AcDbEntity
  8
Capa_1
 62
7
100
AcDbSpline
 70
8
 71
3
 72
8
 73
4
 74
0
 40
0
 40
0
 40
0
 40
0
 40
1
 40
1
 40
1
 40
1
 10
144.480701
 20
20.917657
 30
0.0
 10
144.480701
 20
20.917657
 30
0.0
 10
137.215192
 20
15.037552
 30
0.0
 10
134.928968
 20
11.079732
 30
0.0
  0
SPLINE
  5
1c4
100
AcDbEntity
  8
Capa_1
 62
7
100
AcDbSpline
 70
8
 71
3
 72
8
 73
4
 74
0
 40
0
 40
0
 40
0
 40
0
 40
1
 40
1
 40
1
 40
1
 10
134.928968
 20
11.079732
 30
0.0
 10
134.296458
 20
9.984758
 30
0.0
 10
133.712643
 20
7.394980
 30
0.0
 10
133.712643
 20
7.394980
 30
0.0
  0
SPLINE
  5
1c5
100
AcDbEntity
  8
Capa_1
 62
5
100
AcDbSpline
 70
8
 71
3
 72
8
 73
4
 74
0
 40
0
 40
0
 40
0
 40
0
 40
1
 40
1
 40
1
 40
1
 10
133.712643
 20
7.502303
 30
0.0
 10
133.712643
 20
7.502303
 30
0.0
 10
131.986244
 20
10.529817
 30
0.0
 10
131.530412
 20
12.224507
 30
0.0
  0
SPLINE
  5
1c6
100
AcDbEntity
  8
Capa_1
 62
5
100
AcDbSpline
 70
8
 71
3
 72
8
 73
4
 74
0
 40
0
 40
0
 40
0
 40
0
 40
1
 40
1
 40
1
 40
1
 10
131.530412
 20
12.224507
 30
0.0
 10
131.157438
 20
13.611153
 30
0.0
 10
130.678770
 20
15.169104
 30
0.0
 10
131.172669
 20
16.517421
 30
0.0
  0
SPLINE
  5
1c7
100
AcDbEntity
  8
Capa_1
 62
5
100
AcDbSpline
 70
8
 71
3
 72
8
 73
4
 74
0
 40
0
 40
0
 40
0
 40
0
 40
1
 40
1
 40
1
 40
1
 10
131.172669
 20
16.517421
 30
0.0
 10
131.897739
 20
18.496820
 30
0.0
 10
133.700140
 20
20.174719
 30
0.0
 10
135.644454
 20
20.989206
 30
0.0
  0
SPLINE
  5
1c8
100
AcDbEntity
  8
Capa_1
 62
5
100
AcDbSpline
 70
8
 71
3
 72
8
 73
4
 74
0
 40
0
 40
0
 40
0
 40
0
 40
1
 40
1
 40
1
 40
1
 10
135.644454
 20
20.989206
 30
0.0
 10
138.394216
 20
22.141102
 30
0.0
 10
144.588021
 20
21.060753
 30
0.0
 10
144.588021
 20
21.060753
 30
0.0
  0
SPLINE
  5
1c9
100
AcDbEntity
  8
Capa_1
 62
5
100
AcDbSpline
 70
8
 71
3
 72
8
 73
4
 74
0
 40
0
 40
0
 40
0
 40
0
 40
1
 40
1
 40
1
 40
1
 10
144.588021
 20
21.060753
 30
0.0
 10
144.588021
 20
21.060753
 30
0.0
 10
149.838404
 20
25.725911
 30
0.0
 10
151.277811
 20
28.823771
 30
0.0
  0
SPLINE
  5
1ca
100
AcDbEntity
  8
Capa_1
 62
5
100
AcDbSpline
 70
8
 71
3
 72
8
 73
4
 74
0
 40
0
 40
0
 40
0
 40
0
 40
1
 40
1
 40
1
 40
1
 10
151.277811
 20
28.823771
 30
0.0
 10
152.295564
 20
31.014157
 30
0.0
 10
152.130368
 20
33.581084
 30
0.0
 10
152.422589
 20
35.978627
 30
0.0
  0
SPLINE
  5
1cb
100
AcDbEntity
  8
Capa_1
 62
5
100
AcDbSpline
 70
8
 71
3
 72
8
 73
4
 74
0
 40
0
 40
0
 40
0
 40
0
 40
1
 40
1
 40
1
 40
1
 10
152.422589
 20
35.978627
 30
0.0
 10
153.042267
 20
41.062821
 30
0.0
 10
151.866069
 20
46.511809
 30
0.0
 10
153.710462
 20
51.290015
 30
0.0
  0
SPLINE
  5
1cc
100
AcDbEntity
  8
Capa_1
 62
5
100
AcDbSpline
 70
8
 71
3
 72
8
 73
4
 74
0
 40
0
 40
0
 40
0
 40
0
 40
1
 40
1
 40
1
 40
1
 10
153.710462
 20
51.290015
 30
0.0
 10
154.997051
 20
54.623136
 30
0.0
 10
157.130188
 20
58.012777
 30
0.0
 10
160.221380
 20
59.804293
 30
0.0
  0
SPLINE
  5
1cd
100
AcDbEntity
  8
Capa_1
 62
5
100
AcDbSpline
 70
8
 71
3
 72
8
 73
4
 74
0
 40
0
 40
0
 40
0
 40
0
 40
1
 40
1
 40
1
 40
1
 10
160.221380
 20
59.804293
 30
0.0
 10
162.407182
 20
61.071087
 30
0.0
 10
165.264188
 20
61.337617
 30
0.0
 10
167.733977
 20
60.805973
 30
0.0
  0
SPLINE
  5
1ce
100
AcDbEntity
  8
Capa_1
 62
5
100
AcDbSpline
 70
8
 71
3
 72
8
 73
4
 74
0
 40
0
 40
0
 40
0
 40
0
 40
1
 40
1
 40
1
 40
1
 10
167.733977
 20
60.805973
 30
0.0
 10
170.205417
 20
60.273972
 30
0.0
 10
171.915365
 20
57.936156
 30
0.0
 10
174.173348
 20
56.799255
 30
0.0
  0
SPLINE
  5
1cf
100
AcDbEntity
  8
Capa_1
 62
5
100
AcDbSpline
 70
8
 71
3
 72
8
 73
4
 74
0
 40
0
 40
0
 40
0
 40
0
 40
1
 40
1
 40
1
 40
1
 10
174.173348
 20
56.799255
 30
0.0
 10
178.868722
 20
54.435116
 30
0.0
 10
185.070795
 20
54.667529
 30
0.0
 10
188.840801
 20
51.003822
 30
0.0
  0
SPLINE
  5
1d0
100
AcDbEntity
  8
Capa_1
 62
5
100
AcDbSpline
 70
8
 71
3
 72
8
 73
4
 74
0
 40
0
 40
0
 40
0
 40
0
 40
1
 40
1
 40
1
 40
1
 10
188.840801
 20
51.003822
 30
0.0
 10
189.752599
 20
50.117734
 30
0.0
 10
190.190222
 20
48.760119
 30
0.0
 10
190.343319
 20
47.497942
 30
0.0
  0
SPLINE
  5
1d1
100
AcDbEntity
  8
Capa_1
 62
5
100
AcDbSpline
 70
8
 71
3
 72
8
 73
4
 74
0
 40
0
 40
0
 40
0
 40
0
 40
1
 40
1
 40
1
 40
1
 10
190.343319
 20
47.497942
 30
0.0
 10
190.625651
 20
45.170339
 30
0.0
 10
190.097441
 20
42.723241
 30
0.0
 10
189.198544
 20
40.557733
 30
0.0
  0
SPLINE
  5
1d2
100
AcDbEntity
  8
Capa_1
 62
5
100
AcDbSpline
 70
8
 71
3
 72
8
 73
4
 74
0
 40
0
 40
0
 40
0
 40
0
 40
1
 40
1
 40
1
 40
1
 10
189.198544
 20
40.557733
 30
0.0
 10
188.196220
 20
38.143068
 30
0.0
 10
184.619437
 20
34.189914
 30
0.0
 10
184.619437
 20
34.189914
 30
0.0
  0
SPLINE
  5
1d3
100
AcDbEntity
  8
Capa_1
 62
5
100
AcDbSpline
 70
8
 71
3
 72
8
 73
4
 74
0
 40
0
 40
0
 40
0
 40
0
 40
1
 40
1
 40
1
 40
1
 10
184.619437
 20
34.189914
 30
0.0
 10
184.619437
 20
34.189914
 30
0.0
 10
178.391978
 20
37.879205
 30
0.0
 10
174.960382
 20
37.767340
 30
0.0
  0
SPLINE
  5
1d4
100
AcDbEntity
  8
Capa_1
 62
5
100
AcDbSpline
 70
8
 71
3
 72
8
 73
4
 74
0
 40
0
 40
0
 40
0
 40
0
 40
1
 40
1
 40
1
 40
1
 10
174.960382
 20
37.767340
 30
0.0
 10
172.036698
 20
37.672031
 30
0.0
 10
169.772480
 20
34.947124
 30
0.0
 10
166.946944
 20
34.189914
 30
0.0
  0
SPLINE
  5
1d5
100
AcDbEntity
  8
Capa_1
 62
5
100
AcDbSpline
 70
8
 71
3
 72
8
 73
4
 74
0
 40
0
 40
0
 40
0
 40
0
 40
1
 40
1
 40
1
 40
1
 10
166.946944
 20
34.189914
 30
0.0
 10
165.835203
 20
33.891980
 30
0.0
 10
164.663340
 20
33.808479
 30
0.0
 10
163.512613
 20
33.832169
 30
0.0
  0
SPLINE
  5
1d6
100
AcDbEntity
  8
Capa_1
 62
5
100
AcDbSpline
 70
8
 71
3
 72
8
 73
4
 74
0
 40
0
 40
0
 40
0
 40
0
 40
1
 40
1
 40
1
 40
1
 10
163.512613
 20
33.832169
 30
0.0
 10
160.211296
 20
33.900134
 30
0.0
 10
153.710462
 20
35.263140
 30
0.0
 10
153.710462
 20
35.263140
 30
0.0
  0
SPLINE
  5
1d7
100
AcDbEntity
  8
Capa_1
 62
7
100
AcDbSpline
 70
8
 71
3
 72
8
 73
4
 74
0
 40
0
 40
0
 40
0
 40
0
 40
1
 40
1
 40
1
 40
1
 10
146.605634
 20
12.688829
 30
0.0
 10
146.586040
 20
11.884129
 30
0.0
 10
146.569072
 20
11.075009
 30
0.0
 10
146.659821
 20
10.273947
 30
0.0
  0
SPLINE
  5
1d8
100
AcDbEntity
  8
Capa_1
 62
7
100
AcDbSpline
 70
8
 71
3
 72
8
 73
4
 74
0
 40
0
 40
0
 40
0
 40
0
 40
1
 40
1
 40
1
 40
1
 10
146.659821
 20
10.273947
 30
0.0
 10
146.734932
 20
9.692738
 30
0.0
 10
147.082760
 20
9.154848
 30
0.0
 10
147.537194
 20
8.814923
 30
0.0
  0
SPLINE
  5
1d9
100
AcDbEntity
  8
Capa_1
 62
7
100
AcDbSpline
 70
8
 71
3
 72
8
 73
4
 74
0
 40
0
 40
0
 40
0
 40
0
 40
1
 40
1
 40
1
 40
1
 10
147.537194
 20
8.814923
 30
0.0
 10
147.911365
 20
8.535037
 30
0.0
 10
148.421968
 20
8.429441
 30
0.0
 10
148.893645
 20
8.461225
 30
0.0
  0
SPLINE
  5
1da
100
AcDbEntity
  8
Capa_1
 62
7
100
AcDbSpline
 70
8
 71
3
 72
8
 73
4
 74
0
 40
0
 40
0
 40
0
 40
0
 40
1
 40
1
 40
1
 40
1
 10
148.893645
 20
8.461225
 30
0.0
 10
149.318353
 20
8.504156
 30
0.0
 10
149.684347
 20
8.762133
 30
0.0
 10
149.981915
 20
9.047050
 30
0.0
  0
SPLINE
  5
1db
100
AcDbEntity
  8
Capa_1
 62
7
100
AcDbSpline
 70
8
 71
3
 72
8
 73
4
 74
0
 40
0
 40
0
 40
0
 40
0
 40
1
 40
1
 40
1
 40
1
 10
149.981915
 20
9.047050
 30
0.0
 10
150.246581
 20
9.300463
 30
0.0
 10
150.430359
 20
9.643259
 30
0.0
 10
150.544503
 20
9.991451
 30
0.0
  0
SPLINE
  5
1dc
100
AcDbEntity
  8
Capa_1
 62
7
100
AcDbSpline
 70
8
 71
3
 72
8
 73
4
 74
0
 40
0
 40
0
 40
0
 40
0
 40
1
 40
1
 40
1
 40
1
 10
150.544503
 20
9.991451
 30
0.0
 10
150.660828
 20
10.346297
 30
0.0
 10
150.631951
 20
10.734804
 30
0.0
 10
150.652217
 20
11.106544
 30
0.0
  0
SPLINE
  5
1dd
100
AcDbEntity
  8
Capa_1
 62
7
100
AcDbSpline
 70
8
 71
3
 72
8
 73
4
 74
0
 40
0
 40
0
 40
0
 40
0
 40
1
 40
1
 40
1
 40
1
 10
150.652217
 20
11.106544
 30
0.0
 10
150.656171
 20
11.647539
 30
0.0
 10
150.655674
 20
12.188562
 30
0.0
 10
150.652528
 20
12.729559
 30
0.0
  0
LWPOLYLINE
  5
1de
100
AcDbEntity
  8
Capa_1
 62
7
100
AcDbPolyline
 90
3
 70
0
 10
153.173848
 20
30.827132
 30
0.0
 10
153.173848
 20
30.827132
 30
0.0
 10
153.209622
 20
30.827132
 30
0.0
  0
LWPOLYLINE
  5
1df
100
AcDbEntity
  8
Capa_1
 62
7
100
AcDbPolyline
 90
5
 70
0
 10
141.940226
 20
8.381006
 30
0.0
 10
141.991268
 20
12.158068
 30
0.0
 10
143.879799
 20
8.789336
 30
0.0
 10
145.895934
 20
12.336714
 30
0.0
 10
145.895934
 20
8.432049
 30
0.0
  0
LWPOLYLINE
  5
1e0
100
AcDbEntity
  8
Capa_1
 62
7
100
AcDbPolyline
 90
5
 70
0
 10
151.382883
 20
8.304445
 30
0.0
 10
151.433925
 20
12.081507
 30
0.0
 10
153.322457
 20
8.712775
 30
0.0
 10
155.338593
 20
12.260153
 30
0.0
 10
155.338593
 20
8.355487
 30
0.0
  0
LWPOLYLINE
  5
1e1
100
AcDbEntity
  8
Capa_1
 62
7
100
AcDbPolyline
 90
3
 70
0
 10
155.951088
 20
8.355485
 30
0.0
 10
158.247951
 20
12.642962
 30
0.0
 10
160.570332
 20
8.278923
 30
0.0
  0
LWPOLYLINE
  5
1e2
100
AcDbEntity
  8
Capa_1
 62
7
100
AcDbPolyline
 90
4
 70
0
 10
161.208349
 20
13.051293
 30
0.0
 10
161.208349
 20
8.278923
 30
0.0
 10
161.284910
 20
8.278923
 30
0.0
 10
161.208349
 20
8.278923
 30
0.0
  0
LWPOLYLINE
  5
1e3
100
AcDbEntity
  8
Capa_1
 62
7
100
AcDbPolyline
 90
3
 70
0
 10
165.291662
 20
13.025774
 30
0.0
 10
162.229178
 20
10.014330
 30
0.0
 10
165.342701
 20
6.875285
 30
0.0
  0
LWPOLYLINE
  5
1e4
100
AcDbEntity
  8
Capa_1
 62
7
100
AcDbPolyline
 90
4
 70
0
 10
169.400493
 20
12.872649
 30
0.0
 10
165.980718
 20
12.898162
 30
0.0
 10
165.980718
 20
8.406519
 30
0.0
 10
169.400493
 20
8.406519
 30
0.0
  0
LWPOLYLINE
  5
1e5
100
AcDbEntity
  8
Capa_1
 62
7
100
AcDbPolyline
 90
2
 70
0
 10
166.720821
 20
9.810165
 30
0.0
 10
169.426014
 20
9.835678
 30
0.0
  0
SPLINE
  5
1e6
100
AcDbEntity
  8
Capa_1
 62
7
100
AcDbSpline
 70
8
 71
3
 72
8
 73
4
 74
0
 40
0
 40
0
 40
0
 40
0
 40
1
 40
1
 40
1
 40
1
 10
170.012988
 20
12.872649
 30
0.0
 10
170.012988
 20
12.872649
 30
0.0
 10
171.058162
 20
12.934464
 30
0.0
 10
171.569751
 20
12.847136
 30
0.0
  0
SPLINE
  5
1e7
100
AcDbEntity
  8
Capa_1
 62
7
100
AcDbSpline
 70
8
 71
3
 72
8
 73
4
 74
0
 40
0
 40
0
 40
0
 40
0
 40
1
 40
1
 40
1
 40
1
 10
171.569751
 20
12.847136
 30
0.0
 10
171.781892
 20
12.810924
 30
0.0
 10
171.962952
 20
12.774890
 30
0.0
 10
172.182247
 20
12.642971
 30
0.0
  0
SPLINE
  5
1e8
100
AcDbEntity
  8
Capa_1
 62
7
100
AcDbSpline
 70
8
 71
3
 72
8
 73
4
 74
0
 40
0
 40
0
 40
0
 40
0
 40
1
 40
1
 40
1
 40
1
 10
172.182247
 20
12.642971
 30
0.0
 10
172.362728
 20
12.534400
 30
0.0
 10
172.609117
 20
12.384495
 30
0.0
 10
172.743703
 20
12.183598
 30
0.0
  0
SPLINE
  5
1e9
100
AcDbEntity
  8
Capa_1
 62
7
100
AcDbSpline
 70
8
 71
3
 72
8
 73
4
 74
0
 40
0
 40
0
 40
0
 40
0
 40
1
 40
1
 40
1
 40
1
 10
172.743703
 20
12.183598
 30
0.0
 10
172.857531
 20
12.013683
 30
0.0
 10
172.892248
 20
11.798915
 30
0.0
 10
172.922349
 20
11.596623
 30
0.0
  0
SPLINE
  5
1ea
100
AcDbEntity
  8
Capa_1
 62
7
100
AcDbSpline
 70
8
 71
3
 72
8
 73
4
 74
0
 40
0
 40
0
 40
0
 40
0
 40
1
 40
1
 40
1
 40
1
 10
172.922349
 20
11.596623
 30
0.0
 10
172.956157
 20
11.369437
 30
0.0
 10
172.962335
 20
11.133742
 30
0.0
 10
172.922349
 20
10.907564
 30
0.0
  0
SPLINE
  5
1eb
100
AcDbEntity
  8
Capa_1
 62
7
100
AcDbSpline
 70
8
 71
3
 72
8
 73
4
 74
0
 40
0
 40
0
 40
0
 40
0
 40
1
 40
1
 40
1
 40
1
 10
172.922349
 20
10.907564
 30
0.0
 10
172.885390
 20
10.698505
 30
0.0
 10
172.829066
 20
10.480804
 30
0.0
 10
172.703983
 20
10.309267
 30
0.0
  0
SPLINE
  5
1ec
100
AcDbEntity
  8
Capa_1
 62
7
100
AcDbSpline
 70
8
 71
3
 72
8
 73
4
 74
0
 40
0
 40
0
 40
0
 40
0
 40
1
 40
1
 40
1
 40
1
 10
172.703983
 20
10.309267
 30
0.0
 10
172.593256
 20
10.157417
 30
0.0
 10
172.427806
 20
10.045519
 30
0.0
 10
172.258811
 20
9.963299
 30
0.0
  0
SPLINE
  5
1ed
100
AcDbEntity
  8
Capa_1
 62
7
100
AcDbSpline
 70
8
 71
3
 72
8
 73
4
 74
0
 40
0
 40
0
 40
0
 40
0
 40
1
 40
1
 40
1
 40
1
 10
172.258811
 20
9.963299
 30
0.0
 10
172.038031
 20
9.855882
 30
0.0
 10
171.544230
 20
9.784652
 30
0.0
 10
171.544230
 20
9.784652
 30
0.0
  0
LWPOLYLINE
  5
1ee
100
AcDbEntity
  8
Capa_1
 62
7
100
AcDbPolyline
 90
2
 70
0
 10
170.012988
 20
8.355485
 30
0.0
 10
170.012988
 20
12.872649
 30
0.0
  0
LWPOLYLINE
  5
1ef
100
AcDbEntity
  8
Capa_1
 62
7
100
AcDbPolyline
 90
3
 70
0
 10
171.544230
 20
9.784652
 30
0.0
 10
171.110378
 20
9.759111
 30
0.0
 10
172.565059
 20
8.329955
 30
0.0
  0
LWPOLYLINE
  5
1f0
100
AcDbEntity
  8
Capa_1
 62
7
100
AcDbPolyline
 90
4
 70
0
 10
182.951982
 20
12.898170
 30
0.0
 10
179.532208
 20
12.923683
 30
0.0
 10
179.532208
 20
8.432040
 30
0.0
 10
182.951982
 20
8.432040
 30
0.0
  0
LWPOLYLINE
  5
1f1
100
AcDbEntity
  8
Capa_1
 62
7
100
AcDbPolyline
 90
2
 70
0
 10
180.272311
 20
9.835687
 30
0.0
 10
182.977504
 20
9.861199
 30
0.0
  0
SPLINE
  5
1f2
100
AcDbEntity
  8
Capa_1
 62
7
100
AcDbSpline
 70
8
 71
3
 72
8
 73
4
 74
0
 40
0
 40
0
 40
0
 40
0
 40
1
 40
1
 40
1
 40
1
 10
184.945437
 20
12.974731
 30
0.0
 10
184.945437
 20
8.278923
 30
0.0
 10
184.945437
 20
8.278923
 30
0.0
 10
184.945437
 20
8.278923
 30
0.0
  0
LWPOLYLINE
  5
1f3
100
AcDbEntity
  8
Capa_1
 62
7
100
AcDbPolyline
 90
3
 70
0
 10
183.235057
 20
12.872649
 30
0.0
 10
186.604150
 20
12.872649
 30
0.0
 10
186.604150
 20
12.820720
 30
0.0
  0
LWPOLYLINE
  5
1f4
100
AcDbEntity
  8
Capa_1
 62
7
100
AcDbPolyline
 90
4
 70
0
 10
174.632235
 20
8.329966
 30
0.0
 10
174.683278
 20
12.566401
 30
0.0
 10
178.638983
 20
8.687254
 30
0.0
 10
178.613471
 20
13.000253
 30
0.0
  0
LWPOLYLINE
  5
1f5
100
AcDbEntity
  8
Capa_1
 62
7
100
AcDbPolyline
 90
2
 70
1
 10
173.815571
 20
8.559653
 30
0.0
 10
173.815571
 20
8.559653
 30
0.0
  0
ENDSEC
  0
SECTION
  2
OBJECTS
  0
DICTIONARY
  5
C
330
0
100
AcDbDictionary
  3
ACAD_GROUP
350
D
  3
ACAD_MLINESTYLE
350
17
  0
DICTIONARY
  5
D
330
C
100
AcDbDictionary
  0
DICTIONARY
  5
1A
330
C
100
AcDbDictionary
  0
DICTIONARY
  5
17
330
C
100
AcDbDictionary
  3
STANDARD
350
18
  0
DICTIONARY
  5
19
330
C
100
AcDbDictionary
  0
ENDSEC
  0
EOF
